<?xml version="1.0" standalone="no"?>
<!DOCTYPE svg PUBLIC "-//W3C//DTD SVG 1.1//EN" "http://www.w3.org/Graphics/SVG/1.1/DTD/svg11.dtd" >
<svg>
<metadata>
Created by FontForge 20090914 at Fri Jul 15 02:25:49 2016
 By www-data
(c) Copyright 2001 by Tom Truong. All Rights Reserved
</metadata>
<defs>
<font id="UVNVan" horiz-adv-x="1096" >
  <font-face 
    font-family="UVN Van"
    font-weight="400"
    font-stretch="normal"
    units-per-em="2048"
    panose-1="0 0 4 0 0 0 0 0 0 0"
    ascent="1638"
    descent="-410"
    x-height="1092"
    cap-height="1473"
    bbox="-113 -457 2149 2282"
    underline-thickness="50"
    underline-position="-75"
    unicode-range="U+0020-U+F002"
  />
<missing-glyph horiz-adv-x="1024" 
d="M128 0v2282h768v-2282h-768zM256 128h512v2026h-512v-2026z" />
    <glyph glyph-name=".notdef" horiz-adv-x="1024" 
d="M128 0v2282h768v-2282h-768zM256 128h512v2026h-512v-2026z" />
    <glyph glyph-name="space" unicode=" " horiz-adv-x="492" 
 />
    <glyph glyph-name="exclam" unicode="!" horiz-adv-x="568" 
d="M391 488c0 -67.333 -30.667 -101 -92 -101c-57.333 0 -86 32.333 -86 97v897c0 58.667 28.667 88 86 88c61.333 0 92 -29.333 92 -88v-893zM408 92c0 -28.667 -10.3311 -53.334 -30.998 -74.001s-45.334 -31 -74.001 -31s-53.5 10.333 -74.5 31
s-31.5 45.334 -31.5 74.001c0 29.333 10.333 54.166 31 74.499s45.667 30.5 75 30.5s54.166 -10.167 74.499 -30.5s30.5 -45.166 30.5 -74.499z" />
    <glyph glyph-name="quotedbl" unicode="&#x22;" horiz-adv-x="643" 
d="M572 1096c0 -53.333 -29.333 -80 -88 -80c-53.333 0 -80 26.667 -80 80v289c0 58.667 28 88 84 88s84 -29.333 84 -88v-289zM281 1096c0 -53.333 -29.333 -80 -88 -80c-53.333 0 -80 26.667 -80 80v289c0 58.667 28 88 84 88s84 -29.333 84 -88v-289z" />
    <glyph glyph-name="numbersign" unicode="#" 
d="M1071 944c0 -42 -28.0029 -62.999 -84.0029 -62.999h-143l-43 -305h127c53.333 0 80 -22.667 80 -68c0 -42 -25.333 -63 -76 -63h-151l-54 -377c-4 -30 -10 -50 -18 -60c-10.667 -14 -29.667 -21 -57 -21c-47.333 0 -72.666 25.667 -75.999 77
c0.666992 1.33301 19.667 128.333 57 381h-246l-51 -377c-7.33301 -54 -34 -81 -80 -81c-44 0 -67.667 25.667 -71 77c0.666992 1.33301 17.667 128.333 51 381h-131c-53.333 0 -80 21 -80 63c0 45.333 29.333 68 88 68h143l43 305h-131c-56 0 -84 21 -84 63
c0 48 26.667 72 80 72h152l57 381c4 28.667 10.667 48.5 20 59.5s28 16.5 56 16.5c45.333 0 68 -25.333 68 -76c0 -6.66699 -0.333008 -13.334 -1 -20.001l-47 -361h240l55 385c6.66699 48 33.334 72 80.001 72c23.333 0 41.333 -9.5 54 -28.5s17.334 -40.167 14.001 -63.5
l-52 -365h127c56 0 84 -24 84 -72zM691.997 881.001h-243l-41 -305h239z" />
    <glyph glyph-name="dollar" unicode="$" horiz-adv-x="948" 
d="M944 420c0 -14.667 -3.66992 -39.001 -11.0029 -73.001c-27.333 -121.333 -92.333 -214.666 -195 -279.999c-60 -38 -128.333 -61.667 -205 -71v-105c0 -28.667 -15 -43 -45 -43c-26 0 -39 14.333 -39 43v96c-143.333 0 -259.333 32.333 -348 97
c-40 28.667 -60 56.667 -60 84c0 21.333 6.83301 40.666 20.5 57.999s30.834 26 51.501 26c26 0 48.333 -5.33301 67 -16c104.667 -61.333 194.334 -92 269.001 -92v569c-120.667 36.667 -210.667 78.667 -270 126c-82.667 66 -124 151.667 -124 257c0 60 18.667 119 56 177
c74.667 119.333 187.334 186 338.001 200v100c0 23.333 13 35 39 35c30 0 45 -13 45 -39v-96c70.667 -7.33301 133.667 -22.333 189 -45c81.333 -32.667 122 -75 122 -127c0 -49.333 -28 -76 -84 -80c-20.667 6 -58 23.667 -112 53c-46 25.333 -84.333 39.666 -115 42.999
v-448c134 -43.333 231.667 -93.666 293 -150.999c78.667 -73.333 118 -172.666 118 -297.999zM448.997 898.999v418c-56.667 -6.66699 -103.667 -28 -141 -64c-40 -38.667 -60 -85.667 -60 -141c0 -95.333 67 -166.333 201 -213zM751.997 435.999
c0 66 -21.332 119.332 -63.999 159.999c-32.667 30 -84.334 58 -155.001 84v-528c66 12.667 119.333 46.334 160 101.001c39.333 52.667 59 113.667 59 183z" />
    <glyph glyph-name="percent" unicode="%" horiz-adv-x="1516" 
d="M709 1116c0 -97.333 -27.667 -177 -83 -239c-58 -64 -134.667 -96 -230 -96c-93.333 0 -169.333 32.667 -228 98c-56 63.333 -84 142.333 -84 237c0 103.333 26.333 187.333 79 252c57.333 70 136.333 105 237 105c98 0 175 -36 231 -108c52 -65.333 78 -148.333 78 -249
zM1116 1432c0 -13.333 -2.66699 -26.333 -8 -39l-571 -1372c-14 -33.333 -38 -50 -72 -50c-37.333 0 -60.333 19.333 -69 58c4.66699 18 10 33.667 16 47l565 1356c16 38 37.333 57 64 57c50 0 75 -19 75 -57zM1432 320c0 -97.333 -27.334 -177 -82.001 -239
c-57.333 -65.333 -133.666 -98 -228.999 -98c-94 0 -170 33 -228 99c-56 62.667 -84 142 -84 238c0 104 26 188 78 252c56.667 69.333 136 104 238 104c97.333 0 174 -36 230 -108c51.333 -65.333 77 -148 77 -248zM571.999 1121c0 64 -12.333 117.332 -37 159.999
c-30.667 52.667 -75.667 79 -135 79c-63.333 0 -110.666 -26.333 -141.999 -79c-26 -43.333 -39 -98.666 -39 -165.999c0 -54 14.333 -103.667 43 -149c33.333 -51.333 75.666 -77 126.999 -77c122 0 183 77.333 183 232zM1297 331.999
c0 64 -13.3311 116.331 -39.998 156.998c-30.667 49.333 -76 74 -136 74c-62.667 0 -109.334 -26.333 -140.001 -79c-24.667 -43.333 -37 -98.666 -37 -165.999c0 -57.333 14.667 -107.333 44 -150c33.333 -47.333 77.666 -71 132.999 -71c58.667 0 104 25.667 136 77
c26.667 42.667 40 95.334 40 158.001z" />
    <glyph glyph-name="ampersand" unicode="&#x26;" horiz-adv-x="1368" 
d="M1293 56c0 -19.333 -8.49609 -34.833 -25.4961 -46.5s-35.167 -17.5 -54.5 -17.5c-26 0 -46 8.33301 -60 25l-176 206c-126.667 -157.333 -280.334 -236 -461.001 -236c-171.333 0 -299 69.333 -383 208c-40.667 67.333 -61 141 -61 221c0 18 2.66699 46 8 84
c13.333 88 50.666 165.333 111.999 232c45.333 50 114.666 102.333 207.999 157c-55.333 58 -93.333 105.333 -114 142c-30.667 53.333 -46 111 -46 173c0 88 35 156.333 105 205c61.333 42.667 138.333 64 231 64c91.333 0 168.333 -21.667 231 -65
c72.667 -48.667 109 -116.667 109 -204c0 -136.667 -88 -252.667 -264 -348l325 -387c20 25.333 44.667 61 74 107l59 94c31.333 43.333 58.666 65 81.999 65c50.667 0 76 -19.667 76 -59c0 -50.667 -22.667 -108.667 -68 -174c-13.333 -19.333 -53.333 -69 -120 -149
l188 -228c16.667 -20 25 -43 25 -69zM744.004 1188c0 43.333 -17.666 78 -52.999 104c-32 23.333 -70.333 35 -115 35c-100.667 0 -154 -49 -160 -147c0.666992 -2 2 -11 4 -27c3.33301 -26 47.666 -87.333 132.999 -184c127.333 65.333 191 138.333 191 219zM873.005 344
l-373 427.999c-168 -87.333 -252 -200.666 -252 -339.999c0 -107.333 46.667 -188 140 -242c44 -25.333 92.333 -38 145 -38c132 0 245.333 64 340 192z" />
    <glyph glyph-name="quotesingle" unicode="'" horiz-adv-x="381" 
d="M369 1393c0 -23.333 -5.33203 -45.334 -15.999 -66.001l-130 -247c-25.333 -48 -53 -72 -83 -72c-22.667 0 -43.334 9.33301 -62.001 28c-16.667 16.667 -27 36.667 -31 60c4 20.667 11 40.334 21 59.001l125 250c20.667 42.667 50 64 88 64c58.667 0 88 -25.333 88 -76z
" />
    <glyph glyph-name="parenleft" unicode="(" horiz-adv-x="416" 
d="M412 -140c0 -17.333 -7.5 -32.501 -22.5 -45.501s-31.5 -19.5 -49.5 -19.5c-32 0 -58.667 23.333 -80 70c-86 186 -129 453.333 -129 802c0 292.667 41.667 547.667 125 765c19.333 50.667 48.666 76 87.999 76c45.333 0 68 -21.333 68 -64
c0 -35.333 -9.33301 -80.333 -28 -135c-23.333 -71.333 -36.666 -116 -39.999 -134c-30 -154 -45 -332 -45 -534c0 -241.333 19.667 -439.666 59 -594.999c10.667 -31.333 26 -79 46 -143c5.33301 -18 8 -32.333 8 -43z" />
    <glyph glyph-name="parenright" unicode=")" horiz-adv-x="416" 
d="M361 625c0 -338.667 -43.002 -591.999 -129.002 -759.999c-24 -46.667 -50.667 -70 -80 -70c-47.333 0 -72.666 23.333 -75.999 70c78 229.333 117 499.666 117 810.999c0 244.667 -29.333 467 -88 667c-5.33301 15.333 -12.333 38 -21 68c0 6 -1.33301 15.667 -4 29
c4 45.333 25.333 68 64 68s69.334 -25.333 92.001 -76c83.333 -190.667 125 -459.667 125 -807z" />
    <glyph glyph-name="asterisk" unicode="*" horiz-adv-x="797" 
d="M725 969c0 -48 -24.333 -72.001 -73 -72.001c-20 0 -42.667 10.333 -68 31l-131 104c0 -22.667 3 -56.167 9 -100.5s9 -77.5 9 -99.5c0 -58.667 -25 -88 -75 -88c-20 0 -37 8.16699 -51 24.5s-21 34.833 -21 55.5c0 -12 4.33301 8.66699 13 62
c7.33301 42 11 86.667 11 134v12c-104 -90 -172 -135 -204 -135c-17.333 0 -33 8.33301 -47 25s-21 33.667 -21 51c0 25.333 13.667 43.666 41 54.999l190 80c-73.333 20.667 -136.333 45 -189 73c-30.667 16 -46 36.667 -46 62c0 21.333 7.33301 39 22 53s32.667 21 54 21
c28 0 63.333 -16.667 106 -50l94 -79c-1.33301 24 -7.33301 74.333 -18 151l-6 50c0 22.667 7 42.334 21 59.001s32.333 25 55 25c47.333 0 71 -24 71 -72c0 -24 -3 -59.5 -9 -106.5s-9 -82.5 -9 -106.5c46.667 46 90 82.333 130 109c20 13.333 43 20 69 20
c46 0 69 -24.667 69 -74c0 -25.333 -13.667 -43.666 -41 -54.999l-188 -80l196 -80c24.667 -10 37 -29.667 37 -59z" />
    <glyph glyph-name="plus" unicode="+" horiz-adv-x="1229" 
d="M1137 520c0 -56 -28 -84 -84 -84h-352v-356c0 -53.333 -28 -80 -84 -80s-84 28 -84 84v352h-361c-53.333 0 -80 28 -80 84s26.667 84 80 84h361v353c0 53.333 28 80 84 80s84 -26.667 84 -80v-353h356c53.333 0 80 -28 80 -84z" />
    <glyph glyph-name="comma" unicode="," horiz-adv-x="492" 
d="M357 117c0 -24.667 -4.33301 -45 -13 -61l-131 -257c-20 -39.333 -50.667 -59 -92 -59c-53.333 0 -80 26.667 -80 80c0 15.333 6.33301 35 19 59l133 261c19.333 38 47.333 57 84 57c53.333 0 80 -26.667 80 -80z" />
    <glyph glyph-name="hyphen" unicode="-" horiz-adv-x="721" 
d="M647 549c0 -52 -28 -78 -84 -78h-407c-58.667 0 -88 24.667 -88 74c0 56 28 84 84 84h411c56 0 84 -26.667 84 -80z" />
    <glyph glyph-name="hyphen" unicode="&#x2010;" horiz-adv-x="721" 
d="M647 549c0 -52 -28 -78 -84 -78h-407c-58.667 0 -88 24.667 -88 74c0 56 28 84 84 84h411c56 0 84 -26.667 84 -80z" />
    <glyph glyph-name="period" unicode="." horiz-adv-x="492" 
d="M361 92c0 -28 -10.501 -52.5 -31.501 -73.5s-45.5 -31.5 -73.5 -31.5s-52.333 10.5 -73 31.5s-31 45.5 -31 73.5c0 28.667 10.167 53.334 30.5 74.001s44.833 31 73.5 31s53.334 -10.333 74.001 -31s31 -45.334 31 -74.001z" />
    <glyph glyph-name="slash" unicode="/" horiz-adv-x="832" 
d="M793 1397c0 -15.333 -2.66699 -29 -8 -41l-580 -1305c-18.667 -42.667 -48 -64 -88 -64c-53.333 0 -80 25.667 -80 77c0 4 3.33301 20.333 10 49l582 1298c18 41.333 46 62 84 62c53.333 0 80 -25.333 80 -76z" />
    <glyph glyph-name="zero" unicode="0" 
d="M1032 752c0 -231.333 -44 -416.001 -132 -554.001c-89.333 -140.667 -205 -211 -347 -211c-174.667 0 -304.334 89.667 -389.001 269c-64 136.667 -96 303.334 -96 500.001c0 256 68 454.333 204 595c78.667 81.333 175.667 122 291 122
c72.667 0 140.334 -21.333 203.001 -64c90.667 -62.667 159.667 -161 207 -295c39.333 -112 59 -232.667 59 -362zM840 712.999c0 271.333 -47 451.334 -141 540.001c-45.333 42.667 -95 64 -149 64c-64 0 -119 -29.333 -165 -88c-83.333 -104.667 -125 -265 -125 -481
c0 -142.667 16.667 -266 50 -370c50 -156 131 -234 243 -234c106 0 184 72.333 234 217c35.333 101.333 53 218.666 53 351.999z" />
    <glyph glyph-name="one" unicode="1" horiz-adv-x="721" 
d="M516 84c0 -64.667 -30.667 -97 -92 -97c-26.667 0 -48 9.5 -64 28.5s-24 41.833 -24 68.5v1221h-184c-56 0 -84 25.333 -84 76c0 52.667 29.333 79 88 79h309c34 0 51 -17 51 -51v-1325z" />
    <glyph glyph-name="two" unicode="2" 
d="M1004 76c0 -50.667 -26.666 -76.0039 -79.999 -76.0039h-719c-58.667 0 -88 21.333 -88 64c0 22.667 7.66699 44.334 23 65.001l552 744c50.667 68 76 139.667 76 215c0 64.667 -22.333 118.334 -67 161.001s-99.334 64 -164.001 64c-77.333 0 -141 -30.667 -191 -92
c-46 -57.333 -69 -125.666 -69 -204.999c0 -74 -29.333 -113 -88 -117c-2.66699 2 -5.66699 3.33301 -9 4c-50 7.33301 -75 45 -75 113c0 78 18.333 153.333 55 226c78 154 215.333 231 412 231c69.333 0 135.333 -17 198 -51c130 -71.333 195 -181.333 195 -330
c0 -101.333 -36.333 -199.666 -109 -294.999l-483 -641h555c50.667 0 76 -26.667 76 -80z" />
    <glyph glyph-name="three" unicode="3" 
d="M973 428c0 -141.333 -45.333 -251.335 -136 -330.002c-86 -74 -201 -111 -345 -111c-132.667 0 -240.667 48 -324 144c-42.667 48.667 -69.334 97.334 -80.001 146.001c-5.33301 23.333 -8 40.333 -8 51c0 64 29.333 96 88 96c40.667 0 70 -26.667 88 -80
c34 -98.667 94.667 -162 182 -190c30 -9.33301 52 -14 66 -14c71.333 0 135.333 24.333 192 73c59.333 51.333 89 112.333 89 183c0 194.667 -82.667 292 -248 292c-80.667 0 -121 24 -121 72c0 33.333 26 58.333 78 75c74.667 24 123 44.667 145 62
c52 41.333 78 108.333 78 201c0 62 -18.833 114 -56.5 156s-87.167 63 -148.5 63c-126 0 -195.667 -71 -209 -213c-6 -61.333 -34 -92 -84 -92c-56 0 -84 43 -84 129c0 12.667 4.33301 35 13 67c28.667 102 92.334 176.333 191.001 223c58.667 28 123 42 193 42
c106 0 193.333 -37 262 -111s103 -164 103 -270c0 -131.333 -56.667 -233.666 -170 -306.999c164 -51.333 246 -170.333 246 -357z" />
    <glyph glyph-name="four" unicode="4" 
d="M1037 449c0 -39.333 -21.334 -63.001 -64.001 -71.001c-5.33301 -0.666992 -41.333 -1 -108 -1v-293c0 -28 -8.66699 -51.167 -26 -69.5s-39.666 -27.5 -66.999 -27.5c-58.667 0 -88 31 -88 93v297h-579c-58.667 0 -88 17 -88 51c0 23.333 14.333 58.333 43 105l528 856
c20 32 39.167 54 57.5 66s45.5 18 81.5 18c92 0 138 -48.667 138 -146v-794c62.667 0 99.667 -1.66699 111 -5c40.667 -9.33301 61 -35.666 61 -78.999zM683.999 532.999v747h-4l-428 -747h432z" />
    <glyph glyph-name="five" unicode="5" 
d="M975 496c0 -146 -41.6641 -266.333 -124.997 -361c-87.333 -98.667 -202.666 -148 -345.999 -148c-134 0 -245 35.333 -333 106c-55.333 44 -83 89 -83 135c0 50 21.333 75 64 75c25.333 0 50.666 -11.333 75.999 -34c83.333 -78 172.666 -117 267.999 -117
c87.333 0 157.333 30.667 210 92c50 58 75 131.667 75 221c0 92 -19.333 165.333 -58 220c-44 64 -110 96 -198 96c-28.667 0 -73 -9.33301 -133 -28s-98.333 -28 -115 -28c-37.333 0 -58 21.333 -62 64l4 26l84 566c5.33301 34 9.66602 54 12.999 60
c7.33301 12.667 25 19 53 19h516c50.667 0 76 -26.333 76 -79c0 -50.667 -26.667 -76 -80 -76h-412l-61 -397c59.333 26.667 120.666 40 183.999 40c120 0 215.333 -46.667 286 -140c64.667 -84.667 97 -188.667 97 -312z" />
    <glyph glyph-name="six" unicode="6" 
d="M991 453c0 -130.667 -42.332 -240.333 -126.999 -329c-86 -91.333 -193.667 -137 -323 -137c-137.333 0 -246.333 54 -327 162c-72.667 97.333 -109 217 -109 359c0 212.667 68 409.667 204 591c113.333 152 221.333 267 324 345c24.667 19.333 46 29 64 29
c47.333 0 71 -29.333 71 -88c0 -31.333 -30.333 -72 -91 -122c-90 -74.667 -186.667 -200.667 -290 -378h4c75.333 39.333 150.666 59 225.999 59c120.667 0 215.667 -53.667 285 -161c59.333 -92 89 -202 89 -330zM799.001 475.001c0 92 -19.333 165.333 -58 220
c-44.667 62.667 -110.667 94 -198 94c-73.333 0 -132.666 -25 -177.999 -75c-42 -46 -66 -106.333 -72 -181c-0.666992 -6 -2.33398 -18.333 -5.00098 -37c-2 -15.333 -3 -27 -3 -35c0 -82.667 21.333 -152.667 64 -210c48 -63.333 112 -95 192 -95
c88 0 154.333 32.333 199 97c39.333 56 59 130 59 222z" />
    <glyph glyph-name="seven" unicode="7" horiz-adv-x="983" 
d="M899 766c0 -52 -28 -78.001 -84 -78.001h-155l-273 -620c-23.333 -54 -60 -81 -110 -81c-48 0 -72 24.333 -72 73c0 20.667 6 44.334 18 71.001l248 557h-250c-58.667 0 -88 24.667 -88 74c0 56 28 84 84 84h325l210 471h-612c-62 0 -93 25.333 -93 76
c0 53.333 29.333 80 88 80h746c61.333 0 92 -16.333 92 -49c0 -17.333 -6.66699 -41.333 -20 -72l-223 -506h85c56 0 84 -26.667 84 -80z" />
    <glyph glyph-name="eight" unicode="8" 
d="M996 445c0 -130.667 -41.332 -239.664 -123.999 -326.997s-189 -131 -319 -131c-183.333 0 -315.333 80 -396 240c-37.333 74 -56 148 -56 222c0 88.667 23 165.667 69 231c48 68 114.333 113 199 135c-58 31.333 -104.667 75.166 -140 131.499s-53 117.166 -53 182.499
c0 56.667 15 112.667 45 168c63.333 117.333 171.666 176 324.999 176c108 0 196.333 -30 265 -90c72.667 -63.333 109 -148 109 -254c0 -148 -63 -254 -189 -318c86 -20 152.333 -64.333 199 -133c44 -64.667 66 -142.334 66 -233.001zM756.001 1108
c0 60.667 -18.332 110.666 -54.999 149.999s-85.334 59 -146.001 59c-65.333 0 -116.833 -19.167 -154.5 -57.5s-56.5 -90.166 -56.5 -155.499c0 -143.333 69.667 -215 209 -215c64 0 114.333 20.667 151 62c34.667 40 52 92.333 52 157zM805.002 441.002
c0 82 -22.334 150 -67.001 204c-48 57.333 -112.333 86 -193 86c-76.667 0 -139 -30.667 -187 -92c-43.333 -56 -65 -123.667 -65 -203c0 -76.667 22.333 -143.334 67 -200.001c48.667 -61.333 110.334 -92 185.001 -92c82 0 146.667 29.333 194 88
c44 54.667 66 124.334 66 209.001z" />
    <glyph glyph-name="nine" unicode="9" 
d="M987 948c0 -225.333 -85.999 -446.332 -257.999 -662.999c-100 -125.333 -188 -214.666 -264 -267.999c-23.333 -16.667 -46.333 -25 -69 -25c-42.667 0 -66.667 26.667 -72 80l4 25c8 15.333 31 40.333 69 75c49.333 45.333 76.666 70.666 81.999 75.999
c68 73.333 144.667 182.666 230 327.999h-4c-69.333 -40 -143 -60 -221 -60c-126.667 0 -224 52.333 -292 157c-58 90 -87 201.667 -87 335c0 185.333 76 321 228 407c68.667 38.667 142.667 58 222 58c137.333 0 246 -54.667 326 -164c70.667 -98 106 -218.333 106 -361z
M809.001 987.001c0 88.667 -19.667 161.668 -59 219.001c-45.333 66 -110.333 99 -195 99c-88 0 -154.333 -32.667 -199 -98c-39.333 -56.667 -59 -130.667 -59 -222s19.667 -164.333 59 -219c44.667 -63.333 110.667 -95 198 -95c62 0 117.333 21.333 166 64
c57.333 49.333 87 113.666 89 192.999v59z" />
    <glyph glyph-name="colon" unicode=":" horiz-adv-x="492" 
d="M361 781c0 -30 -10.167 -55.001 -30.5 -75.001s-45.166 -30 -74.499 -30c-28 0 -52.333 10.333 -73 31s-31 45.334 -31 74.001c0 28 10.333 52.333 31 73s45 31 73 31c29.333 0 54.166 -10 74.499 -30s30.5 -44.667 30.5 -74zM361 91.999
c0 -30 -9.99902 -55.0029 -29.999 -75.0029s-45 -30 -75 -30c-28.667 0 -53.167 10.333 -73.5 31s-30.5 45.334 -30.5 74.001s10.167 53.334 30.5 74.001s44.833 31 73.5 31c29.333 0 54.166 -10.167 74.499 -30.5s30.5 -45.166 30.5 -74.499z" />
    <glyph glyph-name="semicolon" unicode=";" horiz-adv-x="492" 
d="M361 781c0 -30 -10.167 -55.001 -30.5 -75.001s-45.166 -30 -74.499 -30c-28 0 -52.333 10.333 -73 31s-31 45.334 -31 74.001c0 28 10.333 52.333 31 73s45 31 73 31c29.333 0 54.166 -10 74.499 -30s30.5 -44.667 30.5 -74zM361 120.999
c0 -18.667 -5.66797 -39.001 -17.001 -61.001l-129 -261c-18.667 -36.667 -48.667 -55 -90 -55c-21.333 0 -40.666 8 -57.999 24s-26 34.667 -26 56c0 12.667 5 28.334 15 47.001l141 273c18 35.333 46 53 84 53c53.333 0 80 -25.333 80 -76z" />
    <glyph glyph-name="less" unicode="&#x3c;" horiz-adv-x="1229" 
d="M1141 981c0 -34.667 -22 -62.667 -66 -84l-768 -377l781 -389c32.667 -16 49 -41 49 -75c0 -46 -23.333 -69 -70 -69c-14.667 0 -33 5.66699 -55 17l-864 428c-37.333 18 -56 44.667 -56 80c0 42 22.667 74.333 68 97l848 423c22 11.333 43 17 63 17
c46.667 0 70 -22.667 70 -68z" />
    <glyph glyph-name="equal" unicode="=" horiz-adv-x="1229" 
d="M1133 731c0 -56 -26.667 -84 -80 -84h-873c-58.667 0 -88 26.667 -88 80c0 58.667 29.333 88 88 88h877c50.667 0 76 -28 76 -84zM1133 303c0 -56 -26.667 -84 -80 -84h-873c-58.667 0 -88 26.667 -88 80c0 58.667 29.333 88 88 88h877c50.667 0 76 -28 76 -84z" />
    <glyph glyph-name="greater" unicode="&#x3e;" horiz-adv-x="1229" 
d="M1137 512c0 -34.667 -19 -61.334 -57 -80.001l-861 -428c-22 -11.333 -41.667 -17 -59 -17c-45.333 0 -68 23 -68 69c0 32.667 17.333 57.667 52 75l780 389l-768 377c-48 23.333 -72 52 -72 86c0 18.667 7.66699 34.334 23 47.001s33 19 53 19s41 -5.66699 63 -17
l848 -423c44 -22 66 -54.333 66 -97z" />
    <glyph glyph-name="question" unicode="?" horiz-adv-x="908" 
d="M877 1092c0 -216.667 -116.001 -350 -348.001 -400v-213c0 -61.333 -31 -92 -93 -92c-58.667 0 -88 30.667 -88 92v273c0 44 28.333 74.667 85 92c98.667 30 151.334 46.667 158.001 50c56.667 32.667 85 90.334 85 173.001c0 72.667 -21.833 130.5 -65.5 173.5
s-101.834 64.5 -174.501 64.5c-76.667 0 -133.667 -20.333 -171 -61c-13.333 -14.667 -33.666 -52.667 -60.999 -114c-18.667 -42 -43.667 -63.667 -75 -65c-61.333 20 -92 53 -92 99c0 85.333 47.333 161.666 142 228.999c75.333 53.333 165.333 80 270 80
c64 0 129 -14.667 195 -44c155.333 -68 233 -180.333 233 -337zM544.999 92c0 -27.333 -10.5 -51.667 -31.5 -73s-45.167 -32 -72.5 -32c-29.333 0 -54.833 10.333 -76.5 31s-32.5 45.334 -32.5 74.001c0 29.333 10.667 54.166 32 74.499s47 30.5 77 30.5
c28 0 52.333 -10.5 73 -31.5s31 -45.5 31 -73.5z" />
    <glyph glyph-name="at" unicode="@" horiz-adv-x="1641" 
d="M1567 860c0 -108 -27 -208.67 -81 -302.003c-55.333 -95.333 -130 -167.333 -224 -216c-67.333 -35.333 -134.333 -53 -201 -53c-89.333 0 -137.666 39.667 -144.999 119h-8c-66.667 -79.333 -148 -119 -244 -119c-85.333 0 -157.333 33.667 -216 101
c-55.333 64.667 -83 140.334 -83 227.001c0 20 3.33301 50.667 10 92c28 154 99.333 273 214 357c68.667 50 148.334 75 239.001 75c109.333 0 189 -51.333 239 -154c12 40 30 85 54 135c8 7.33301 22.333 11 43 11c50 0 75 -17.667 75 -53c0 -14 -0.666992 -23 -2 -27
l-145 -498c-5.33301 -26.667 -9.33301 -49 -12 -67c0 -40 20.333 -60 61 -60c8.66699 0 27.334 6.33301 56.001 19c98 42 163.333 129 196 261c10.667 44.667 16 90 16 136c0 198.667 -96 342.334 -288 431.001c-88.667 40.667 -183 61 -283 61
c-108.667 0 -212 -27 -310 -81c-200 -110.667 -300 -290 -300 -538c0 -166 60.667 -306.167 182 -420.5s265.666 -171.5 432.999 -171.5c70.667 0 134.334 7 191.001 21c76 18.667 165 67.667 267 147c46.667 36.667 82.667 55 108 55c34 0 51 -16.333 51 -49
c0 -18.667 -10.667 -42.334 -32 -71.001c-55.333 -73.333 -166.333 -138.666 -333 -195.999c-84.667 -30 -170.334 -45 -257.001 -45c-204.667 0 -382 71 -532 213c-153.333 144.667 -230 318.334 -230 521.001c0 140.667 35.167 269 105.5 385s168.166 206.667 293.499 272
c121.333 63.333 242.333 95 363 95c193.333 0 359.666 -52.667 498.999 -158c153.333 -115.333 230 -267 230 -455zM991 835.997c0 100.667 -45.001 151.001 -135.001 151.001c-71.333 0 -133.666 -22 -186.999 -66c-50.667 -42.667 -86 -99 -106 -169
c-12 -42.667 -18 -82.334 -18 -119.001c0 -88.667 42 -147.667 126 -177c21.333 -7.33301 35.333 -11 42 -11c83.333 0 152.333 45.667 207 137c47.333 79.333 71 164 71 254z" />
    <glyph glyph-name="A" unicode="A" horiz-adv-x="1252" 
d="M1237 56c0 -48.667 -28 -72.999 -84 -72.999c-44.667 0 -75.334 22.667 -92.001 68l-96 265h-676l-96 -265c-16 -42.667 -46.667 -64 -92 -64c-56 0 -84 24.333 -84 73c3.33301 16.667 7.33301 33 12 49l471 1259c26.667 72.667 68.334 109 125.001 109
c58 0 100.333 -35 127 -105l477 -1263c5.33301 -14.667 8 -32.334 8 -53.001zM912 471.001l-283 793h-4l-281 -793h568z" />
    <glyph glyph-name="B" unicode="B" horiz-adv-x="1100" 
d="M1041 420c0 -126 -46 -228.667 -138 -308c-87.333 -74.667 -195 -112 -323 -112h-361c-65.333 -0 -98 32.333 -98 97v1267c0 64 30.667 96 92 96h328c148 0 258.667 -57 332 -171c36.667 -57.333 55 -117.333 55 -180c0 -72.667 -17 -137 -51 -193
c-36 -61.333 -86.667 -102.333 -152 -123v-4c153.333 -30.667 250.333 -107 291 -229c16.667 -49.333 25 -96 25 -140zM748 1075c0 66.667 -20.168 121.667 -60.501 165s-93.166 65 -158.499 65h-230v-461h209c70 0 127.5 21 172.5 63s67.5 98 67.5 168zM859.999 424
c0 86 -29.333 153.667 -88 203c-54.667 46.667 -125.667 70 -213 70h-260v-541h242c137.333 0 231.333 44.333 282 133c24.667 42.667 37 87.667 37 135z" />
    <glyph glyph-name="C" unicode="C" horiz-adv-x="1217" 
d="M1164 193c0 -28.667 -9 -51.332 -27 -67.999c-98 -92 -242 -138 -432 -138c-211.333 0 -375.333 82.333 -492 247c-99.333 139.333 -149 297.666 -149 474.999c0 214.667 53.333 392 160 532c118 154.667 281 232 489 232c105.333 0 202.333 -23.333 291 -70
s133 -98.667 133 -156c0 -50 -25.333 -75 -76 -75c-15.333 0 -40.333 12.333 -75 37c-46.667 34 -83 57.333 -109 70c-51.333 25.333 -105 38 -161 38c-145.333 0 -261 -62.333 -347 -187c-75.333 -110 -113 -241 -113 -393c0 -206 58.333 -368.333 175 -487
c69.333 -71.333 160.666 -107 273.999 -107c61.333 0 116.333 9.66699 165 29c28.667 11.333 84.334 39.333 167.001 84c20 11.333 39.667 17 59 17c45.333 0 68 -26.667 68 -80z" />
    <glyph glyph-name="D" unicode="D" horiz-adv-x="1293" 
d="M1229 735c0 -140 -24.667 -267 -74 -381c-103.333 -236 -285.333 -354 -546 -354h-386c-24.667 0 -46 7 -64 21c-20 15.333 -30 35 -30 59v1284c0 64 31.333 96 94 96h369c198.667 0 356.667 -72.667 474 -218c108.667 -134.667 163 -303.667 163 -507zM1037 748
c0 160 -38 289.999 -114 389.999c-84 111.333 -204 167 -360 167h-256v-1149h281c104.667 0 199 36.667 283 110c110.667 96.667 166 257.334 166 482.001z" />
    <glyph glyph-name="E" unicode="E" horiz-adv-x="908" 
d="M824 80c0 -53.333 -29.667 -80 -89 -80h-526c-58.667 -0 -88 32.333 -88 97v1263c0 66.667 25.333 100 76 100h551c50.667 0 76 -27.667 76 -83c0 -56 -26.667 -84 -80 -84h-445v-482h406c53.333 0 80 -28 80 -84s-28 -84 -84 -84h-402v-475h449
c50.667 0 76 -29.333 76 -88z" />
    <glyph glyph-name="F" unicode="F" horiz-adv-x="832" 
d="M815 1372c0 -52.667 -28 -79 -84 -79h-432v-482h389c53.333 0 80 -28.667 80 -86c0 -54.667 -25.333 -82 -76 -82h-393v-559c0 -64.667 -30 -97 -90 -97c-58.667 0 -88 31 -88 93v1280c0 66.667 25.333 100 76 100h551c44.667 0 67 -29.333 67 -88z" />
    <glyph glyph-name="G" unicode="G" horiz-adv-x="1368" 
d="M1323 668c0 -251.333 -73 -438.999 -219 -562.999c-91.333 -78.667 -224.333 -118 -399 -118c-212.667 0 -376.667 82.667 -492 248c-100 142.667 -150 303 -150 481c0 214 55 390.667 165 530c120 151.333 284 227 492 227c88.667 0 177 -14.333 265 -43
c105.333 -33.333 180 -79 224 -137c13.333 -18.667 20 -38.667 20 -60c0 -22.667 -9 -41.667 -27 -57s-38.333 -23 -61 -23c-22 0 -45.333 9 -70 27c-34 25.333 -88 59.333 -162 102c-56 23.333 -118.667 35 -188 35c-151.333 0 -269.333 -61 -354 -183
c-74 -106.667 -111 -239.334 -111 -398.001c0 -156.667 35 -289.667 105 -399c82 -129.333 197 -194 345 -194c69.333 0 139 17 209 51c153.333 73.333 230 210 230 410v64h-260c-56 0 -84 26.667 -84 80c0 58.667 25.333 88 76 88h327c50 0 83.667 -17 101 -51
c12 -23.333 18 -62.333 18 -117z" />
    <glyph glyph-name="H" unicode="H" horiz-adv-x="1368" 
d="M1247 88c0 -67.333 -30.667 -101.001 -92 -101.001c-27.333 0 -49 10.333 -65 31c-15.333 18.667 -23 42 -23 70v564h-768v-564c0 -67.333 -30 -101 -90 -101c-58.667 0 -88 33.667 -88 101v1280c0 70 29.333 105 88 105c60 0 90 -35 90 -105v-559h768v559
c0 28.667 7.33301 53.334 22 74.001c16 23.333 38 35 66 35c61.333 0 92 -36.333 92 -109v-1280z" />
    <glyph glyph-name="I" unicode="I" horiz-adv-x="416" 
d="M299 88c0 -67.333 -28.667 -101 -86 -101c-61.333 0 -92 32.333 -92 97v1293c0 64 30.667 96 92 96c57.333 0 86 -32 86 -96v-1289z" />
    <glyph glyph-name="J" unicode="J" horiz-adv-x="721" 
d="M641 381c0 -262.667 -113.332 -394 -339.999 -394c-60 0 -123.667 13 -191 39c-84.667 32 -127 72.667 -127 122c0 50 24.333 75 73 75c23.333 0 39.666 -2.66699 48.999 -8l92 -53c26.667 -12 62 -18 106 -18c105.333 0 158 66.667 158 200v1037
c0 61.333 29.333 92 88 92c61.333 0 92 -30.667 92 -92v-1000z" />
    <glyph glyph-name="K" unicode="K" horiz-adv-x="1141" 
d="M1159 60c0 -23.333 -8.83398 -42.001 -26.501 -56.001s-38.167 -21 -61.5 -21c-29.333 0 -59.333 15.333 -90 46l-682 668v-617c0 -62 -30 -93 -90 -93c-58.667 0 -88 31 -88 93v1297c0 64 29.333 96 88 96c60 0 90 -30.667 90 -92v-537l645 592
c26.667 24.667 53.334 37 80.001 37c50.667 0 76 -28 76 -84c0 -29.333 -11.667 -54.666 -35 -75.999l-600 -541l664 -641c20 -19.333 30 -43 30 -71z" />
    <glyph glyph-name="L" unicode="L" horiz-adv-x="756" 
d="M772 88c0 -58.667 -25 -88 -75 -88h-492c-56 -0 -84 36.333 -84 109v1268c0 64 30.667 96 92 96c57.333 0 86 -35 86 -105v-1200h369c69.333 0 104 -26.667 104 -80z" />
    <glyph glyph-name="M" unicode="M" horiz-adv-x="1708" 
d="M1649 105c0.666992 -6.66699 -0.333008 -19 -3 -37c-8 -56.667 -36.333 -85 -85 -85c-54 0 -84.667 27 -92 81l-168 1179l-357 -1187c-14.667 -48.667 -44 -73 -88 -73c-47.333 0 -78 24.333 -92 73l-352 1187l-172 -1187c-8.66699 -59.333 -42 -89 -100 -89
c-56 0 -84 35 -84 105c0 11.333 1.33301 25 4 41l213 1235c14.667 86 59.667 129 135 129c68.667 0 113 -33.333 133 -100l311 -1070h4l312 1078c17.333 61.333 60.333 92 129 92c78.667 0 125 -40.333 139 -121z" />
    <glyph glyph-name="N" unicode="N" horiz-adv-x="1364" 
d="M1247 76c0 -62 -26.332 -93 -78.999 -93c-40.667 0 -74.334 19.333 -101.001 58l-768 1104v-1069c0 -59.333 -30 -89 -90 -89c-58.667 0 -88 31 -88 93v1301c0 64 25.333 96 76 96c39.333 0 73.333 -20.667 102 -62l766 -1099h2v1061c0 64 29.333 96 88 96
c61.333 0 92 -32 92 -96v-1301z" />
    <glyph glyph-name="O" unicode="O" horiz-adv-x="1401" 
d="M1344 719c0 -200.667 -55.667 -370 -167 -508c-120 -149.333 -277.333 -224 -472 -224c-197.333 0 -356 76 -476 228c-110 139.333 -165 310 -165 512c0 204 54.667 376 164 516c119.333 153.333 278.333 230 477 230c200.667 0 360 -77.333 478 -232
c107.333 -140.667 161 -314.667 161 -522zM1153 737c0 160 -33.667 291.999 -101 395.999c-80 122.667 -195.667 184 -347 184c-150.667 0 -266.334 -62.667 -347.001 -188c-68 -106 -102 -238.667 -102 -398c0 -161.333 33.667 -294.666 101 -399.999
c79.333 -124.667 195.333 -187 348 -187c150.667 0 266.334 63.667 347.001 191c67.333 107.333 101 241.333 101 402z" />
    <glyph glyph-name="P" unicode="P" horiz-adv-x="1065" 
d="M1045 1004c0 -127.333 -43.167 -235.667 -129.5 -325s-192.833 -134 -319.5 -134h-297v-469c0 -26 -8.5 -47.333 -25.5 -64s-38.5 -25 -64.5 -25c-58.667 0 -88 31 -88 93v1284c0 64 29.333 96 88 96h363c138 0 250.667 -41.333 338 -124c90 -84 135 -194.667 135 -332z
M865 1008c0 90 -27.833 162 -83.5 216s-128.5 81 -218.5 81h-264v-604h256c90.667 0 165 28.333 223 85s87 130.667 87 222z" />
    <glyph glyph-name="Q" unicode="Q" horiz-adv-x="1401" 
d="M1401 43c0 -45.333 -26.667 -68 -80 -68c-24 0 -44.333 8.33301 -61 25l-148 144c-112 -104.667 -247.667 -157 -407 -157c-197.333 0 -356 76 -476 228c-110 139.333 -165 310 -165 512c0 204 54.667 376 164 516c119.333 153.333 278.333 230 477 230
c200.667 0 360 -77.667 478 -233c107.333 -140 161 -314 161 -522c0 -166.667 -42.333 -316.334 -127 -449.001l168 -168c10.667 -11.333 16 -30.666 16 -57.999zM1153 731c0 162 -33.332 295.332 -99.999 399.999c-79.333 124 -195.333 186 -348 186
c-150.667 0 -266.334 -62.667 -347.001 -188c-68 -106 -102 -238.667 -102 -398c0 -161.333 33.667 -294.666 101 -399.999c79.333 -124.667 195.333 -187 348 -187c116 0 213 38.667 291 116l-131 127c-22 21.333 -33 43.333 -33 66c0 20 7.5 37.667 22.5 53
s32.833 23 53.5 23c30 0 53 -8.33301 69 -25l107 -108c46 103.333 69 215 69 335z" />
    <glyph glyph-name="R" unicode="R" horiz-adv-x="1065" 
d="M1024 56c0 -42.667 -28 -64.001 -84 -64.001c-34 0 -62 12.333 -84 37l-557 612v-565c0 -59.333 -30 -89 -90 -89c-58.667 0 -88 31 -88 93v1284c0 64 29.333 96 88 96h350c121.333 0 224.5 -40 309.5 -120s127.5 -180 127.5 -300c0 -70 -14.667 -135 -44 -195
c-64.667 -132 -208.667 -198 -432 -198l467 -512c24.667 -27.333 37 -53.666 37 -78.999zM815 1049c0 77.333 -26 139.667 -78 187c-49.333 46 -113.333 69 -192 69h-246v-520h254c174.667 0 262 88 262 264z" />
    <glyph glyph-name="S" unicode="S" horiz-adv-x="948" 
d="M944 445c0 -138.667 -48.002 -250.664 -144.002 -335.997c-92 -81.333 -207.667 -122 -347 -122c-82 0 -164 13 -246 39c-110.667 35.333 -166 84 -166 146c0 23.333 7.5 43.166 22.5 59.499s34.167 24.5 57.5 24.5c14 0 31 -5.33301 51 -16c12 -8 30.333 -19.333 55 -34
c78.667 -41.333 161.334 -62 248.001 -62c76.667 0 141.334 28 194.001 84s79 122.667 79 200c0 66.667 -27 123 -81 169c-39.333 33.333 -99 64.333 -179 93l-185 66c-42.667 17.333 -86.334 43.666 -131.001 78.999c-77.333 60.667 -116 145 -116 253
c0 73.333 21 139.666 63 198.999c88.667 124 213 186 373 186c73.333 0 144.333 -12 213 -36c92.667 -32 139 -77.333 139 -136c0 -53.333 -28 -80 -84 -80c-12.667 0 -46 12.667 -100 38c-82.667 38.667 -143 58 -181 58c-65.333 0 -118.666 -19 -159.999 -57
c-50 -46.667 -75 -98.667 -75 -156c0 -84 57.333 -149.333 172 -196l244 -91c91.333 -37.333 158.333 -80 201 -128c55.333 -62 83 -143.333 83 -244z" />
    <glyph glyph-name="T" unicode="T" horiz-adv-x="873" 
d="M908 1377c0 -56 -26.667 -83.999 -80 -83.999h-283v-1213c0 -26.667 -8.66699 -48.834 -26 -66.501s-39.333 -26.5 -66 -26.5c-58.667 0 -88 31 -88 93v1213h-281c-56 0 -84 28 -84 84c-0 55.333 29.333 83 88 83h731c59.333 0 89 -27.667 89 -83z" />
    <glyph glyph-name="U" unicode="U" horiz-adv-x="1364" 
d="M1247 563c0 -183.333 -46.333 -324.332 -139 -422.999c-95.333 -102 -234 -153 -416 -153c-183.333 0 -324.333 49.333 -423 148s-148 240 -148 424v822c0 61.333 29.333 92 88 92c60 0 90 -30.667 90 -92v-877c0 -114 37 -203.333 111 -268c70 -62 163 -93 279 -93
c112.667 0 203.667 32 273 96c72.667 65.333 109 153.666 109 264.999v877c0 61.333 28 92 84 92c61.333 0 92 -30.667 92 -92v-818z" />
    <glyph glyph-name="V" unicode="V" horiz-adv-x="1141" 
d="M1133 1389c0 -18 -2.66797 -34.334 -8.00098 -49.001l-453 -1264c-21.333 -59.333 -54.666 -89 -99.999 -89c-48 0 -81.667 27 -101 81l-454 1268c-11.333 30.667 -17 52.334 -17 65.001c-0 24.667 7.33301 46.167 22 64.5s34 27.5 58 27.5
c48.667 0 83.667 -30.667 105 -92l383 -1108h4l385 1112c16 48 48 72 96 72c53.333 0 80 -29.333 80 -88z" />
    <glyph glyph-name="W" unicode="W" horiz-adv-x="1671" 
d="M1649 1344l-213.002 -1235c-15.333 -86.667 -61.666 -130 -138.999 -130c-67.333 0 -110.333 32.333 -129 97l-312 1073h-4l-311 -1077c-18 -62 -62.333 -93 -133 -93c-76.667 0 -121.667 40.667 -135 122l-213 1251c-1.33301 4 -1 14.667 1 32
c6.66699 59.333 34.334 89 83.001 89c56 0 88 -26.667 96 -80l168 -1180l356 1188c14 48 42 72 84 72c50 0 82 -24 96 -72l353 -1188l172 1188c8 58.667 40 88 96 88s84 -36 84 -108v-37z" />
    <glyph glyph-name="X" unicode="X" horiz-adv-x="1217" 
d="M1200 60c0 -22 -8.50195 -39.667 -25.502 -53s-36.5 -20 -58.5 -20c-31.333 0 -57.666 15.333 -78.999 46l-428 608l-429 -608c-21.333 -30.667 -49 -46 -83 -46c-19.333 0 -37.5 8 -54.5 24s-25.5 33.667 -25.5 53c0 17.333 8 37.666 24 60.999l463 660l-383 538
c-22 30.667 -33 56.667 -33 78c0 20.667 8.16699 37.834 24.5 51.501s34.833 20.5 55.5 20.5c38.667 0 69.334 -16.333 92.001 -49l349 -508l348 508c22 32.667 51.333 49 88 49c50.667 0 76 -25.333 76 -76c0 -26 -8.33301 -50.667 -25 -74l-383 -538l463 -654
c16 -23.333 24 -47 24 -71z" />
    <glyph glyph-name="Y" unicode="Y" horiz-adv-x="987" 
d="M1020 1397c0 -20.667 -5.33203 -39.668 -15.999 -57.001l-400 -652v-604c0 -28 -8.33301 -51.833 -25 -71.5s-39 -29.5 -67 -29.5c-26.667 0 -48.334 10.667 -65.001 32c-15.333 18.667 -23 41.667 -23 69v604l-399 648c-16.667 26 -25 47.667 -25 65
c0 20.667 8.16699 37.834 24.5 51.501s34.833 20.5 55.5 20.5c38.667 0 68 -16.333 88 -49l344 -559l344 555c22 35.333 50 53 84 53c53.333 0 80 -25.333 80 -76z" />
    <glyph glyph-name="Z" unicode="Z" horiz-adv-x="1141" 
d="M1092 80c0 -53.333 -29.333 -79.999 -88 -79.999h-856c-70 0 -105 26.667 -105 80c0 21.333 9.66699 46.666 29 75.999l760 1149h-664c-58.667 0 -88 25.333 -88 76c0 52.667 30.667 79 92 79h801c61.333 0 92 -23.667 92 -71c0 -23.333 -11 -51.333 -33 -84l-763 -1149
h739c56 0 84 -25.333 84 -76z" />
    <glyph glyph-name="bracketleft" unicode="[" horiz-adv-x="457" 
d="M471 -92c0 -50.667 -28.668 -76 -86.001 -76h-133c-64 0 -96 32 -96 96v1444c0 67.333 32 101 96 101h139c53.333 0 80 -26.667 80 -80c0 -20.667 -7.16699 -38.167 -21.5 -52.5s-34.166 -22.5 -59.499 -24.5c10 0.666992 -12 1 -66 1v-1330
c55.333 0 88.333 -1.33301 99 -4c32 -9.33301 48 -34.333 48 -75z" />
    <glyph glyph-name="backslash" unicode="\" horiz-adv-x="832" 
d="M797 51c0 -48 -25.333 -72 -76 -72c-38.667 0 -66.667 19.333 -84 58l-581 1299c-12.667 27.333 -19 49 -19 65c0 50.667 25.333 76 76 76c42.667 0 72 -17.667 88 -53l584 -1311c8 -18 12 -38.667 12 -62z" />
    <glyph glyph-name="bracketright" unicode="]" horiz-adv-x="457" 
d="M336 -68c0 -66.667 -30.666 -100 -91.999 -100h-143c-53.333 0 -80 26.667 -80 80c0 20.667 7.16699 38.167 21.5 52.5s34.166 22.5 59.499 24.5c-10 -1.33301 12 -2 66 -2v1330h-67c-56 0 -84 26.667 -84 80c0 50.667 30.667 76 92 76h131c64 0 96 -32 96 -96v-1445z
" />
    <glyph glyph-name="asciicircum" unicode="^" horiz-adv-x="1229" 
d="M1116 660c0 -48 -24.998 -71.999 -74.998 -71.999c-30.667 0 -57.334 21.333 -80.001 64l-344 641l-357 -652c-19.333 -35.333 -44.333 -53 -75 -53c-44 0 -68 24 -72 72c2.66699 11.333 8 27.666 16 48.999l391 700c25.333 45.333 56.333 68 93 68
c39.333 0 72.666 -24 99.999 -72l391 -696c8 -14.667 12 -31 12 -49z" />
    <glyph glyph-name="underscore" unicode="_" horiz-adv-x="1024" 
d="M1088 -205c0 -34 -21.333 -51 -64 -51h-1024c-42.667 0 -64 19.667 -64 59c0 30 20 45 60 45h1028c42.667 0 64 -17.667 64 -53z" />
    <glyph glyph-name="grave" unicode="`" horiz-adv-x="416" 
d="M860 1649c0 -50.667 -29.332 -76 -87.999 -76c-4.66699 0 -20.334 3.33301 -47.001 10l-260 105c-43.333 17.333 -65 42.666 -65 75.999c0 22.667 8.66699 42.334 26 59.001s38 25 62 25c14 0 24.667 -1.66699 32 -5l273 -114c44.667 -19.333 67 -46 67 -80z" />
    <glyph glyph-name="a" unicode="a" horiz-adv-x="1141" 
d="M1020 80c0 -62 -27.999 -93 -83.999 -93c-44 0 -70.667 18.333 -80 55c-2.66699 10 -4 46.667 -4 110h-4c-79.333 -110 -176.666 -165 -291.999 -165c-86.667 0 -167.667 23 -243 69c-160.667 97.333 -241 259 -241 485c0 238.667 83.333 405.667 250 501
c72 41.333 145 62 219 62c119.333 0 221.666 -49 306.999 -147h4c0 48 2.66699 80.333 8 97c11.333 33.333 36.666 50 75.999 50c56 0 84 -30.667 84 -92v-932zM848.001 545c0 110 -21.667 200.999 -65 272.999c-52.667 86.667 -130.667 130 -234 130
c-102 0 -179.333 -45 -232 -135c-43.333 -73.333 -65 -164.666 -65 -273.999c0 -104 22 -192.333 66 -265c52 -86.667 126.333 -130 223 -130c108 0 188.333 41.667 241 125c44 69.333 66 161.333 66 276z" />
    <glyph glyph-name="b" unicode="b" horiz-adv-x="1141" 
d="M1067 541c0 -152.667 -40 -280.667 -120 -384c-88 -113.333 -206 -170 -354 -170c-137.333 0 -231 49.333 -281 148h-5c0 -54 -2.66699 -88 -8 -102c-11.333 -30.667 -39.333 -46 -84 -46c-25.333 0 -46 9 -62 27s-24 40 -24 66v1409c0 62.667 28.667 94 86 94
c61.333 0 92 -30 92 -90v-536h5c76 98 173.333 147 292 147c146.667 0 262.667 -59 348 -177c76.667 -105.333 115 -234 115 -386zM591 948c-52 0 -101.998 -15.333 -149.998 -46c-102 -66.667 -154 -183 -156 -349c2.66699 -2 4 -4.66699 4 -8
c9.33301 -162.667 53.666 -277 132.999 -343c46.667 -39.333 105 -59 175 -59c97.333 0 172.666 44 225.999 132c44 73.333 66 162 66 266c0 106.667 -22.667 197.667 -68 273c-54 89.333 -130.667 134 -230 134z" />
    <glyph glyph-name="c" unicode="c" horiz-adv-x="908" 
d="M856 965c0 -46.667 -26.668 -72 -80.001 -76c-110 36.667 -181 55 -213 55c-98.667 0 -177 -42.667 -235 -128c-50.667 -74.667 -76 -163.667 -76 -267c0 -102.667 21 -190.667 63 -264c50.667 -86.667 123.334 -133.667 218.001 -141c6.66699 -0.666992 16.667 -2 30 -4
c33.333 2 63.666 8 90.999 18l64 28c29.333 12.667 50.333 19 63 19c44.667 0 67 -25.333 67 -76c0 -94.667 -95 -142 -285 -142c-198.667 0 -341.667 88.667 -429 266c-42 83.333 -63 175 -63 275c0 164 40.667 298.333 122 403c88.667 115.333 212.334 173 371.001 173
c62 0 121 -9.33301 177 -28c76.667 -26 115 -63 115 -111z" />
    <glyph glyph-name="d" unicode="d" horiz-adv-x="1141" 
d="M1012 80c0 -62 -30.665 -93.001 -91.998 -93.001c-24.667 0 -45.5 8.66699 -62.5 26s-25.5 58 -25.5 122h-4c-48.667 -98.667 -142 -148 -280 -148c-148.667 0 -267.334 57.667 -356.001 173c-80.667 104.667 -121 233.667 -121 387
c0 146.667 39.667 273.334 119 380.001c87.333 118 201.666 177 342.999 177c122 0 220.333 -49 295 -147h4v536c0 60 29.333 90 88 90c61.333 0 92 -31.333 92 -94v-1409zM852.002 552.999c0 104 -23.334 192.668 -70.001 266.001c-54 86 -130.333 129 -229 129
c-100.667 0 -178 -44.333 -232 -133c-46 -74.667 -69 -165.667 -69 -273c0 -106 22 -195.333 66 -268c52.667 -87.333 128.334 -131 227.001 -131c104 0 183.333 44.333 238 133c46 73.333 69 165.666 69 276.999z" />
    <glyph glyph-name="e" unicode="e" horiz-adv-x="1065" 
d="M1012 563c0 -58.667 -33.3311 -87.998 -99.998 -87.998h-680c1.33301 -102 31.5 -182.667 90.5 -242s139.167 -89 240.5 -89c98 0 195.667 37.333 293 112c28.667 22 51.334 33 68.001 33c42 0 63 -25.333 63 -76c0 -61.333 -65.333 -120.333 -196 -177
c-74 -32.667 -153.333 -49 -238 -49c-158 0 -282.667 54.333 -374 163c-85.333 101.333 -129.333 233 -132 395c2.66699 4.66699 4 8 4 10c1.33301 21.333 4.66602 53.666 9.99902 96.999c25.333 160.667 98.666 284.667 219.999 372c73.333 53.333 157.333 80 252 80
c141.333 0 257.666 -55.667 348.999 -167c86.667 -104.667 130 -229.334 130 -374.001zM832.002 613.002c-2 96.667 -27.001 175 -75.001 235c-53.333 66.667 -127 100 -221 100c-95.333 0 -170.333 -33 -225 -99c-49.333 -60 -75.666 -138.667 -78.999 -236h600z" />
    <glyph glyph-name="f" unicode="f" horiz-adv-x="492" 
d="M572 1499c0 -47.333 -31 -71.001 -93 -71.001c-47.333 0 -76.333 -2.33301 -87 -7c-23.333 -9.33301 -35 -33.666 -35 -72.999v-256h114c58.667 0 88 -24 88 -72c0 -56 -29.333 -84 -88 -84h-114v-856c0 -62 -31 -93 -93 -93c-58.667 0 -88 31 -88 93v856
c-61.333 0 -97 1 -107 3c-38 9.33301 -57 34.333 -57 75s19.333 65.334 58 74.001c10 2.66699 45.333 4 106 4v260c0 67.333 22.667 121.666 68 162.999c50.667 45.333 112 68 184 68c96 0 144 -28 144 -84z" />
    <glyph glyph-name="g" unicode="g" horiz-adv-x="1141" 
d="M1012 76c0 -153.333 -41.6699 -277.333 -125.003 -372c-87.333 -99.333 -206.666 -149 -357.999 -149c-124 0 -237.333 32.333 -340 97c-58.667 36.667 -88 74 -88 112c0 16 7.83301 32.667 23.5 50s31.5 26 47.5 26c22 0 71.167 -21.5 147.5 -64.5
s148.833 -64.5 217.5 -64.5c100.667 0 177.334 41.667 230.001 125c44.667 70.667 67 159.667 67 267c0 4 -0.333008 10.667 -1 20s-1 16.333 -1 21h-4c-58 -104.667 -155 -157 -291 -157c-143.333 0 -259 60.333 -347 181c-78.667 108.667 -118 237 -118 385
c0 150.667 40.667 278 122 382c88.667 112.667 206.334 169 353.001 169c138 0 231.667 -50.333 281 -151h4c0 53.333 2.33301 87 7 101c10.667 30.667 37.667 46 81 46c61.333 0 92 -30.667 92 -92v-932zM851.997 533c0 109.333 -23.666 202.334 -70.999 279.001
c-56 90.667 -135.333 136 -238 136c-96 0 -170.667 -44 -224 -132c-44.667 -74 -67 -162 -67 -264c0 -106.667 21.667 -197.334 65 -272.001c53.333 -91.333 129.666 -137 228.999 -137c100.667 0 178.667 41.333 234 124c48 72 72 160.667 72 266z" />
    <glyph glyph-name="h" unicode="h" 
d="M983 80c0 -62 -30.0029 -93.001 -90.0029 -93.001c-58.667 0 -88 31 -88 93v596c0 78.667 -22.333 143.334 -67 194.001c-46.667 52 -109 78 -187 78c-77.333 0 -138.666 -25.333 -183.999 -76s-68 -114.667 -68 -192v-600c0 -62 -30 -93 -90 -93
c-58.667 0 -88 31 -88 93v1409c0 62.667 29.333 94 88 94c59.333 0 89.333 -31.333 90 -94l4 -528c70.667 95.333 168.334 143 293.001 143c112.667 0 205.334 -39 278.001 -117s109 -173.333 109 -286v-621z" />
    <glyph glyph-name="i" unicode="i" horiz-adv-x="416" 
d="M320 1360c0 -30 -11.001 -56.333 -33.001 -79s-48 -34 -78 -34c-30.667 0 -57 11.167 -79 33.5s-33 48.833 -33 79.5s11 57.167 33 79.5s48.333 33.5 79 33.5s56.834 -11.167 78.501 -33.5s32.5 -48.833 32.5 -79.5zM298.999 80c0 -62 -30 -93 -90 -93
c-58.667 0 -88 31 -88 93v928c0 64 29.333 96 88 96c60 0 90 -30.667 90 -92v-932z" />
    <glyph glyph-name="j" unicode="j" horiz-adv-x="416" 
d="M320 1360c0 -30 -11.001 -56.333 -33.001 -79s-48 -34 -78 -34c-30.667 0 -57 11.167 -79 33.5s-33 48.833 -33 79.5s11 57.167 33 79.5s48.333 33.5 79 33.5s56.834 -11.167 78.501 -33.5s32.5 -48.833 32.5 -79.5zM298.999 -348c0 -64.667 -30 -97 -90 -97
c-58.667 0 -88 32.333 -88 97v1356c0 64 29.333 96 88 96c60 0 90 -30.667 90 -92v-1360z" />
    <glyph glyph-name="k" unicode="k" horiz-adv-x="908" 
d="M932 60c0 -48.667 -25.333 -73.001 -76 -73.001c-32 0 -62.667 15.333 -92 46l-465 483v-436c0 -62 -30 -93 -90 -93c-58.667 0 -88 31 -88 93v1413c0 57.333 29.333 86 88 86c60 0 90 -30 90 -90v-772l422 354c23.333 19.333 47.333 29 72 29c50.667 0 76 -28 76 -84
c0 -24.667 -11 -45.667 -33 -63l-420 -332l481 -473c23.333 -23.333 35 -52.666 35 -87.999z" />
    <glyph glyph-name="l" unicode="l" horiz-adv-x="416" 
d="M299 84c0 -64.667 -30 -97 -90 -97c-58.667 0 -88 32.333 -88 97v1401c0 62.667 29.333 94 88 94c60 0 90 -30 90 -90v-1405z" />
    <glyph glyph-name="m" unicode="m" horiz-adv-x="1704" 
d="M1592 76c0 -59.333 -31 -89.001 -93 -89.001c-24.667 0 -45.5 8.66699 -62.5 26s-25.5 38.333 -25.5 63v621c0 74 -19 133.667 -57 179c-40.667 48 -97.334 72 -170.001 72c-160 0 -240 -83.667 -240 -251v-621c0 -56 -30.667 -84 -92 -84
c-24.667 0 -45.5 7.83301 -62.5 23.5s-25.5 35.834 -25.5 60.501v612c0 78 -18.667 140 -56 186c-40.667 49.333 -99 74 -175 74c-73.333 0 -130.666 -21.667 -171.999 -65s-62 -101.333 -62 -174v-633c0 -59.333 -30 -89 -90 -89c-25.333 0 -46.333 8.5 -63 25.5
s-25 38.167 -25 63.5v940c0 56 30.667 84 92 84c38 0 63 -12.667 75 -38c7.33301 -16 11 -45.667 11 -89h4c68.667 87.333 160 131 274 131c127.333 0 227.333 -61.333 300 -184c88 122.667 202.667 184 344 184c64.667 0 126.667 -16.667 186 -50
c123.333 -70 185 -185 185 -345v-633z" />
    <glyph glyph-name="n" unicode="n" 
d="M983 80c0 -58.667 -30.002 -88.001 -90.002 -88.001c-58.667 0 -88 29.333 -88 88v604c0 76 -23.167 138.333 -69.5 187s-107.166 73 -182.499 73c-76.667 0 -138.167 -24.667 -184.5 -74s-69.5 -112.666 -69.5 -189.999v-600c0 -64.667 -28.667 -97 -86 -97
c-26.667 0 -48.667 9.33301 -66 28s-26 41.667 -26 69v928c0 64 29.333 96 88 96c41.333 0 68 -14.333 80 -43c6.66699 -16 10 -48 10 -96l4 -4c72.667 95.333 171.667 143 297 143c120.667 0 215.334 -39.667 284.001 -119c66 -76 99 -175 99 -297v-608z" />
    <glyph glyph-name="o" unicode="o" 
d="M1032 545c0 -218.667 -75 -379.332 -225 -481.999c-73.333 -50.667 -158 -76 -254 -76c-150 0 -269.667 56.667 -359 170c-81.333 104 -122 233.333 -122 388c0 223.333 77.667 385.666 233 486.999c74 48 156.667 72 248 72c146 0 264 -58 354 -174
c83.333 -106.667 125 -235 125 -385zM852 551.002c0 106.667 -22.667 196.333 -68 269c-54 85.333 -131 128 -231 128c-103.333 0 -181.333 -43.333 -234 -130c-44.667 -72 -67 -163 -67 -273c0 -107.333 22 -197.333 66 -270c53.333 -87.333 130.333 -131 231 -131
c104.667 0 183.667 43.333 237 130c44 72 66 164.333 66 277z" />
    <glyph glyph-name="p" unicode="p" horiz-adv-x="1141" 
d="M1067 553c0 -222 -73.667 -385.332 -221 -489.999c-70 -50.667 -150.667 -76 -242 -76c-122 0 -219.333 49.333 -292 148h-5v-483c0 -72.667 -29.333 -109 -88 -109c-26.667 0 -48.667 11 -66 33c-16 20 -24 43.667 -24 71v1361c0 64 28.667 96 86 96
c44 0 71.667 -15.333 83 -46c6 -14.667 9 -48.334 9 -101.001h5c50 98 143 147 279 147c148 0 266 -56 354 -168c81.333 -103.333 122 -231 122 -383zM889 552.001c0 104 -22.332 192.332 -66.999 264.999c-52.667 87.333 -127.667 131 -225 131
c-104.667 0 -184.334 -43.333 -239.001 -130c-46 -72.667 -69 -164.667 -69 -276c0 -104.667 22.667 -194 68 -268c53.333 -87.333 129 -132 227 -134c4 2 9.33301 3.33301 16 4c100.667 8.66699 176 55 226 139c42 70.667 63 160.334 63 269.001z" />
    <glyph glyph-name="q" unicode="q" horiz-adv-x="1141" 
d="M1012 -353c0 -29.333 -8.83203 -54 -26.499 -74s-40.834 -30 -69.501 -30c-56 0 -84 36.333 -84 109v483h-8c-66 -98.667 -163 -148 -291 -148c-144 0 -259.667 58.333 -347 175c-79.333 106 -119 233.333 -119 382c0 154 41.667 283.667 125 389
c90.667 114 211 171 361 171c135.333 0 227 -49 275 -147h4v55c0 26 8.16699 47.833 24.5 65.5s37.5 26.5 63.5 26.5c61.333 0 92 -32 92 -96v-1361zM848.001 537c0 109.333 -23.666 201.666 -70.999 276.999c-56 89.333 -135.333 134 -238 134
c-98 0 -172.667 -45 -224 -135c-42 -73.333 -63 -162.666 -63 -267.999c0 -107.333 22 -197.333 66 -270c53.333 -88 130.666 -132 231.999 -132c52 0 101.667 15.667 149 47c99.333 65.333 149 181 149 347z" />
    <glyph glyph-name="r" unicode="r" horiz-adv-x="643" 
d="M647 1012c0 -40 -26 -69.999 -78 -89.999l-124 -41c-97.333 -53.333 -146 -144 -146 -272v-529c0 -62 -28.667 -93 -86 -93c-61.333 0 -92 32.333 -92 97v924c0 61.333 29.333 92 88 92c48 0 77 -20.667 87 -62c2 -9.33301 3 -50 3 -122h4
c26.667 47.333 60.334 88.666 101.001 123.999c48.667 42.667 95.667 64 141 64c27.333 0 51.166 -8.83301 71.499 -26.5s30.5 -39.5 30.5 -65.5z" />
    <glyph glyph-name="s" unicode="s" horiz-adv-x="908" 
d="M856 307c0 -53.333 -15.668 -104.999 -47.001 -154.999c-68 -110 -186.667 -165 -356 -165c-136 0 -254.667 40.667 -356 122c-33.333 26 -50 55.333 -50 88c0 22 7.5 40.833 22.5 56.5s33.5 23.5 55.5 23.5c19.333 0 63.166 -22.333 131.499 -67
s136.166 -67 203.499 -67c54.667 0 101.334 11.333 140.001 34c48 27.333 72 66 72 116c0 60 -50 112.333 -150 157l-276 122c-99.333 58.667 -149 135 -149 229c0 93.333 38.333 168.666 115 225.999c70 51.333 153.333 77 250 77c69.333 0 143 -15.667 221 -47
c96.667 -39.333 145 -87.666 145 -144.999c0 -20.667 -8.33301 -39.167 -25 -55.5s-35 -24.5 -55 -24.5c-13.333 0 -46.666 15 -99.999 45l-87 49c-32 14.667 -64 22 -96 22c-60.667 0 -107 -13 -139 -39c-35.333 -28.667 -53 -61.334 -53 -98.001c0 -6 2.66699 -16 8 -30
c18.667 -45.333 61.334 -83 128.001 -113l194 -75c80 -30.667 138.667 -64 176 -100c51.333 -48.667 77 -110.667 77 -186z" />
    <glyph glyph-name="t" unicode="t" horiz-adv-x="492" 
d="M520 1012c0 -42 -18.667 -67 -56 -75c-4.66699 -0.666992 -40.334 -1 -107.001 -1v-860c0 -59.333 -32.333 -89 -97 -89c-56 0 -84 31 -84 93v856h-79c-59.333 0 -89 25.333 -89 76c0 53.333 29.667 80 89 80h79v244c0 56 29.333 84 88 84c62 0 93 -29.667 93 -89v-239
c62.667 0 98.334 -1.33301 107.001 -4c37.333 -8.66699 56 -34 56 -76z" />
    <glyph glyph-name="u" unicode="u" 
d="M983 412c0 -134 -39.5 -238.333 -118.5 -313s-185.5 -112 -319.5 -112c-132 0 -235.667 37.667 -311 113s-113 179.333 -113 312v600c0 61.333 29.333 92 88 92c60 0 90 -30.667 90 -92v-596c0 -181.333 83.333 -272 250 -272c170.667 0 256 90.667 256 272v596
c0 61.333 29.333 92 88 92c60 0 90 -30.667 90 -92v-600z" />
    <glyph glyph-name="v" unicode="v" horiz-adv-x="873" 
d="M865 1024c0 -12.667 -3 -27 -9 -43l-323 -917c-18 -51.333 -50.333 -77 -97 -77c-44 0 -74.667 24.333 -92 73l-323 909c-11.333 30.667 -17 51.667 -17 63c0 59.333 28 89 84 89c48 0 80.333 -25.333 97 -76l251 -768l256 768c14 42 42 63 84 63c59.333 0 89 -28 89 -84
z" />
    <glyph glyph-name="w" unicode="w" horiz-adv-x="1516" 
d="M1516 1016c0 -13.333 -2.66699 -27.668 -8 -43.001l-308 -897c-20 -59.333 -53.333 -89 -100 -89c-48 0 -82.667 33.667 -104 101l-232 727h-4l-227 -710c-12.667 -39.333 -24.667 -66.666 -36 -81.999c-18 -24 -43.667 -36 -77 -36c-47.333 0 -83.333 36.667 -108 110
l-304 884l-6 29l-2 10c-0 53.333 29.333 80 88 80c50.667 0 83 -21 97 -63l243 -773l240 764c17.333 56 48 84 92 84c43.333 0 74 -28 92 -84l244 -759h4l236 755c16 53.333 48 80 96 80c56 0 84 -29.333 84 -88z" />
    <glyph glyph-name="x" unicode="x" horiz-adv-x="948" 
d="M944 47c0 -48 -25.001 -72 -75.001 -72c-35.333 0 -67.666 20.667 -96.999 62l-297 412l-299 -416c-22 -30.667 -51.333 -46 -88 -46c-53.333 0 -80 27 -80 81c0 25.333 11.667 53.333 35 84l330 424l-289 377c-22 28.667 -33 53.667 -33 75
c0 22 7.83301 40.167 23.5 54.5s34.5 21.5 56.5 21.5c32.667 0 58.667 -13 78 -39l266 -356l265 352c21.333 28.667 46.333 43 75 43c52 0 78 -28 78 -84c0 -20.667 -8 -41.667 -24 -63l-289 -381l328 -428c24 -32 36 -65.667 36 -101z" />
    <glyph glyph-name="y" unicode="y" horiz-adv-x="873" 
d="M877 1016c0 -13.333 -2.66602 -27.667 -7.99902 -43l-473 -1346c-19.333 -53.333 -52.333 -80 -99 -80c-44.667 0 -69.334 28 -74.001 84c2 14 6.33301 33 13 57l133 353l-326 932c-0.666992 2 -4 17.667 -10 47c0 53.333 28 80 84 80c47.333 0 78 -21 92 -63l248 -748h4
l248 752c13.333 42 41.333 63 84 63c56 0 84 -29.333 84 -88z" />
    <glyph glyph-name="z" unicode="z" horiz-adv-x="908" 
d="M873 76c0 -50.667 -29.333 -75.998 -88 -75.998h-656c-64 0 -96 17 -96 51c0 25.333 15.667 61.666 47 108.999l520 776h-460c-56 0 -84 25.333 -84 76c0 53.333 29.333 80 88 80h616c56 0 84 -21.333 84 -64c0 -26.667 -11.667 -57.334 -35 -92.001l-528 -780h504
c58.667 0 88 -26.667 88 -80z" />
    <glyph glyph-name="braceleft" unicode="{" horiz-adv-x="529" 
d="M525 -109c0 -39.333 -26.667 -59.002 -80 -59.002h-88c-62 0 -111 19.333 -147 58s-54 89 -54 151v316c0 63.333 -5.33301 109 -16 137c-14.667 38.667 -48.667 68 -102 88c-47.333 17.333 -71 40.666 -71 69.999c0 30.667 23.667 54.334 71 71.001
c54 18.667 88.333 48.334 103 89.001c10 26.667 15 72 15 136v316c0 61.333 18 111.5 54 150.5s85 58.5 147 58.5h88c53.333 0 80 -21.333 80 -64c0 -30.667 -17.667 -48.667 -53 -54l-96 -17c-34.667 -14.667 -52 -48.334 -52 -101.001v-301
c0 -177.333 -63 -270.666 -189 -279.999v-9c126 -8 189 -100.667 189 -278v-301c0 -55.333 17.333 -90.333 52 -105l96 -14c35.333 -5.33301 53 -24.666 53 -57.999z" />
    <glyph glyph-name="bar" unicode="|" horiz-adv-x="457" 
d="M312 68c0 -54 -28 -81 -84 -81s-84 28.333 -84 85v1431c0 50.667 28 76 84 76s84 -26.667 84 -80v-1431z" />
    <glyph glyph-name="braceright" unicode="}" horiz-adv-x="529" 
d="M525 647c0 -27.333 -22.3369 -48.668 -67.0039 -64.001c-51.333 -17.333 -83.666 -40.333 -96.999 -69s-20.333 -81 -21 -157l-4 -316c-0.666992 -60.667 -18.667 -110.667 -54 -150s-82.666 -59 -141.999 -59h-93c-53.333 0 -80 19.667 -80 59c0 31.333 17.333 50 52 56
c64 10.667 96.333 16.334 97 17.001c34.667 15.333 52 50 52 104v301c0 176.667 63 269.334 189 278.001v9c-126 10 -189 103.333 -189 280v301c0 54.667 -17.333 89 -52 103l-97 14c-34.667 5.33301 -52 24.333 -52 57c0 41.333 26.667 62 80 62h93
c59.333 0 107 -20.333 143 -61c34.667 -38 52.334 -87.333 53.001 -148l4 -316c0.666992 -76.667 8.33398 -129.334 23.001 -158.001c12.667 -27.333 44.667 -50.333 96 -69c44 -16 66 -40.667 66 -74z" />
    <glyph glyph-name="asciitilde" unicode="~" horiz-adv-x="1229" 
d="M1100 609c0 -64 -29.333 -120 -88 -168c-55.333 -45.333 -115.333 -68 -180 -68c-66 0 -146.5 23.167 -241.5 69.5s-157.167 69.5 -186.5 69.5c-24.667 0 -56.5 -23.167 -95.5 -69.5s-73.5 -69.5 -103.5 -69.5c-49.333 0 -74 19.667 -74 59c0 61.333 29.333 116 88 164
c54.667 45.333 113.667 68 177 68c68 0 149 -22.5 243 -67.5s157 -67.5 189 -67.5c24.667 0 56.5 22.5 95.5 67.5s73.833 67.5 104.5 67.5c48 0 72 -18.333 72 -55z" />
    <glyph glyph-name="nonbreakingspace" unicode="&#xa0;" horiz-adv-x="0" 
 />
    <glyph glyph-name="exclamdown" unicode="&#xa1;" horiz-adv-x="568" 
d="M408 996c0 -28.667 -10.332 -53 -30.999 -73s-45.334 -30 -74.001 -30c-29.333 0 -54.333 9.83301 -75 29.5s-31 44.167 -31 73.5c0 30 10 54.833 30 74.5s45.333 29.5 76 29.5c30 0 55 -9.83301 75 -29.5s30 -44.5 30 -74.5zM391.001 -293
c0 -58.667 -30.667 -88 -92 -88c-57.333 0 -86 29.333 -86 88v902c0 24.667 8.16699 45.5 24.5 62.5s36.833 25.5 61.5 25.5c61.333 0 92 -31 92 -93v-897z" />
    <glyph glyph-name="cent" unicode="&#xa2;" horiz-adv-x="908" 
d="M856 965c0 -46.667 -26.666 -72 -79.999 -76c-110.667 39.333 -185 59 -223 59v-804c34.667 0 79 10.167 133 30.5s85.667 30.5 95 30.5c44.667 0 67 -25.333 67 -76c0 -94.667 -98.333 -142 -295 -142v-112c0 -26 -16.333 -39 -49 -39c-26 0 -39 14.333 -39 43v117
c-132 27.333 -232.667 96 -302 206c-61.333 98 -92 218.333 -92 361c0 132 33 246 99 342c71.333 103.333 169.666 167 294.999 191v121c0 26 13 39 39 39c32.667 0 49 -14.333 49 -43v-113c202 0 303 -45 303 -135zM465.001 160v772.002
c-72 -28.667 -126.667 -80.334 -164 -155.001c-32.667 -65.333 -49 -140.333 -49 -225c0 -86 16 -163 48 -231c38 -80.667 93 -134.334 165 -161.001z" />
    <glyph glyph-name="sterling" unicode="&#xa3;" horiz-adv-x="1217" 
d="M1155 84c0 -56 -27.999 -83.999 -83.999 -83.999h-848c-58.667 0 -88 24 -88 72c0 26.667 20.667 62.667 62 108c60 66.667 98 112.334 114 137.001c41.333 64 62 131.667 62 203c0 27.333 -5.33301 69.666 -16 126.999h-213c-58.667 0 -88 26.667 -88 80
c0 58.667 29.333 88 88 88h163c-68 113.333 -102 211 -102 293c0 106.667 48.667 195.667 146 267c89.333 65.333 189.333 98 300 98c150 0 278.333 -59.333 385 -178c56.667 -62.667 85 -119.334 85 -170.001c0 -34.667 -8.33301 -59 -25 -73c-8 -6 -32 -16.667 -72 -32
c-28.667 2.66699 -55.667 29 -81 79c-34 66.667 -63.333 111.334 -88 134.001c-50.667 48 -121.334 72 -212.001 72c-73.333 0 -133.333 -19 -180 -57c-50.667 -40.667 -76 -96.667 -76 -168c0 -36.667 13 -82.334 39 -137.001c2.66699 -5.33301 26 -48 70 -128h272
c53.333 0 80 -28 80 -84s-26.667 -84 -80 -84h-231c8 -36 12 -75.333 12 -118c0 -122.667 -57.333 -243 -172 -361h694c56 0 84 -28 84 -84z" />
    <glyph glyph-name="currency" unicode="&#xa4;" 
d="M1083 199c0 -26.667 -8.33203 -49.002 -24.999 -67.002c-82.667 -92 -201.667 -138 -357 -138c-130 0 -238 52.333 -324 157c-74 90 -121.333 204 -142 342h-115c-53.333 0 -80 22.667 -80 68c0 46 26.667 69 80 69h100c-2.66699 28.667 -4 57.334 -4 86.001
c0 40 1.33301 78 4 114h-100c-53.333 0 -80 22.667 -80 68c0 46 26.667 69 80 69h113c17.333 136.667 66 253.334 146 350.001c90 108.667 200.333 163 331 163c157.333 0 269.333 -50 336 -150c13.333 -20.667 20 -41 20 -61c0 -19.333 -6.5 -36.333 -19.5 -51
s-29.167 -22 -48.5 -22c-16 0 -41.333 14 -76 42c-42 34.667 -68.333 54.667 -79 60c-35.333 17.333 -82 26 -140 26c-83.333 0 -150.666 -40.667 -201.999 -122c-40.667 -64 -66.334 -142.333 -77.001 -235h393c53.333 0 80 -23 80 -69c0 -45.333 -26.667 -68 -80 -68h-407
c-2.66699 -38.667 -4 -76.667 -4 -114c0 -28 1 -56.667 3 -86h308c53.333 0 80 -23 80 -69c0 -45.333 -26.667 -68 -80 -68h-291c12.667 -92.667 39.334 -169 80.001 -229c50.667 -75.333 117.667 -113 201 -113c77.333 0 143.166 19.667 197.499 59s93.166 59 116.499 59
c41.333 0 62 -23.333 62 -70z" />
    <glyph glyph-name="yen" unicode="&#xa5;" 
d="M1080 1401c0 -24.667 -6.33398 -46.335 -19.001 -65.002l-336 -521h199c53.333 0 80 -22.333 80 -67c0 -45.333 -26.667 -68 -80 -68h-283v-143h283c53.333 0 80 -22.667 80 -68c0 -46 -28 -69 -84 -69h-279v-320c0 -62 -30.667 -93 -92 -93c-58.667 0 -88 31 -88 93v320
h-289c-53.333 0 -80 21.667 -80 65c0 48 26.667 72 80 72h289v143h-285c-58.667 0 -88 22.667 -88 68c0 44.667 28 67 84 67h205l-340 521c-16 24.667 -24 46.334 -24 65.001c0 20.667 7.33301 37.834 22 51.501s32.334 20.5 53.001 20.5c35.333 0 66 -19.333 92 -58
l369 -550l363 544c28 42.667 61.333 64 100 64c45.333 0 68 -24 68 -72z" />
    <glyph glyph-name="section" unicode="&#xa7;" horiz-adv-x="1141" 
d="M1080 465c0 -144.667 -73.333 -260.669 -220 -348.002c87.333 -60.667 131 -140 131 -238c0 -105.333 -47.333 -187.666 -142 -246.999c-80.667 -51.333 -176.667 -77 -288 -77c-94 0 -185.667 23 -275 69c-104 53.333 -164.333 121.333 -181 204
c-2.66699 12.667 -4 22.667 -4 30c0 66 28 99 84 99c34.667 0 65 -21.333 91 -64c38.667 -62.667 67 -102 85 -118c48.667 -42.667 117.667 -64 207 -64c62 0 115 11.667 159 35c54.667 29.333 82 72.333 82 129c0 61.333 -33.333 111.333 -100 150
c-46.667 26 -119 59.667 -217 101s-170 75 -216 101c-150 86 -225 195.333 -225 328c0 157.333 85.333 273.333 256 348c-90 54.667 -135 135.334 -135 242.001c0 52.667 17.333 105.667 52 159c73.333 112.667 203 169 389 169c78 0 149 -15.667 213 -47
c104.667 -50.667 169 -118.667 193 -204c6 -22 9 -38.667 9 -50c0 -71.333 -28 -107 -84 -107c-34.667 0 -62.667 21.667 -84 65c-31.333 63.333 -56.333 104 -75 122c-46 43.333 -115.667 65 -209 65c-56 0 -105.667 -14.333 -149 -43
c-49.333 -33.333 -74 -76.333 -74 -129c0 -40.667 19.833 -78.5 59.5 -113.5s113.5 -78.5 221.5 -130.5l245 -115c134 -69.333 201 -176.333 201 -321zM903 468.998c0 91.333 -56 163 -168 215l-270 125c-152.667 -54.667 -229 -135 -229 -241c0 -82.667 64 -156 192 -220
l297 -147c118.667 82.667 178 172 178 268z" />
    <glyph glyph-name="dieresis" unicode="&#xa8;" horiz-adv-x="416" 
d="M512 1348c0 -30.667 -11.002 -56.5 -33.002 -77.5s-48.333 -31.5 -79 -31.5c-31.333 0 -57.666 10.333 -78.999 31s-32 46.667 -32 78c0 32 10.333 58.667 31 80s47.334 32 80.001 32c32 0 58.667 -10.667 80 -32s32 -48 32 -80zM128.998 1348
c0 -30.667 -10.499 -56.5 -31.499 -77.5s-46.5 -31.5 -76.5 -31.5c-31.333 0 -58 10.333 -80 31s-33 46.667 -33 78c0 32 10.667 58.667 32 80s48.333 32 81 32c31.333 0 57.166 -10.833 77.499 -32.5s30.5 -48.167 30.5 -79.5z" />
    <glyph glyph-name="copyright" unicode="&#xa9;" horiz-adv-x="1641" 
d="M1565 727c0 -204.667 -73.167 -379.167 -219.5 -523.5s-321.833 -216.5 -526.5 -216.5c-204 0 -378.833 72.333 -524.5 217s-218.5 319 -218.5 523c0 204.667 72.667 380.167 218 526.5s320.333 219.5 525 219.5c205.333 0 381 -73 527 -219s219 -321.667 219 -527z
M1393 727c0 161.333 -55 299.667 -165 415c-112 116.667 -248.333 175 -409 175c-160 0 -295.833 -58.167 -407.5 -174.5s-167.5 -254.833 -167.5 -415.5c0 -160 56 -297.833 168 -413.5s247.667 -173.5 407 -173.5c160.667 0 296.5 57.667 407.5 173
s166.5 253.333 166.5 414zM1192 549.001c0 -38 -20.334 -80.335 -61.001 -127.002c-82.667 -94 -185 -141 -307 -141c-128.667 0 -233.667 42.833 -315 128.5s-122 192.834 -122 321.501c0 134.667 39 243.667 117 327c80 86.667 186.667 130 320 130
c113.333 0 205.666 -33.333 276.999 -100c60.667 -56.667 91 -110 91 -160c0 -39.333 -22.333 -59 -67 -59c-26.667 0 -65.667 33.667 -117 101c-41.333 55.333 -102.666 83 -183.999 83c-90 0 -158.667 -32.333 -206 -97c-42 -56.667 -63 -131.667 -63 -225
c0 -85.333 23 -157.666 69 -216.999c50 -65.333 116.667 -98 200 -98c62.667 0 114.334 16 155.001 48c16.667 14 42 44.333 76 91c24 32.667 47.333 49 70 49c44.667 0 67 -18.333 67 -55z" />
    <glyph glyph-name="ordfeminine" unicode="&#xaa;" horiz-adv-x="740" 
d="M680 856c0 -36.667 -22.333 -54.998 -67 -54.998c-32 0 -52 7.66699 -60 23c-5.33301 9.33301 -8 31 -8 65h-4c-40 -58.667 -97.667 -88 -173 -88c-93.333 0 -169 34 -227 102c-54 64 -81 143.333 -81 238c0 55.333 14 110.333 42 165
c57.333 111.333 146.333 167 267 167c42.667 0 76 -7.66699 100 -23c4.66699 -2.66699 30 -24.334 76 -65.001c0 33.333 2.66699 54.666 8 63.999c8.66699 16 28.667 24 60 24c44.667 0 67 -17.667 67 -53v-564zM549 1137c0 54.667 -14.666 102.333 -43.999 143
c-32 45.333 -74.667 68 -128 68c-52.667 0 -94.667 -23 -126 -69c-28 -40 -42 -87.333 -42 -142c0 -56 13.667 -104.333 41 -145c31.333 -45.333 73.666 -68 126.999 -68s96.333 22.667 129 68c28.667 40.667 43 89 43 145z" />
    <glyph glyph-name="guillemotleft" unicode="&#xab;" horiz-adv-x="797" 
d="M756 197c0 -19.333 -8.33301 -35.501 -25 -48.501s-35 -19.5 -55 -19.5c-26 0 -48.333 17 -67 51l-209 369l204 367c20 35.333 45.333 53 76 53c18.667 0 36 -7.16699 52 -21.5s24 -30.5 24 -48.5c0 -17.333 -8.33301 -39.666 -25 -66.999l-168 -283l177 -293
c10.667 -18 16 -37.667 16 -59zM432 200.999c0 -20.667 -8.66797 -37.832 -26.001 -51.499s-36.666 -20.5 -57.999 -20.5c-23.333 0 -44.333 17 -63 51l-209 369l205 367c19.333 35.333 43.333 53 72 53c18 0 35 -7.5 51 -22.5s24 -31.5 24 -49.5
c0 -20.667 -6.66699 -42.334 -20 -65.001l-168 -283l176 -293c10.667 -18 16 -36.333 16 -55z" />
    <glyph glyph-name="logicalnot" unicode="&#xac;" horiz-adv-x="1229" 
d="M1133 299c0 -53.333 -28 -80 -84 -80s-84 28 -84 84v344h-789c-56 0 -84 28 -84 84s26.667 84 80 84h877c56 0 84 -29.333 84 -88v-428z" />
    <glyph glyph-name="registered" unicode="&#xae;" horiz-adv-x="1641" 
d="M1561 727c0 -204.667 -72.333 -379.167 -217 -523.5s-319.667 -216.5 -525 -216.5s-380.5 72 -525.5 216s-217.5 318.667 -217.5 524c0 208 72 384.333 216 529s319.667 217 527 217s382.833 -72.5 526.5 -217.5s215.5 -321.167 215.5 -528.5zM1397 727
c0 160 -56.333 298.333 -169 415s-249 175 -409 175c-159.333 0 -295 -58.5 -407 -175.5s-168 -255.167 -168 -414.5c0 -158.667 56.167 -295.5 168.5 -410.5s247.833 -172.5 406.5 -172.5c159.333 0 295.5 57.167 408.5 171.5s169.5 251.5 169.5 411.5zM1141 899
c0 -137.333 -69.667 -215.667 -209 -235l184 -283c11.333 -16.667 17 -33 17 -49c0 -23.333 -25.333 -35 -76 -35c-33.333 0 -60 15.667 -80 47l-196 312h-134v-295c0 -42.667 -22.333 -64 -67 -64c-42.667 0 -64 21.333 -64 64v743c0 27.333 14.333 41 43 41h273
c99.333 0 173 -16 221 -48c58.667 -38.667 88 -104.667 88 -198zM1008 907.999c0 74.667 -64.334 112 -193.001 112h-168v-239h158c62.667 0 108.334 6 137.001 18c44 18.667 66 55 66 109z" />
    <glyph glyph-name="plusminus" unicode="&#xb1;" horiz-adv-x="1229" 
d="M1133 637c0 -54.667 -26.667 -82 -80 -82h-352v-227c0 -58.667 -28 -88 -84 -88s-84 29.333 -84 88v227h-348c-64.667 0 -97 28.667 -97 86c0 56 32.333 84 97 84h348v223c0 59.333 26.667 89 80 89c58.667 0 88 -29.667 88 -89v-223h356c50.667 0 76 -29.333 76 -88z
M1141 80c0 -53.333 -28 -80 -84 -80h-872c-62 0 -93 28 -93 84s31 84 93 84h872c56 0 84 -29.333 84 -88z" />
    <glyph glyph-name="twosuperior" unicode="&#xb2;" horiz-adv-x="713" 
d="M652 656c0 -40 -23.998 -59.998 -71.998 -59.998h-455c-39.333 0 -61 13.667 -65 41c5.33301 18.667 10.666 31.667 15.999 39l365 457c34 42 51 78.667 51 110c0 33.333 -14 59.666 -42 78.999c-24.667 17.333 -54.334 26 -89.001 26
c-45.333 0 -85.333 -16.833 -120 -50.5s-52 -72.834 -52 -117.501c0 -34 -21.333 -51 -64 -51c-40.667 0 -61 23.667 -61 71c0 84 30.333 151 91 201c56.667 48 128 72 214 72c75.333 0 138 -17.667 188 -53c56 -39.333 84 -95.333 84 -168c0 -52 -26 -109.333 -78 -172
l-294 -359h311c48 0 72 -21.667 72 -65z" />
    <glyph glyph-name="threesuperior" unicode="&#xb3;" horiz-adv-x="713" 
d="M652 852c0 -84 -34 -151 -102 -201c-61.333 -44.667 -135.333 -67 -222 -67c-142.667 0 -229.334 58.667 -260.001 176c-2 8 -4.66699 20.333 -8 37c5.33301 45.333 24.333 68 57 68c20 0 43.333 -22.333 70 -67c28.667 -46.667 61.334 -73.667 98.001 -81
c28.667 -5.33301 45.667 -8 51 -8c41.333 0 79 13 113 39c36.667 28 55 62 55 102c0 64.667 -20 106.334 -60 125.001c-11.333 5.33301 -48.333 11.666 -111 18.999c-40 4.66699 -60 21.667 -60 51c0 21.333 15.667 38 47 50c48.667 18.667 78.334 32 89.001 40
c32 23.333 48 60.666 48 111.999c0 32 -14 57.333 -42 76c-24.667 16.667 -53.667 25 -87 25c-78 0 -120.333 -32 -127 -96c-4.66699 -37.333 -25 -56 -61 -56c-34.667 0 -52 26.667 -52 80c0 66.667 32 119.334 96 158.001c42.667 26 96.667 39 162 39
c71.333 0 130.666 -20.333 177.999 -61c50.667 -42.667 76 -99 76 -169c0 -82 -36 -142.667 -108 -182c106.667 -32 160 -101.667 160 -209z" />
    <glyph glyph-name="acute" unicode="&#xb4;" horiz-adv-x="416" 
d="M852 1764c0 -32 -22.333 -57.333 -67 -76l-240 -101c-16 -6.66699 -38 -10 -66 -10c-20 0 -38.167 7 -54.5 21s-24.5 31 -24.5 51c0 36.667 26.333 66 79 88l242 98c13.333 5.33301 29 8 47 8c22 0 41.5 -7.83301 58.5 -23.5s25.5 -34.167 25.5 -55.5z" />
    <glyph glyph-name="mu" unicode="&#xb5;" 
d="M983 88c0 -67.333 -30 -101.001 -90 -101.001c-49.333 0 -77.333 20 -84 60c-75.333 -40 -160.666 -60 -255.999 -60c-118.667 0 -203.334 32.333 -254.001 97v-437c0 -58.667 -30 -88 -90 -88c-58.667 0 -88 28 -88 84v1369c0 61.333 29.333 92 88 92
c60 0 90 -30.667 90 -92v-580c0 -103.333 20.667 -177.166 62 -221.499s113 -66.5 215 -66.5c94.667 0 157 28.333 187 85c28 52.667 42 119 42 199v584c0 61.333 29.333 92 88 92c60 0 90 -30.667 90 -92v-924z" />
    <glyph glyph-name="mu" unicode="&#x3bc;" 
d="M983 88c0 -67.333 -30 -101.001 -90 -101.001c-49.333 0 -77.333 20 -84 60c-75.333 -40 -160.666 -60 -255.999 -60c-118.667 0 -203.334 32.333 -254.001 97v-437c0 -58.667 -30 -88 -90 -88c-58.667 0 -88 28 -88 84v1369c0 61.333 29.333 92 88 92
c60 0 90 -30.667 90 -92v-580c0 -103.333 20.667 -177.166 62 -221.499s113 -66.5 215 -66.5c94.667 0 157 28.333 187 85c28 52.667 42 119 42 199v584c0 61.333 29.333 92 88 92c60 0 90 -30.667 90 -92v-924z" />
    <glyph glyph-name="paragraph" unicode="&#xb6;" horiz-adv-x="1229" 
d="M1067 -361c0 -53.333 -28 -80 -84 -80s-84 25.333 -84 76v1688h-235v-1692c0 -50.667 -28 -76 -84 -76s-84 26.667 -84 80v1070c-124.667 0 -227.667 32.667 -309 98c-87.333 70.667 -131 167 -131 289c0 124 53.333 219 160 285c89.333 55.333 200.333 83 333 83h424
c62.667 0 94 -34.667 94 -104v-1717z" />
    <glyph glyph-name="periodcentered" unicode="&#xb7;" horiz-adv-x="492" 
d="M369 621c0 -30.667 -11.167 -56.5 -33.5 -77.5s-48.833 -31.5 -79.5 -31.5s-57 10.5 -79 31.5s-33 46.833 -33 77.5s10.833 56.667 32.5 78s48.167 32 79.5 32s58 -10.5 80 -31.5s33 -47.167 33 -78.5z" />
    <glyph glyph-name="periodcentered" unicode="&#x2219;" horiz-adv-x="492" 
d="M369 621c0 -30.667 -11.167 -56.5 -33.5 -77.5s-48.833 -31.5 -79.5 -31.5s-57 10.5 -79 31.5s-33 46.833 -33 77.5s10.833 56.667 32.5 78s48.167 32 79.5 32s58 -10.5 80 -31.5s33 -47.167 33 -78.5z" />
    <glyph glyph-name="cedilla" unicode="&#xb8;" horiz-adv-x="416" 
d="M500 -198c0 -114 -75.666 -170.999 -226.999 -170.999c-98.667 0 -148 24 -148 72c0 38 13 57 39 57c12 0 30 -3.33301 54 -10s42.333 -10 55 -10c47.333 0 71 18.333 71 55c0 27.333 -23.333 41 -70 41h-8c-45.333 0 -69.666 11.667 -72.999 35
c5.33301 24.667 30.666 67.667 75.999 129h108l-61 -88c32.667 5.33301 47.667 8 45 8c35.333 0 66.666 -10.667 93.999 -32c30 -22.667 45 -51.334 45 -86.001z" />
    <glyph glyph-name="onesuperior" unicode="&#xb9;" horiz-adv-x="469" 
d="M324 647c0 -42 -24 -63 -72 -63s-72 21 -72 63v689h-108c-39.333 0 -59 20.333 -59 61c0 42 19.667 63 59 63h217c23.333 0 35 -9.33301 35 -28v-785z" />
    <glyph glyph-name="ordmasculine" unicode="&#xba;" horiz-adv-x="713" 
d="M672 1137c0 -96.667 -27.667 -175.999 -83 -237.999c-57.333 -65.333 -133.333 -98 -228 -98s-171 32.667 -229 98c-56.667 62.667 -85 142 -85 238c0 97.333 27.667 176.666 83 237.999c57.333 65.333 134.333 98 231 98c94.667 0 170.667 -32.667 228 -98
c55.333 -62 83 -141.333 83 -238zM525 1137c0 54 -13.668 101 -41.001 141c-30 46.667 -71 70 -123 70c-53.333 0 -95.666 -22.667 -126.999 -68c-27.333 -40 -41 -87.667 -41 -143c0 -54.667 14 -102.667 42 -144c32 -46 74 -69 126 -69c50.667 0 91.667 23.333 123 70
c27.333 41.333 41 89 41 143z" />
    <glyph glyph-name="guillemotright" unicode="&#xbb;" horiz-adv-x="797" 
d="M756 549l-202.999 -369.001c-18.667 -34 -43.334 -51 -74.001 -51c-46 0 -72.333 22.667 -79 68c5.33301 26 12 45.667 20 59l176 293l-172 283c-16 26.667 -24 48.334 -24 65.001c0 18 8 34.5 24 49.5s33 22.5 51 22.5c32.667 0 58.667 -17.667 78 -53zM432.001 548.999
l-209.001 -369.001c-19.333 -34 -41.666 -51 -66.999 -51c-46 0 -72.667 22.667 -80 68c5.33301 26 12.333 45.667 21 59l176 293l-172 283c-16.667 26.667 -25 48.334 -25 65.001c0 18 8.16699 34.5 24.5 49.5s33.5 22.5 51.5 22.5c30.667 0 56 -17.667 76 -53z" />
    <glyph glyph-name="onequarter" unicode="&#xbc;" horiz-adv-x="1649" 
d="M1577 260c0 -30.667 -10.667 -49.332 -32 -55.999c-7.33301 -2 -31.333 -3 -72 -3v-154c0 -40 -24 -60 -72 -60c-52 0 -78 21.333 -78 64v150h-366c-30 0 -45 14.333 -45 43c0 17.333 10.667 42.666 32 75.999l328 495c27.333 41.333 62.333 62 105 62
c64 0 96 -26.667 96 -80v-477c39.333 0 63 -1.33301 71 -4c22 -7.33301 33 -26 33 -56zM1100 1428c0 -19.333 -8.33398 -48.667 -25.001 -88l-546 -1307c-17.333 -41.333 -42.666 -62 -75.999 -62c-48 0 -72 18 -72 54c0 10 6.33301 29.667 19 59l561 1348
c15.333 38 39 57 71 57c45.333 0 68 -20.333 68 -61zM384.999 647.001c0 -42 -26 -63 -78 -63c-18.667 0 -35.167 6 -49.5 18s-21.5 27 -21.5 45v689h-105c-39.333 0 -59 20.333 -59 61c0 42 19 63 57 63h215c27.333 0 41 -9.33301 41 -28v-785zM1323 320.001v407h-2
l-237 -407h239z" />
    <glyph glyph-name="onehalf" unicode="&#xbd;" horiz-adv-x="1649" 
d="M1516 60c0 -40 -24 -59.998 -72 -59.998h-453c-38 0 -59 13.667 -63 41c4 10.667 9.33301 22.334 16 35.001l361 461c34 43.333 51 80 51 110c0 33.333 -13.333 59.666 -40 78.999c-23.333 17.333 -52.333 26 -87 26c-46.667 0 -87.667 -16.5 -123 -49.5
s-53 -72.5 -53 -118.5c0 -34 -20.667 -51 -62 -51c-39.333 0 -59 23.667 -59 71c0 84.667 30.333 152 91 202c56 47.333 127.333 71 214 71c75.333 0 137.333 -18.333 186 -55c53.333 -40.667 80 -97.334 80 -170.001c0 -58.667 -23.667 -116.334 -71 -173.001l-299 -354
h315c45.333 0 68 -21.667 68 -65zM1037 1428c0 -19.333 -8.33301 -48.668 -25 -88.001l-547 -1307c-17.333 -41.333 -43.333 -62 -78 -62c-40 0 -63.667 18 -71 54c1.33301 10.667 8 30.334 20 59.001l561 1348c16 38 40 57 72 57c45.333 0 68 -20.333 68 -61zM385 647
c0 -42 -26 -63 -78 -63c-18.667 0 -35.167 6 -49.5 18s-21.5 27 -21.5 45v689h-105c-42 0 -63 20.333 -63 61c0 42 20.333 63 61 63h215c27.333 0 41 -9.33301 41 -28v-785z" />
    <glyph glyph-name="threequarters" unicode="&#xbe;" horiz-adv-x="1649" 
d="M1577 260c0 -31.333 -10.667 -50.3311 -32 -56.998c-6 -1.33301 -30 -2 -72 -2v-154c0 -40 -24 -60 -72 -60c-52 0 -78 21.333 -78 64v150h-366c-30 0 -45 14.333 -45 43c0 17.333 10.667 42.666 32 75.999l328 495c27.333 41.333 62.333 62 105 62
c64 0 96 -26.667 96 -80v-477c40.667 0 64.667 -1.33301 72 -4c21.333 -6.66699 32 -25.334 32 -56.001zM1225 1428c0 -20 -8.33496 -49.333 -25.002 -88l-548 -1307c-17.333 -41.333 -42.666 -62 -75.999 -62c-38 0 -60.667 18 -68 54c2.66699 20 8.33398 39.667 17.001 59
l559 1348c15.333 38 39 57 71 57c46.667 0 70 -20.333 70 -61zM675.998 848.002c0 -83.333 -33.333 -149.332 -100 -197.999c-60 -44 -133 -66 -219 -66c-141.333 0 -228 58.667 -260 176l-9 37c6 45.333 24.667 68 56 68c23.333 0 46.666 -22 69.999 -66
c24.667 -47.333 57.334 -74.666 98.001 -81.999c29.333 -5.33301 47 -8 53 -8c38 0 74.667 12.667 110 38c38.667 27.333 58 59.666 58 96.999c0 65.333 -20.333 108 -61 128c-12.667 6.66699 -50 14 -112 22c-40.667 5.33301 -61 22.333 -61 51
c0 23.333 15.667 40.333 47 51c48 17.333 76.667 29.333 86 36c31.333 23.333 47 61.666 47 114.999c0 67.333 -40.667 101 -122 101c-82 0 -126.667 -32 -134 -96c-4.66699 -37.333 -23 -56 -55 -56c-34 0 -51 26.667 -51 80c0 58 26 106.667 78 146
c44 34 103.667 51 179 51c71.333 0 131 -20.333 179 -61c50.667 -42.667 76 -99 76 -169c0 -79.333 -37.667 -140 -113 -182c106.667 -32 160 -103 160 -213zM1323 320.003v407h-2l-237 -407h239z" />
    <glyph glyph-name="questiondown" unicode="&#xbf;" horiz-adv-x="908" 
d="M576 996c0 -28.667 -10.334 -53 -31.001 -73s-45.334 -30 -74.001 -30c-29.333 0 -53.666 9.83301 -72.999 29.5s-29 44.167 -29 73.5c0 30 9.33301 54.833 28 74.5s43.334 29.5 74.001 29.5c30 0 55 -9.83301 75 -29.5s30 -44.5 30 -74.5zM868.999 -72
c0 -92.667 -46.334 -168.998 -139.001 -228.998c-81.333 -53.333 -171 -80 -269 -80c-114.667 0 -212.667 33 -294 99c-86.667 71.333 -130 163 -130 275c0 107.333 31 196.333 93 267c60 67.333 143.667 112.666 251 135.999v213c0 58.667 28 88 84 88
c62.667 0 94 -29.333 94 -88v-269c0 -41.333 -20.667 -70.666 -62 -87.999l-116 -29c-47.333 -12.667 -84.666 -37.834 -111.999 -75.501s-41 -81.167 -41 -130.5c0 -6 1.33301 -22.667 4 -50c1.33301 -16.667 7 -36.334 17 -59.001c34.667 -80.667 110 -121 226 -121
c114 0 188 49.667 222 149c18.667 56.667 46.667 85 84 85c58.667 0 88 -31 88 -93z" />
    <glyph glyph-name="Agrave" unicode="&#xc0;" horiz-adv-x="1252" 
d="M1237 56c0 -48.667 -28 -72.999 -84 -72.999c-44.667 0 -75.334 22.667 -92.001 68l-96 265h-676l-96 -265c-16 -42.667 -46.667 -64 -92 -64c-56 0 -84 24.333 -84 73c3.33301 16.667 7.33301 33 12 49l471 1259c26.667 72.667 68.334 109 125.001 109
c58 0 100.333 -35 127 -105l477 -1263c5.33301 -14.667 8 -32.334 8 -53.001zM912 471.001l-283 793h-4l-281 -793h568zM852 1649c0 -50.667 -29.332 -76 -87.999 -76c-4.66699 0 -20.334 3.33301 -47.001 10l-260 105c-43.333 17.333 -65 42.666 -65 75.999
c0 22.667 8.66699 42.334 26 59.001s38 25 62 25c14 0 24.667 -1.66699 32 -5l273 -114c44.667 -19.333 67 -46 67 -80z" />
    <glyph glyph-name="Aacute" unicode="&#xc1;" horiz-adv-x="1252" 
d="M1237 56c0 -48.667 -28 -72.999 -84 -72.999c-44.667 0 -75.334 22.667 -92.001 68l-96 265h-676l-96 -265c-16 -42.667 -46.667 -64 -92 -64c-56 0 -84 24.333 -84 73c3.33301 16.667 7.33301 33 12 49l471 1259c26.667 72.667 68.334 109 125.001 109
c58 0 100.333 -35 127 -105l477 -1263c5.33301 -14.667 8 -32.334 8 -53.001zM912 471.001l-283 793h-4l-281 -793h568zM848 1760c0 -32 -22.333 -57.333 -67 -76l-240 -101c-16 -6.66699 -38 -10 -66 -10c-20 0 -38.167 7 -54.5 21s-24.5 31 -24.5 51
c0 36.667 26.333 66 79 88l242 98c13.333 5.33301 29 8 47 8c22 0 41.5 -7.83301 58.5 -23.5s25.5 -34.167 25.5 -55.5z" />
    <glyph glyph-name="Acircumflex" unicode="&#xc2;" horiz-adv-x="1252" 
d="M1237 56c0 -48.667 -28 -72.999 -84 -72.999c-44.667 0 -75.334 22.667 -92.001 68l-96 265h-676l-96 -265c-16 -42.667 -46.667 -64 -92 -64c-56 0 -84 24.333 -84 73c3.33301 16.667 7.33301 33 12 49l471 1259c26.667 72.667 68.334 109 125.001 109
c58 0 100.333 -35 127 -105l477 -1263c5.33301 -14.667 8 -32.334 8 -53.001zM912 471.001l-283 793h-4l-281 -793h568zM941 1641c0 -49.333 -25.333 -74 -76 -74c-12.667 0 -94 30.667 -244 92c-156.667 -61.333 -240.667 -92 -252 -92c-46.667 0 -70 24.667 -70 74
c0 39.333 16.333 66 49 80l273 115l266 -115c36 -16 54 -42.667 54 -80z" />
    <glyph glyph-name="Atilde" unicode="&#xc3;" horiz-adv-x="1252" 
d="M1237 56c0 -48.667 -28 -72.999 -84 -72.999c-44.667 0 -75.334 22.667 -92.001 68l-96 265h-676l-96 -265c-16 -42.667 -46.667 -64 -92 -64c-56 0 -84 24.333 -84 73c3.33301 16.667 7.33301 33 12 49l471 1259c26.667 72.667 68.334 109 125.001 109
c58 0 100.333 -35 127 -105l477 -1263c5.33301 -14.667 8 -32.334 8 -53.001zM912 471.001l-283 793h-4l-281 -793h568zM928 1721c0 -43.333 -23 -77.333 -69 -102c-36 -18.667 -78.333 -29 -127 -31c-6 2.66699 -12.333 4 -19 4c-22 0 -54.667 6.16699 -98 18.5
s-76 18.5 -98 18.5c-16.667 0 -60 -13.667 -130 -41c-42 20 -63 46.667 -63 80c0 86 60 129 180 129c27.333 0 65 -6 113 -18c63.333 -15.333 100.333 -23 111 -23c12.667 0 34 6.83301 64 20.5s53 20.5 69 20.5c18.667 0 34.5 -7.83301 47.5 -23.5s19.5 -33.167 19.5 -52.5
z" />
    <glyph glyph-name="Adieresis" unicode="&#xc4;" horiz-adv-x="1252" 
d="M1237 56c0 -48.667 -28 -72.999 -84 -72.999c-44.667 0 -75.334 22.667 -92.001 68l-96 265h-676l-96 -265c-16 -42.667 -46.667 -64 -92 -64c-56 0 -84 24.333 -84 73c3.33301 16.667 7.33301 33 12 49l471 1259c26.667 72.667 68.334 109 125.001 109
c58 0 100.333 -35 127 -105l477 -1263c5.33301 -14.667 8 -32.334 8 -53.001zM912 471.001l-283 793h-4l-281 -793h568zM932 1676c0 -30.667 -11.002 -56.5 -33.002 -77.5s-48.333 -31.5 -79 -31.5c-31.333 0 -57.666 10.333 -78.999 31s-32 46.667 -32 78
c0 32 10.333 58.667 31 80s47.334 32 80.001 32c32 0 58.667 -10.667 80 -32s32 -48 32 -80zM548.998 1676c0 -30.667 -10.499 -56.5 -31.499 -77.5s-46.5 -31.5 -76.5 -31.5c-31.333 0 -58 10.333 -80 31s-33 46.667 -33 78c0 32 10.667 58.667 32 80s48.333 32 81 32
c31.333 0 57.166 -10.833 77.499 -32.5s30.5 -48.167 30.5 -79.5z" />
    <glyph glyph-name="Aring" unicode="&#xc5;" horiz-adv-x="1252" 
d="M1237 56c0 -48.667 -28 -72.999 -84 -72.999c-44.667 0 -75.334 22.667 -92.001 68l-96 265h-676l-96 -265c-16 -42.667 -46.667 -64 -92 -64c-56 0 -84 24.333 -84 73c3.33301 16.667 7.33301 33 12 49l471 1259c26.667 72.667 68.334 109 125.001 109
c58 0 100.333 -35 127 -105l477 -1263c5.33301 -14.667 8 -32.334 8 -53.001zM912 471.001l-283 793h-4l-281 -793h568zM816 1701c0 -54 -19.002 -99.667 -57.002 -137s-84 -56 -138 -56c-53.333 0 -98.666 18.833 -135.999 56.5s-56 83.167 -56 136.5s18.5 99 55.5 137
s82.5 57 136.5 57c54.667 0 100.834 -18.833 138.501 -56.5s56.5 -83.5 56.5 -137.5zM714.998 1701c0 25.333 -9.16699 47.667 -27.5 67s-40.5 29 -66.5 29s-47.833 -9.5 -65.5 -28.5s-26.5 -41.5 -26.5 -67.5c0 -26.667 8.66699 -48.667 26 -66s39.333 -26 66 -26
s49 8.66699 67 26s27 39.333 27 66z" />
    <glyph glyph-name="AE" unicode="&#xc6;" horiz-adv-x="1516" 
d="M1473 80c0 -24 -9.16602 -43.333 -27.499 -58s-39.833 -22 -64.5 -22h-521c-64 0 -96 33.667 -96 101v215h-471l-149 -283c-16.667 -30.667 -43.334 -46 -80.001 -46c-54 0 -81 23 -81 69c0 22 5.66699 43.667 17 65l647 1268c24 47.333 63 71 117 71h600
c56 0 84 -27.667 84 -83c0 -56 -29.333 -84 -88 -84h-416v-478h404c53.333 0 80 -30 80 -90c0 -54.667 -28 -82 -84 -82h-400v-475h441c58.667 0 88 -29.333 88 -88zM764.001 471v781h-4l-391 -781h395z" />
    <glyph glyph-name="Ccedilla" unicode="&#xc7;" horiz-adv-x="1217" 
d="M1164 193c0 -28.667 -8.99805 -51.3311 -26.998 -67.998c-91.333 -85.333 -225.333 -131.333 -402 -138l-51 -75c38 5.33301 52.333 8 43 8c36 0 68 -10.333 96 -31c30.667 -23.333 46 -52.333 46 -87c0 -114 -76 -171 -228 -171c-99.333 0 -149 24 -149 72
c0 38 15 57 45 57c11.333 0 28.5 -3.33301 51.5 -10s40.5 -10 52.5 -10c48 0 72 18.333 72 55c0 25.333 -24.667 39.166 -74 41.499s-76 15.166 -80 38.499c7.33301 26 30.666 65 69.999 117c-186.667 20.667 -331 109.667 -433 267c-88 136 -132 286 -132 450
c0 214.667 53.333 392 160 532c118 154.667 281 232 489 232c105.333 0 202.333 -23.333 291 -70s133 -98.667 133 -156c0 -50 -25.333 -75 -76 -75c-15.333 0 -40.333 12.333 -75 37c-46.667 34 -83 57.333 -109 70c-51.333 25.333 -105 38 -161 38
c-145.333 0 -261 -62.333 -347 -187c-75.333 -110 -113 -241 -113 -393c0 -206 58.333 -368.333 175 -487c69.333 -71.333 160.666 -107 273.999 -107c62 0 117 9.66699 165 29c33.333 12.667 89 40.667 167 84c19.333 11.333 39 17 59 17c45.333 0 68 -26.667 68 -80z" />
    <glyph glyph-name="Egrave" unicode="&#xc8;" horiz-adv-x="908" 
d="M824 80c0 -53.333 -29.667 -80 -89 -80h-526c-58.667 -0 -88 32.333 -88 97v1263c0 66.667 25.333 100 76 100h551c50.667 0 76 -27.667 76 -83c0 -56 -26.667 -84 -80 -84h-445v-482h406c53.333 0 80 -28 80 -84s-28 -84 -84 -84h-402v-475h449
c50.667 0 76 -29.333 76 -88zM696 1649c0 -50.667 -29.332 -76 -87.999 -76c-4.66699 0 -20.334 3.33301 -47.001 10l-260 105c-43.333 17.333 -65 42.666 -65 75.999c0 22.667 8.66699 42.334 26 59.001s38 25 62 25c14 0 24.667 -1.66699 32 -5l273 -114
c44.667 -19.333 67 -46 67 -80z" />
    <glyph glyph-name="Eacute" unicode="&#xc9;" horiz-adv-x="908" 
d="M824 80c0 -53.333 -29.667 -80 -89 -80h-526c-58.667 -0 -88 32.333 -88 97v1263c0 66.667 25.333 100 76 100h551c50.667 0 76 -27.667 76 -83c0 -56 -26.667 -84 -80 -84h-445v-482h406c53.333 0 80 -28 80 -84s-28 -84 -84 -84h-402v-475h449
c50.667 0 76 -29.333 76 -88zM676 1760c0 -32 -22.333 -57.333 -67 -76l-240 -101c-16 -6.66699 -38 -10 -66 -10c-20 0 -38.167 7 -54.5 21s-24.5 31 -24.5 51c0 36.667 26.333 66 79 88l242 98c13.333 5.33301 29 8 47 8c22 0 41.5 -7.83301 58.5 -23.5
s25.5 -34.167 25.5 -55.5z" />
    <glyph glyph-name="Ecircumflex" unicode="&#xca;" horiz-adv-x="908" 
d="M824 80c0 -53.333 -29.667 -80 -89 -80h-526c-58.667 -0 -88 32.333 -88 97v1263c0 66.667 25.333 100 76 100h551c50.667 0 76 -27.667 76 -83c0 -56 -26.667 -84 -80 -84h-445v-482h406c53.333 0 80 -28 80 -84s-28 -84 -84 -84h-402v-475h449
c50.667 0 76 -29.333 76 -88zM781 1641c0 -49.333 -25.333 -74 -76 -74c-12.667 0 -94 30.667 -244 92c-156.667 -61.333 -240.667 -92 -252 -92c-46.667 0 -70 24.667 -70 74c0 39.333 16.333 66 49 80l273 115l266 -115c36 -16 54 -42.667 54 -80z" />
    <glyph glyph-name="Edieresis" unicode="&#xcb;" horiz-adv-x="908" 
d="M824 80c0 -53.333 -29.667 -80 -89 -80h-526c-58.667 -0 -88 32.333 -88 97v1263c0 66.667 25.333 100 76 100h551c50.667 0 76 -27.667 76 -83c0 -56 -26.667 -84 -80 -84h-445v-482h406c53.333 0 80 -28 80 -84s-28 -84 -84 -84h-402v-475h449
c50.667 0 76 -29.333 76 -88zM764 1672c0 -30.667 -11.002 -56.5 -33.002 -77.5s-48.333 -31.5 -79 -31.5c-31.333 0 -57.666 10.333 -78.999 31s-32 46.667 -32 78c0 32 10.333 58.667 31 80s47.334 32 80.001 32c32 0 58.667 -10.667 80 -32s32 -48 32 -80zM380.998 1672
c0 -30.667 -10.499 -56.5 -31.499 -77.5s-46.5 -31.5 -76.5 -31.5c-31.333 0 -58 10.333 -80 31s-33 46.667 -33 78c0 32 10.667 58.667 32 80s48.333 32 81 32c31.333 0 57.166 -10.833 77.499 -32.5s30.5 -48.167 30.5 -79.5z" />
    <glyph glyph-name="Igrave" unicode="&#xcc;" horiz-adv-x="416" 
d="M299 88c0 -67.333 -28.667 -101 -86 -101c-61.333 0 -92 32.333 -92 97v1293c0 64 30.667 96 92 96c57.333 0 86 -32 86 -96v-1289zM444 1636c0 -50.667 -29.332 -76 -87.999 -76c-4.66699 0 -20.334 3.33301 -47.001 10l-260 105c-43.333 17.333 -65 42.666 -65 75.999
c0 22.667 8.66699 42.334 26 59.001s38 25 62 25c14 0 24.667 -1.66699 32 -5l273 -114c44.667 -19.333 67 -46 67 -80z" />
    <glyph glyph-name="Iacute" unicode="&#xcd;" horiz-adv-x="416" 
d="M299 88c0 -67.333 -28.667 -101 -86 -101c-61.333 0 -92 32.333 -92 97v1293c0 64 30.667 96 92 96c57.333 0 86 -32 86 -96v-1289zM416 1756c0 -32 -22.333 -57.333 -67 -76l-240 -101c-16 -6.66699 -38 -10 -66 -10c-20 0 -38.167 7 -54.5 21s-24.5 31 -24.5 51
c0 36.667 26.333 66 79 88l242 98c13.333 5.33301 29 8 47 8c22 0 41.5 -7.83301 58.5 -23.5s25.5 -34.167 25.5 -55.5z" />
    <glyph glyph-name="Icircumflex" unicode="&#xce;" horiz-adv-x="416" 
d="M299 88c0 -67.333 -28.667 -101 -86 -101c-61.333 0 -92 32.333 -92 97v1293c0 64 30.667 96 92 96c57.333 0 86 -32 86 -96v-1289zM529 1641c0 -49.333 -25.333 -74 -76 -74c-12.667 0 -94 30.667 -244 92c-156.667 -61.333 -240.667 -92 -252 -92
c-46.667 0 -70 24.667 -70 74c0 39.333 16.333 66 49 80l273 115l266 -115c36 -16 54 -42.667 54 -80z" />
    <glyph glyph-name="Idieresis" unicode="&#xcf;" horiz-adv-x="416" 
d="M299 88c0 -67.333 -28.667 -101 -86 -101c-61.333 0 -92 32.333 -92 97v1293c0 64 30.667 96 92 96c57.333 0 86 -32 86 -96v-1289zM512 1676c0 -30.667 -11.002 -56.5 -33.002 -77.5s-48.333 -31.5 -79 -31.5c-31.333 0 -57.666 10.333 -78.999 31s-32 46.667 -32 78
c0 32 10.333 58.667 31 80s47.334 32 80.001 32c32 0 58.667 -10.667 80 -32s32 -48 32 -80zM128.998 1676c0 -30.667 -10.499 -56.5 -31.499 -77.5s-46.5 -31.5 -76.5 -31.5c-31.333 0 -58 10.333 -80 31s-33 46.667 -33 78c0 32 10.667 58.667 32 80s48.333 32 81 32
c31.333 0 57.166 -10.833 77.499 -32.5s30.5 -48.167 30.5 -79.5z" />
    <glyph glyph-name="Eth" unicode="&#xd0;" horiz-adv-x="1293" 
d="M1229 735c0 -140 -24.668 -267.001 -74.001 -381.001c-103.333 -236 -285.333 -354 -546 -354h-386c-24.667 0 -46 7 -64 21c-20 15.333 -30 35 -30 59v580c-66 0 -102 0.333008 -108 1c-38.667 8 -58 32.667 -58 74c0 40.667 19.667 65.334 59 74.001
c6.66699 1.33301 42.334 2 107.001 2v553c0 64 31.333 96 94 96h369c198.667 0 356.667 -72.667 474 -218c108.667 -134 163 -303 163 -507zM1037 747.999c0 160 -38 289.999 -114 389.999c-84 111.333 -204 167 -360 167h-256v-494h252c56 0 84 -25.333 84 -76
c0 -50 -28 -75 -84 -75h-252v-504h281c104.667 0 199 36.667 283 110c110.667 96.667 166 257.334 166 482.001z" />
    <glyph glyph-name="Ntilde" unicode="&#xd1;" horiz-adv-x="1364" 
d="M1247 76c0 -62 -26.332 -93 -78.999 -93c-40.667 0 -74.334 19.333 -101.001 58l-768 1104v-1069c0 -59.333 -30 -89 -90 -89c-58.667 0 -88 31 -88 93v1301c0 64 25.333 96 76 96c39.333 0 73.333 -20.667 102 -62l766 -1099h2v1061c0 64 29.333 96 88 96
c61.333 0 92 -32 92 -96v-1301zM987.001 1721c0 -43.333 -23 -77.333 -69 -102c-36 -18.667 -78.333 -29 -127 -31c-6 2.66699 -12.333 4 -19 4c-22 0 -54.667 6.16699 -98 18.5s-76 18.5 -98 18.5c-16.667 0 -60 -13.667 -130 -41c-42 20 -63 46.667 -63 80
c0 86 60 129 180 129c27.333 0 65 -6 113 -18c63.333 -15.333 100.333 -23 111 -23c12.667 0 34 6.83301 64 20.5s53 20.5 69 20.5c18.667 0 34.5 -7.83301 47.5 -23.5s19.5 -33.167 19.5 -52.5z" />
    <glyph glyph-name="Ograve" unicode="&#xd2;" horiz-adv-x="1401" 
d="M1344 719c0 -200.667 -55.667 -370 -167 -508c-120 -149.333 -277.333 -224 -472 -224c-197.333 0 -356 76 -476 228c-110 139.333 -165 310 -165 512c0 204 54.667 376 164 516c119.333 153.333 278.333 230 477 230c200.667 0 360 -77.333 478 -232
c107.333 -140.667 161 -314.667 161 -522zM1153 737c0 160 -33.667 291.999 -101 395.999c-80 122.667 -195.667 184 -347 184c-150.667 0 -266.334 -62.667 -347.001 -188c-68 -106 -102 -238.667 -102 -398c0 -161.333 33.667 -294.666 101 -399.999
c79.333 -124.667 195.333 -187 348 -187c150.667 0 266.334 63.667 347.001 191c67.333 107.333 101 241.333 101 402zM936 1653c0 -50.667 -29.332 -76 -87.999 -76c-4.66699 0 -20.334 3.33301 -47.001 10l-260 105c-43.333 17.333 -65 42.666 -65 75.999
c0 22.667 8.66699 42.334 26 59.001s38 25 62 25c14 0 24.667 -1.66699 32 -5l273 -114c44.667 -19.333 67 -46 67 -80z" />
    <glyph glyph-name="Oacute" unicode="&#xd3;" horiz-adv-x="1401" 
d="M1344 719c0 -200.667 -55.667 -370 -167 -508c-120 -149.333 -277.333 -224 -472 -224c-197.333 0 -356 76 -476 228c-110 139.333 -165 310 -165 512c0 204 54.667 376 164 516c119.333 153.333 278.333 230 477 230c200.667 0 360 -77.333 478 -232
c107.333 -140.667 161 -314.667 161 -522zM1153 737c0 160 -33.667 291.999 -101 395.999c-80 122.667 -195.667 184 -347 184c-150.667 0 -266.334 -62.667 -347.001 -188c-68 -106 -102 -238.667 -102 -398c0 -161.333 33.667 -294.666 101 -399.999
c79.333 -124.667 195.333 -187 348 -187c150.667 0 266.334 63.667 347.001 191c67.333 107.333 101 241.333 101 402zM928 1764c0 -32 -22.333 -57.333 -67 -76l-240 -101c-16 -6.66699 -38 -10 -66 -10c-20 0 -38.167 7 -54.5 21s-24.5 31 -24.5 51
c0 36.667 26.333 66 79 88l242 98c13.333 5.33301 29 8 47 8c22 0 41.5 -7.83301 58.5 -23.5s25.5 -34.167 25.5 -55.5z" />
    <glyph glyph-name="Ocircumflex" unicode="&#xd4;" horiz-adv-x="1401" 
d="M1344 719c0 -200.667 -55.667 -370 -167 -508c-120 -149.333 -277.333 -224 -472 -224c-197.333 0 -356 76 -476 228c-110 139.333 -165 310 -165 512c0 204 54.667 376 164 516c119.333 153.333 278.333 230 477 230c200.667 0 360 -77.333 478 -232
c107.333 -140.667 161 -314.667 161 -522zM1153 737c0 160 -33.667 291.999 -101 395.999c-80 122.667 -195.667 184 -347 184c-150.667 0 -266.334 -62.667 -347.001 -188c-68 -106 -102 -238.667 -102 -398c0 -161.333 33.667 -294.666 101 -399.999
c79.333 -124.667 195.333 -187 348 -187c150.667 0 266.334 63.667 347.001 191c67.333 107.333 101 241.333 101 402zM1026 1641c0 -49.333 -25.333 -74 -76 -74c-12.667 0 -94 30.667 -244 92c-156.667 -61.333 -240.667 -92 -252 -92c-46.667 0 -70 24.667 -70 74
c0 39.333 16.333 66 49 80l273 115l266 -115c36 -16 54 -42.667 54 -80z" />
    <glyph glyph-name="Otilde" unicode="&#xd5;" horiz-adv-x="1401" 
d="M1344 719c0 -200.667 -55.667 -370 -167 -508c-120 -149.333 -277.333 -224 -472 -224c-197.333 0 -356 76 -476 228c-110 139.333 -165 310 -165 512c0 204 54.667 376 164 516c119.333 153.333 278.333 230 477 230c200.667 0 360 -77.333 478 -232
c107.333 -140.667 161 -314.667 161 -522zM1153 737c0 160 -33.667 291.999 -101 395.999c-80 122.667 -195.667 184 -347 184c-150.667 0 -266.334 -62.667 -347.001 -188c-68 -106 -102 -238.667 -102 -398c0 -161.333 33.667 -294.666 101 -399.999
c79.333 -124.667 195.333 -187 348 -187c150.667 0 266.334 63.667 347.001 191c67.333 107.333 101 241.333 101 402zM1004 1721c0 -43.333 -23 -77.333 -69 -102c-36 -18.667 -78.333 -29 -127 -31c-6 2.66699 -12.333 4 -19 4c-22 0 -54.667 6.16699 -98 18.5
s-76 18.5 -98 18.5c-16.667 0 -60 -13.667 -130 -41c-42 20 -63 46.667 -63 80c0 86 60 129 180 129c27.333 0 65 -6 113 -18c63.333 -15.333 100.333 -23 111 -23c12.667 0 34 6.83301 64 20.5s53 20.5 69 20.5c18.667 0 34.5 -7.83301 47.5 -23.5s19.5 -33.167 19.5 -52.5
z" />
    <glyph glyph-name="Odieresis" unicode="&#xd6;" horiz-adv-x="1401" 
d="M1344 719c0 -200.667 -55.667 -370 -167 -508c-120 -149.333 -277.333 -224 -472 -224c-197.333 0 -356 76 -476 228c-110 139.333 -165 310 -165 512c0 204 54.667 376 164 516c119.333 153.333 278.333 230 477 230c200.667 0 360 -77.333 478 -232
c107.333 -140.667 161 -314.667 161 -522zM1153 737c0 160 -33.667 291.999 -101 395.999c-80 122.667 -195.667 184 -347 184c-150.667 0 -266.334 -62.667 -347.001 -188c-68 -106 -102 -238.667 -102 -398c0 -161.333 33.667 -294.666 101 -399.999
c79.333 -124.667 195.333 -187 348 -187c150.667 0 266.334 63.667 347.001 191c67.333 107.333 101 241.333 101 402zM1008 1676c0 -30.667 -11.002 -56.5 -33.002 -77.5s-48.333 -31.5 -79 -31.5c-31.333 0 -57.666 10.333 -78.999 31s-32 46.667 -32 78
c0 32 10.333 58.667 31 80s47.334 32 80.001 32c32 0 58.667 -10.667 80 -32s32 -48 32 -80zM624.998 1676c0 -30.667 -10.499 -56.5 -31.499 -77.5s-46.5 -31.5 -76.5 -31.5c-31.333 0 -58 10.333 -80 31s-33 46.667 -33 78c0 32 10.667 58.667 32 80s48.333 32 81 32
c31.333 0 57.166 -10.833 77.499 -32.5s30.5 -48.167 30.5 -79.5z" />
    <glyph glyph-name="Oslash" unicode="&#xd8;" horiz-adv-x="1401" 
d="M1364 1428c0 -13.333 -5.33301 -26.333 -16 -39l-148 -172c96 -138 144 -305.333 144 -502c0 -198.667 -56 -367 -168 -505c-120.667 -148.667 -277.667 -223 -471 -223c-161.333 0 -300 55 -416 165l-125 -148c-20.667 -24.667 -44.667 -37 -72 -37
c-36.667 0 -55 19.333 -55 58c0 16.667 7.66699 33.667 23 51l145 168c-94 138.667 -141 299.667 -141 483c0 204 54.667 376 164 516c119.333 153.333 278.333 230 477 230c162.667 0 299.667 -54.667 411 -164l127 151c16 19.333 35.333 29 58 29c42 0 63 -20.333 63 -61z
M1008 1184c-80.667 88.667 -181.666 133 -302.999 133c-150.667 0 -266.334 -62.667 -347.001 -188c-68 -106 -102 -238.667 -102 -398c0 -130 22.667 -244.667 68 -344zM1153 731c0 130.667 -24.333 244.001 -73 340.001l-684 -794c76.667 -88.667 179.667 -133 309 -133
c128 0 233.667 49.333 317 148c87.333 103.333 131 249.666 131 438.999z" />
    <glyph glyph-name="Ugrave" unicode="&#xd9;" horiz-adv-x="1364" 
d="M1247 563c0 -183.333 -46.333 -324.332 -139 -422.999c-95.333 -102 -234 -153 -416 -153c-183.333 0 -324.333 49.333 -423 148s-148 240 -148 424v822c0 61.333 29.333 92 88 92c60 0 90 -30.667 90 -92v-877c0 -114 37 -203.333 111 -268c70 -62 163 -93 279 -93
c112.667 0 203.667 32 273 96c72.667 65.333 109 153.666 109 264.999v877c0 61.333 28 92 84 92c61.333 0 92 -30.667 92 -92v-818zM916 1649c0 -50.667 -29.332 -76 -87.999 -76c-4.66699 0 -20.334 3.33301 -47.001 10l-260 105c-43.333 17.333 -65 42.666 -65 75.999
c0 22.667 8.66699 42.334 26 59.001s38 25 62 25c14 0 24.667 -1.66699 32 -5l273 -114c44.667 -19.333 67 -46 67 -80z" />
    <glyph glyph-name="Uacute" unicode="&#xda;" horiz-adv-x="1364" 
d="M1247 563c0 -183.333 -46.333 -324.332 -139 -422.999c-95.333 -102 -234 -153 -416 -153c-183.333 0 -324.333 49.333 -423 148s-148 240 -148 424v822c0 61.333 29.333 92 88 92c60 0 90 -30.667 90 -92v-877c0 -114 37 -203.333 111 -268c70 -62 163 -93 279 -93
c112.667 0 203.667 32 273 96c72.667 65.333 109 153.666 109 264.999v877c0 61.333 28 92 84 92c61.333 0 92 -30.667 92 -92v-818zM933 1764c0 -32 -22.333 -57.333 -67 -76l-240 -101c-16 -6.66699 -38 -10 -66 -10c-20 0 -38.167 7 -54.5 21s-24.5 31 -24.5 51
c0 36.667 26.333 66 79 88l242 98c13.333 5.33301 29 8 47 8c22 0 41.5 -7.83301 58.5 -23.5s25.5 -34.167 25.5 -55.5z" />
    <glyph glyph-name="Ucircumflex" unicode="&#xdb;" horiz-adv-x="1364" 
d="M1247 563c0 -183.333 -46.333 -324.332 -139 -422.999c-95.333 -102 -234 -153 -416 -153c-183.333 0 -324.333 49.333 -423 148s-148 240 -148 424v822c0 61.333 29.333 92 88 92c60 0 90 -30.667 90 -92v-877c0 -114 37 -203.333 111 -268c70 -62 163 -93 279 -93
c112.667 0 203.667 32 273 96c72.667 65.333 109 153.666 109 264.999v877c0 61.333 28 92 84 92c61.333 0 92 -30.667 92 -92v-818zM1000 1641c0 -49.333 -25.333 -74 -76 -74c-12.667 0 -94 30.667 -244 92c-156.667 -61.333 -240.667 -92 -252 -92
c-46.667 0 -70 24.667 -70 74c0 39.333 16.333 66 49 80l273 115l266 -115c36 -16 54 -42.667 54 -80z" />
    <glyph glyph-name="Udieresis" unicode="&#xdc;" horiz-adv-x="1364" 
d="M1247 563c0 -183.333 -46.333 -324.332 -139 -422.999c-95.333 -102 -234 -153 -416 -153c-183.333 0 -324.333 49.333 -423 148s-148 240 -148 424v822c0 61.333 29.333 92 88 92c60 0 90 -30.667 90 -92v-877c0 -114 37 -203.333 111 -268c70 -62 163 -93 279 -93
c112.667 0 203.667 32 273 96c72.667 65.333 109 153.666 109 264.999v877c0 61.333 28 92 84 92c61.333 0 92 -30.667 92 -92v-818zM987 1676c0 -30.667 -11.002 -56.5 -33.002 -77.5s-48.333 -31.5 -79 -31.5c-31.333 0 -57.666 10.333 -78.999 31s-32 46.667 -32 78
c0 32 10.333 58.667 31 80s47.334 32 80.001 32c32 0 58.667 -10.667 80 -32s32 -48 32 -80zM603.998 1676c0 -30.667 -10.499 -56.5 -31.499 -77.5s-46.5 -31.5 -76.5 -31.5c-31.333 0 -58 10.333 -80 31s-33 46.667 -33 78c0 32 10.667 58.667 32 80s48.333 32 81 32
c31.333 0 57.166 -10.833 77.499 -32.5s30.5 -48.167 30.5 -79.5z" />
    <glyph glyph-name="Yacute" unicode="&#xdd;" horiz-adv-x="987" 
d="M1020 1397c0 -20.667 -5.33203 -39.668 -15.999 -57.001l-400 -652v-604c0 -28 -8.33301 -51.833 -25 -71.5s-39 -29.5 -67 -29.5c-26.667 0 -48.334 10.667 -65.001 32c-15.333 18.667 -23 41.667 -23 69v604l-399 648c-16.667 26 -25 47.667 -25 65
c0 20.667 8.16699 37.834 24.5 51.501s34.833 20.5 55.5 20.5c38.667 0 68 -16.333 88 -49l344 -559l344 555c22 35.333 50 53 84 53c53.333 0 80 -25.333 80 -76zM739.001 1768c0 -32 -22.333 -57.333 -67 -76l-240 -101c-16 -6.66699 -38 -10 -66 -10
c-20 0 -38.167 7 -54.5 21s-24.5 31 -24.5 51c0 36.667 26.333 66 79 88l242 98c13.333 5.33301 29 8 47 8c22 0 41.5 -7.83301 58.5 -23.5s25.5 -34.167 25.5 -55.5z" />
    <glyph glyph-name="Thorn" unicode="&#xde;" horiz-adv-x="1065" 
d="M1045 772c0 -132 -45.666 -241 -136.999 -327c-88.667 -83.333 -199.334 -125 -332.001 -125h-277v-236c0 -70 -30 -105 -90 -105c-27.333 0 -49.333 11 -66 33c-14.667 20 -22 44 -22 72v1293c0 28 7.33301 51.667 22 71c16.667 22 38.667 33 66 33
c60 0 90 -34.667 90 -104v-148h273c192.667 0 331 -75.333 415 -226c38.667 -69.333 58 -146.333 58 -231zM865.001 772c0 93.333 -28.167 167.168 -84.5 221.501s-131.5 81.5 -225.5 81.5h-256v-600h264c87.333 0 159.5 27.667 216.5 83s85.5 126.666 85.5 213.999z" />
    <glyph glyph-name="germandbls" unicode="&#xdf;" horiz-adv-x="1141" 
d="M1037 449c0 -119.333 -37.667 -224.664 -113 -315.997c-79.333 -97.333 -177.333 -146 -294 -146c-78.667 0 -118 31 -118 93c0 42 26.667 64.667 80 68c105.333 6 173.666 38.833 204.999 98.5s47 132.5 47 218.5c0 83.333 -19.667 151.666 -59 204.999
c-43.333 57.333 -105 90 -185 98c-64 6 -96 32.667 -96 80c0 34.667 20.333 58.667 61 72c58.667 20.667 96.667 39 114 55c40.667 39.333 61 107 61 203c0 70 -19.667 128.333 -59 175c-41.333 50 -96.666 75 -165.999 75c-72.667 0 -128 -29.667 -166 -89
c-32 -48.667 -49.333 -112 -52 -190l2 -3v-1074c0 -56.667 -30 -85 -90 -85c-58.667 0 -88 28.333 -88 85v1104c0 118 35.833 215.333 107.5 292s166.167 115 283.5 115c110 0 204.667 -36 284 -108c82.667 -74.667 124 -166.334 124 -275.001
c0 -148 -52 -259.667 -156 -335c90 -25.333 159 -78.333 207 -159c44 -72.667 66 -158.334 66 -257.001z" />
    <glyph glyph-name="agrave" unicode="&#xe0;" horiz-adv-x="1141" 
d="M1020 80c0 -62 -27.999 -93 -83.999 -93c-44 0 -70.667 18.333 -80 55c-2.66699 10 -4 46.667 -4 110h-4c-79.333 -110 -176.666 -165 -291.999 -165c-86.667 0 -167.667 23 -243 69c-160.667 97.333 -241 259 -241 485c0 238.667 83.333 405.667 250 501
c72 41.333 145 62 219 62c119.333 0 221.666 -49 306.999 -147h4c0 48 2.66699 80.333 8 97c11.333 33.333 36.666 50 75.999 50c56 0 84 -30.667 84 -92v-932zM848.001 545c0 110 -21.667 200.999 -65 272.999c-52.667 86.667 -130.667 130 -234 130
c-102 0 -179.333 -45 -232 -135c-43.333 -73.333 -65 -164.666 -65 -273.999c0 -104 22 -192.333 66 -265c52 -86.667 126.333 -130 223 -130c108 0 188.333 41.667 241 125c44 69.333 66 161.333 66 276zM796.001 1329c0 -50.667 -29.332 -76 -87.999 -76
c-4.66699 0 -20.334 3.33301 -47.001 10l-260 105c-43.333 17.333 -65 42.666 -65 75.999c0 22.667 8.66699 42.334 26 59.001s38 25 62 25c14 0 24.667 -1.66699 32 -5l273 -114c44.667 -19.333 67 -46 67 -80z" />
    <glyph glyph-name="aacute" unicode="&#xe1;" horiz-adv-x="1141" 
d="M1020 80c0 -62 -27.999 -93 -83.999 -93c-44 0 -70.667 18.333 -80 55c-2.66699 10 -4 46.667 -4 110h-4c-79.333 -110 -176.666 -165 -291.999 -165c-86.667 0 -167.667 23 -243 69c-160.667 97.333 -241 259 -241 485c0 238.667 83.333 405.667 250 501
c72 41.333 145 62 219 62c119.333 0 221.666 -49 306.999 -147h4c0 48 2.66699 80.333 8 97c11.333 33.333 36.666 50 75.999 50c56 0 84 -30.667 84 -92v-932zM848.001 545c0 110 -21.667 200.999 -65 272.999c-52.667 86.667 -130.667 130 -234 130
c-102 0 -179.333 -45 -232 -135c-43.333 -73.333 -65 -164.666 -65 -273.999c0 -104 22 -192.333 66 -265c52 -86.667 126.333 -130 223 -130c108 0 188.333 41.667 241 125c44 69.333 66 161.333 66 276zM792.001 1436c0 -32 -22.333 -57.333 -67 -76l-240 -101
c-16 -6.66699 -38 -10 -66 -10c-20 0 -38.167 7 -54.5 21s-24.5 31 -24.5 51c0 36.667 26.333 66 79 88l242 98c13.333 5.33301 29 8 47 8c22 0 41.5 -7.83301 58.5 -23.5s25.5 -34.167 25.5 -55.5z" />
    <glyph glyph-name="acircumflex" unicode="&#xe2;" horiz-adv-x="1141" 
d="M1020 80c0 -62 -27.999 -93 -83.999 -93c-44 0 -70.667 18.333 -80 55c-2.66699 10 -4 46.667 -4 110h-4c-79.333 -110 -176.666 -165 -291.999 -165c-86.667 0 -167.667 23 -243 69c-160.667 97.333 -241 259 -241 485c0 238.667 83.333 405.667 250 501
c72 41.333 145 62 219 62c119.333 0 221.666 -49 306.999 -147h4c0 48 2.66699 80.333 8 97c11.333 33.333 36.666 50 75.999 50c56 0 84 -30.667 84 -92v-932zM848.001 545c0 110 -21.667 200.999 -65 272.999c-52.667 86.667 -130.667 130 -234 130
c-102 0 -179.333 -45 -232 -135c-43.333 -73.333 -65 -164.666 -65 -273.999c0 -104 22 -192.333 66 -265c52 -86.667 126.333 -130 223 -130c108 0 188.333 41.667 241 125c44 69.333 66 161.333 66 276zM890.001 1313c0 -49.333 -25.333 -74 -76 -74
c-12.667 0 -94 30.667 -244 92c-156.667 -61.333 -240.667 -92 -252 -92c-46.667 0 -70 24.667 -70 74c0 39.333 16.333 66 49 80l273 115l266 -115c36 -16 54 -42.667 54 -80z" />
    <glyph glyph-name="atilde" unicode="&#xe3;" horiz-adv-x="1141" 
d="M1020 80c0 -62 -27.999 -93 -83.999 -93c-44 0 -70.667 18.333 -80 55c-2.66699 10 -4 46.667 -4 110h-4c-79.333 -110 -176.666 -165 -291.999 -165c-86.667 0 -167.667 23 -243 69c-160.667 97.333 -241 259 -241 485c0 238.667 83.333 405.667 250 501
c72 41.333 145 62 219 62c119.333 0 221.666 -49 306.999 -147h4c0 48 2.66699 80.333 8 97c11.333 33.333 36.666 50 75.999 50c56 0 84 -30.667 84 -92v-932zM848.001 545c0 110 -21.667 200.999 -65 272.999c-52.667 86.667 -130.667 130 -234 130
c-102 0 -179.333 -45 -232 -135c-43.333 -73.333 -65 -164.666 -65 -273.999c0 -104 22 -192.333 66 -265c52 -86.667 126.333 -130 223 -130c108 0 188.333 41.667 241 125c44 69.333 66 161.333 66 276zM877.001 1393c0 -43.333 -23 -77.333 -69 -102
c-36 -18.667 -78.333 -29 -127 -31c-6 2.66699 -12.333 4 -19 4c-22 0 -54.667 6.16699 -98 18.5s-76 18.5 -98 18.5c-16.667 0 -60 -13.667 -130 -41c-42 20 -63 46.667 -63 80c0 86 60 129 180 129c27.333 0 65 -6 113 -18c63.333 -15.333 100.333 -23 111 -23
c12.667 0 34 6.83301 64 20.5s53 20.5 69 20.5c18.667 0 34.5 -7.83301 47.5 -23.5s19.5 -33.167 19.5 -52.5z" />
    <glyph glyph-name="adieresis" unicode="&#xe4;" horiz-adv-x="1141" 
d="M1020 80c0 -62 -27.999 -93 -83.999 -93c-44 0 -70.667 18.333 -80 55c-2.66699 10 -4 46.667 -4 110h-4c-79.333 -110 -176.666 -165 -291.999 -165c-86.667 0 -167.667 23 -243 69c-160.667 97.333 -241 259 -241 485c0 238.667 83.333 405.667 250 501
c72 41.333 145 62 219 62c119.333 0 221.666 -49 306.999 -147h4c0 48 2.66699 80.333 8 97c11.333 33.333 36.666 50 75.999 50c56 0 84 -30.667 84 -92v-932zM848.001 545c0 110 -21.667 200.999 -65 272.999c-52.667 86.667 -130.667 130 -234 130
c-102 0 -179.333 -45 -232 -135c-43.333 -73.333 -65 -164.666 -65 -273.999c0 -104 22 -192.333 66 -265c52 -86.667 126.333 -130 223 -130c108 0 188.333 41.667 241 125c44 69.333 66 161.333 66 276zM873.001 1348c0 -30.667 -11.002 -56.5 -33.002 -77.5
s-48.333 -31.5 -79 -31.5c-31.333 0 -57.666 10.333 -78.999 31s-32 46.667 -32 78c0 32 10.333 58.667 31 80s47.334 32 80.001 32c32 0 58.667 -10.667 80 -32s32 -48 32 -80zM489.999 1348c0 -30.667 -10.499 -56.5 -31.499 -77.5s-46.5 -31.5 -76.5 -31.5
c-31.333 0 -58 10.333 -80 31s-33 46.667 -33 78c0 32 10.667 58.667 32 80s48.333 32 81 32c31.333 0 57.166 -10.833 77.499 -32.5s30.5 -48.167 30.5 -79.5z" />
    <glyph glyph-name="aring" unicode="&#xe5;" horiz-adv-x="1141" 
d="M1020 80c0 -62 -27.999 -93 -83.999 -93c-44 0 -70.667 18.333 -80 55c-2.66699 10 -4 46.667 -4 110h-4c-79.333 -110 -176.666 -165 -291.999 -165c-86.667 0 -167.667 23 -243 69c-160.667 97.333 -241 259 -241 485c0 238.667 83.333 405.667 250 501
c72 41.333 145 62 219 62c119.333 0 221.666 -49 306.999 -147h4c0 48 2.66699 80.333 8 97c11.333 33.333 36.666 50 75.999 50c56 0 84 -30.667 84 -92v-932zM848.001 545c0 110 -21.667 200.999 -65 272.999c-52.667 86.667 -130.667 130 -234 130
c-102 0 -179.333 -45 -232 -135c-43.333 -73.333 -65 -164.666 -65 -273.999c0 -104 22 -192.333 66 -265c52 -86.667 126.333 -130 223 -130c108 0 188.333 41.667 241 125c44 69.333 66 161.333 66 276zM765.001 1393c0 -54 -19.002 -99.667 -57.002 -137
s-84 -56 -138 -56c-53.333 0 -98.666 18.833 -135.999 56.5s-56 83.167 -56 136.5s18.5 99 55.5 137s82.5 57 136.5 57c54.667 0 100.834 -18.833 138.501 -56.5s56.5 -83.5 56.5 -137.5zM663.999 1393c0 25.333 -9.16699 47.667 -27.5 67s-40.5 29 -66.5 29
s-47.833 -9.5 -65.5 -28.5s-26.5 -41.5 -26.5 -67.5c0 -26.667 8.66699 -48.667 26 -66s39.333 -26 66 -26s49 8.66699 67 26s27 39.333 27 66z" />
    <glyph glyph-name="ae" unicode="&#xe6;" horiz-adv-x="1821" 
d="M1768 576c0 -67.333 -33.668 -101 -101.001 -101h-663c2.66699 -93.333 33 -170.666 91 -231.999c59.333 -63.333 135.333 -95 228 -95c78 0 163.667 29.333 257 88c14 11.333 35.667 26.333 65 45c10.667 5.33301 22.334 8 35.001 8c43.333 0 65 -25.333 65 -76
c0 -18 -2.66699 -33 -8 -45c-20 -42.667 -73.667 -84.334 -161 -125.001c-79.333 -37.333 -155.333 -56 -228 -56c-148.667 0 -256.667 44.667 -324 134h-4c0 -46 -3 -76.333 -9 -91c-11.333 -28.667 -36.333 -43 -75 -43c-41.333 0 -67.333 19.333 -78 58
c-4 15.333 -6 51 -6 107h-4c-72 -106.667 -173 -160 -303 -160c-192 0 -330 92.667 -414 278c-40 86 -60 178.333 -60 277c0 113.333 23.667 213 71 299c42 77.333 97 138.666 165 183.999c72 49.333 150 74 234 74c120 0 222.333 -49 307 -147h4c0 52 2 84 6 96
c9.33301 31.333 34 47 74 47c40.667 0 66.667 -13.333 78 -40c6.66699 -14.667 10 -45 10 -91h4c30.667 38 73.5 70 128.5 96s107.5 39 157.5 39c130 0 240.333 -56.667 331 -170c84.667 -105.333 127 -224.666 127 -357.999zM1587 613c-1.33301 92.667 -25 169.667 -71 231
c-51.333 69.333 -121.666 104 -210.999 104c-94.667 0 -167.334 -33.333 -218.001 -100c-44 -58.667 -67.667 -137 -71 -235h571zM851.999 537c0 112 -22.332 204.668 -66.999 278.001c-54.667 88.667 -134.667 133 -240 133c-98 0 -173.333 -44 -226 -132
c-44.667 -73.333 -67 -162.333 -67 -267c0 -110 22 -201.333 66 -274c53.333 -87.333 131.666 -131 234.999 -131c100.667 0 177.667 41.667 231 125c45.333 71.333 68 160.666 68 267.999z" />
    <glyph glyph-name="ccedilla" unicode="&#xe7;" horiz-adv-x="908" 
d="M856 965c0 -46.667 -26.666 -72 -79.999 -76c-110 36.667 -181 55 -213 55c-98.667 0 -177 -42.667 -235 -128c-50.667 -74.667 -76 -163.667 -76 -267c0 -102.667 21.333 -190.667 64 -264c50 -87.333 122.333 -134.333 217 -141c6.66699 -0.666992 16.667 -2 30 -4
c33.333 2 63.666 8 90.999 18l64 28c29.333 12.667 50.333 19 63 19c44.667 0 67 -25.333 67 -76c0 -50 -33.333 -87.667 -100 -113c-49.333 -19.333 -104 -29 -164 -29l-51 -75c30.667 5.33301 45 8 43 8c34.667 0 66 -9.66699 94 -29c31.333 -21.333 47 -49.333 47 -84
c0 -117.333 -76.333 -176 -229 -176c-101.333 0 -152 24 -152 72c0 38 15 57 45 57c12 0 29.667 -3.33301 53 -10s41.333 -10 54 -10c47.333 0 71 18.333 71 55c0 27.333 -24.333 41 -73 41s-74.667 13 -78 39c6 24 28.333 64.333 67 121c-195.333 30 -321.333 150 -378 360
c-17.333 62.667 -26 120 -26 172c0 162.667 40.667 296.667 122 402c89.333 116 213 174 371 174c68.667 0 128.667 -8.33301 180 -25c74.667 -24.667 112 -62.667 112 -114z" />
    <glyph glyph-name="egrave" unicode="&#xe8;" horiz-adv-x="1065" 
d="M1012 563c0 -58.667 -33.3311 -87.998 -99.998 -87.998h-680c1.33301 -102 31.5 -182.667 90.5 -242s139.167 -89 240.5 -89c98 0 195.667 37.333 293 112c28.667 22 51.334 33 68.001 33c42 0 63 -25.333 63 -76c0 -61.333 -65.333 -120.333 -196 -177
c-74 -32.667 -153.333 -49 -238 -49c-158 0 -282.667 54.333 -374 163c-85.333 101.333 -129.333 233 -132 395c2.66699 4.66699 4 8 4 10c1.33301 21.333 4.66602 53.666 9.99902 96.999c25.333 160.667 98.666 284.667 219.999 372c73.333 53.333 157.333 80 252 80
c141.333 0 257.666 -55.667 348.999 -167c86.667 -104.667 130 -229.334 130 -374.001zM832.002 613.002c-2 96.667 -27.001 175 -75.001 235c-53.333 66.667 -127 100 -221 100c-95.333 0 -170.333 -33 -225 -99c-49.333 -60 -75.666 -138.667 -78.999 -236h600z
M768.001 1321c0 -50.667 -29.332 -76 -87.999 -76c-4.66699 0 -20.334 3.33301 -47.001 10l-260 105c-43.333 17.333 -65 42.666 -65 75.999c0 22.667 8.66699 42.334 26 59.001s38 25 62 25c14 0 24.667 -1.66699 32 -5l273 -114c44.667 -19.333 67 -46 67 -80z" />
    <glyph glyph-name="eacute" unicode="&#xe9;" horiz-adv-x="1065" 
d="M1012 563c0 -58.667 -33.3311 -87.998 -99.998 -87.998h-680c1.33301 -102 31.5 -182.667 90.5 -242s139.167 -89 240.5 -89c98 0 195.667 37.333 293 112c28.667 22 51.334 33 68.001 33c42 0 63 -25.333 63 -76c0 -61.333 -65.333 -120.333 -196 -177
c-74 -32.667 -153.333 -49 -238 -49c-158 0 -282.667 54.333 -374 163c-85.333 101.333 -129.333 233 -132 395c2.66699 4.66699 4 8 4 10c1.33301 21.333 4.66602 53.666 9.99902 96.999c25.333 160.667 98.666 284.667 219.999 372c73.333 53.333 157.333 80 252 80
c141.333 0 257.666 -55.667 348.999 -167c86.667 -104.667 130 -229.334 130 -374.001zM832.002 613.002c-2 96.667 -27.001 175 -75.001 235c-53.333 66.667 -127 100 -221 100c-95.333 0 -170.333 -33 -225 -99c-49.333 -60 -75.666 -138.667 -78.999 -236h600z
M760.001 1440c0 -32 -22.333 -57.333 -67 -76l-240 -101c-16 -6.66699 -38 -10 -66 -10c-20 0 -38.167 7 -54.5 21s-24.5 31 -24.5 51c0 36.667 26.333 66 79 88l242 98c13.333 5.33301 29 8 47 8c22 0 41.5 -7.83301 58.5 -23.5s25.5 -34.167 25.5 -55.5z" />
    <glyph glyph-name="ecircumflex" unicode="&#xea;" horiz-adv-x="1065" 
d="M1012 563c0 -58.667 -33.3311 -87.998 -99.998 -87.998h-680c1.33301 -102 31.5 -182.667 90.5 -242s139.167 -89 240.5 -89c98 0 195.667 37.333 293 112c28.667 22 51.334 33 68.001 33c42 0 63 -25.333 63 -76c0 -61.333 -65.333 -120.333 -196 -177
c-74 -32.667 -153.333 -49 -238 -49c-158 0 -282.667 54.333 -374 163c-85.333 101.333 -129.333 233 -132 395c2.66699 4.66699 4 8 4 10c1.33301 21.333 4.66602 53.666 9.99902 96.999c25.333 160.667 98.666 284.667 219.999 372c73.333 53.333 157.333 80 252 80
c141.333 0 257.666 -55.667 348.999 -167c86.667 -104.667 130 -229.334 130 -374.001zM832.002 613.002c-2 96.667 -27.001 175 -75.001 235c-53.333 66.667 -127 100 -221 100c-95.333 0 -170.333 -33 -225 -99c-49.333 -60 -75.666 -138.667 -78.999 -236h600z
M865.001 1313c0 -49.333 -25.333 -74 -76 -74c-12.667 0 -94 30.667 -244 92c-156.667 -61.333 -240.667 -92 -252 -92c-46.667 0 -70 24.667 -70 74c0 39.333 16.333 66 49 80l273 115l266 -115c36 -16 54 -42.667 54 -80z" />
    <glyph glyph-name="edieresis" unicode="&#xeb;" horiz-adv-x="1065" 
d="M1012 563c0 -58.667 -33.3311 -87.998 -99.998 -87.998h-680c1.33301 -102 31.5 -182.667 90.5 -242s139.167 -89 240.5 -89c98 0 195.667 37.333 293 112c28.667 22 51.334 33 68.001 33c42 0 63 -25.333 63 -76c0 -61.333 -65.333 -120.333 -196 -177
c-74 -32.667 -153.333 -49 -238 -49c-158 0 -282.667 54.333 -374 163c-85.333 101.333 -129.333 233 -132 395c2.66699 4.66699 4 8 4 10c1.33301 21.333 4.66602 53.666 9.99902 96.999c25.333 160.667 98.666 284.667 219.999 372c73.333 53.333 157.333 80 252 80
c141.333 0 257.666 -55.667 348.999 -167c86.667 -104.667 130 -229.334 130 -374.001zM832.002 613.002c-2 96.667 -27.001 175 -75.001 235c-53.333 66.667 -127 100 -221 100c-95.333 0 -170.333 -33 -225 -99c-49.333 -60 -75.666 -138.667 -78.999 -236h600z
M836.001 1348c0 -30.667 -11.002 -56.5 -33.002 -77.5s-48.333 -31.5 -79 -31.5c-31.333 0 -57.666 10.333 -78.999 31s-32 46.667 -32 78c0 32 10.333 58.667 31 80s47.334 32 80.001 32c32 0 58.667 -10.667 80 -32s32 -48 32 -80zM452.999 1348
c0 -30.667 -10.499 -56.5 -31.499 -77.5s-46.5 -31.5 -76.5 -31.5c-31.333 0 -58 10.333 -80 31s-33 46.667 -33 78c0 32 10.667 58.667 32 80s48.333 32 81 32c31.333 0 57.166 -10.833 77.499 -32.5s30.5 -48.167 30.5 -79.5z" />
    <glyph glyph-name="igrave" unicode="&#xec;" horiz-adv-x="416" 
d="M299 80c0 -62 -30 -93 -90 -93c-58.667 0 -88 31 -88 93v932c0 61.333 29.333 92 88 92c60 0 90 -32 90 -96v-928zM436 1325c0 -50.667 -29.332 -76 -87.999 -76c-4.66699 0 -20.334 3.33301 -47.001 10l-260 105c-43.333 17.333 -65 42.666 -65 75.999
c0 22.667 8.66699 42.334 26 59.001s38 25 62 25c14 0 24.667 -1.66699 32 -5l273 -114c44.667 -19.333 67 -46 67 -80z" />
    <glyph glyph-name="iacute" unicode="&#xed;" horiz-adv-x="416" 
d="M299 80c0 -62 -30 -93 -90 -93c-58.667 0 -88 31 -88 93v932c0 61.333 29.333 92 88 92c60 0 90 -32 90 -96v-928zM428 1436c0 -32 -22.333 -57.333 -67 -76l-240 -101c-16 -6.66699 -38 -10 -66 -10c-20 0 -38.167 7 -54.5 21s-24.5 31 -24.5 51
c0 36.667 26.333 66 79 88l242 98c13.333 5.33301 29 8 47 8c22 0 41.5 -7.83301 58.5 -23.5s25.5 -34.167 25.5 -55.5z" />
    <glyph glyph-name="icircumflex" unicode="&#xee;" horiz-adv-x="416" 
d="M299 80c0 -62 -30 -93 -90 -93c-58.667 0 -88 31 -88 93v932c0 61.333 29.333 92 88 92c60 0 90 -32 90 -96v-928zM533 1313c0 -49.333 -25.333 -74 -76 -74c-12.667 0 -94 30.667 -244 92c-156.667 -61.333 -240.667 -92 -252 -92c-46.667 0 -70 24.667 -70 74
c0 39.333 16.333 66 49 80l273 115l266 -115c36 -16 54 -42.667 54 -80z" />
    <glyph glyph-name="idieresis" unicode="&#xef;" horiz-adv-x="416" 
d="M299 80c0 -62 -30 -93 -90 -93c-58.667 0 -88 31 -88 93v932c0 61.333 29.333 92 88 92c60 0 90 -32 90 -96v-928zM516 1348c0 -30.667 -11.002 -56.5 -33.002 -77.5s-48.333 -31.5 -79 -31.5c-31.333 0 -57.666 10.333 -78.999 31s-32 46.667 -32 78
c0 32 10.333 58.667 31 80s47.334 32 80.001 32c32 0 58.667 -10.667 80 -32s32 -48 32 -80zM132.998 1348c0 -30.667 -10.499 -56.5 -31.499 -77.5s-46.5 -31.5 -76.5 -31.5c-31.333 0 -58 10.333 -80 31s-33 46.667 -33 78c0 32 10.667 58.667 32 80s48.333 32 81 32
c31.333 0 57.166 -10.833 77.499 -32.5s30.5 -48.167 30.5 -79.5z" />
    <glyph glyph-name="eth" unicode="&#xf0;" 
d="M1032 613c0 -181.333 -35.998 -326.335 -107.998 -435.002c-84.667 -127.333 -212.334 -191 -383.001 -191c-143.333 0 -259.333 57.333 -348 172c-80.667 104.667 -121 230.667 -121 378c0 148.667 40 275.667 120 381c88 116 204.333 174 349 174
c109.333 0 194.666 -41 255.999 -123l4 4c-43.333 114 -126 223.333 -248 328l-176 -84c-20.667 -10 -42.334 -17 -65.001 -21c-18.667 3.33301 -34.667 20.333 -48 51c4.66699 26.667 16.334 44.667 35.001 54l162 76c-14.667 10.667 -45.667 26.667 -93 48
c-42.667 18.667 -70.667 35.334 -84 50.001c-10 10.667 -15 25.667 -15 45c0 42 25 63 75 63c74.667 0 167 -42.333 277 -127c146.667 75.333 228 113 244 113c34 0 51 -16.333 51 -49c0 -26.667 -14.333 -46.667 -43 -60l-160 -75
c212.667 -187.333 319 -444.666 319 -771.999zM852.002 536.998c0 104 -23.334 192.666 -70.001 265.999c-54 86 -130.333 129 -229 129c-99.333 0 -176.333 -42.667 -231 -128c-46.667 -72.667 -70 -161.667 -70 -267c0 -104 23.667 -192.667 71 -266
c54.667 -84.667 131.334 -127 230.001 -127s175 42.333 229 127c46.667 72.667 70 161.334 70 266.001z" />
    <glyph glyph-name="ntilde" unicode="&#xf1;" 
d="M983 80c0 -58.667 -30.002 -88.001 -90.002 -88.001c-58.667 0 -88 29.333 -88 88v604c0 76 -23.167 138.333 -69.5 187s-107.166 73 -182.499 73c-76.667 0 -138.167 -24.667 -184.5 -74s-69.5 -112.666 -69.5 -189.999v-600c0 -64.667 -28.667 -97 -86 -97
c-26.667 0 -48.667 9.33301 -66 28s-26 41.667 -26 69v928c0 64 29.333 96 88 96c41.333 0 68 -14.333 80 -43c6.66699 -16 10 -48 10 -96l4 -4c72.667 95.333 171.667 143 297 143c120.667 0 215.334 -39.667 284.001 -119c66 -76 99 -175 99 -297v-608zM855.998 1393
c0 -43.333 -23 -77.333 -69 -102c-36 -18.667 -78.333 -29 -127 -31c-6 2.66699 -12.333 4 -19 4c-22 0 -54.667 6.16699 -98 18.5s-76 18.5 -98 18.5c-16.667 0 -60 -13.667 -130 -41c-42 20 -63 46.667 -63 80c0 86 60 129 180 129c27.333 0 65 -6 113 -18
c63.333 -15.333 100.333 -23 111 -23c12.667 0 34 6.83301 64 20.5s53 20.5 69 20.5c18.667 0 34.5 -7.83301 47.5 -23.5s19.5 -33.167 19.5 -52.5z" />
    <glyph glyph-name="ograve" unicode="&#xf2;" 
d="M1032 545c0 -218.667 -75 -379.332 -225 -481.999c-73.333 -50.667 -158 -76 -254 -76c-150 0 -269.667 56.667 -359 170c-81.333 104 -122 233.333 -122 388c0 223.333 77.667 385.666 233 486.999c74 48 156.667 72 248 72c146 0 264 -58 354 -174
c83.333 -106.667 125 -235 125 -385zM852 551.002c0 106.667 -22.667 196.333 -68 269c-54 85.333 -131 128 -231 128c-103.333 0 -181.333 -43.333 -234 -130c-44.667 -72 -67 -163 -67 -273c0 -107.333 22 -197.333 66 -270c53.333 -87.333 130.333 -131 231 -131
c104.667 0 183.667 43.333 237 130c44 72 66 164.333 66 277zM788 1317c0 -50.667 -29.332 -76 -87.999 -76c-4.66699 0 -20.334 3.33301 -47.001 10l-260 105c-43.333 17.333 -65 42.666 -65 75.999c0 22.667 8.66699 42.334 26 59.001s38 25 62 25
c14 0 24.667 -1.66699 32 -5l273 -114c44.667 -19.333 67 -46 67 -80z" />
    <glyph glyph-name="oacute" unicode="&#xf3;" 
d="M1032 545c0 -218.667 -75 -379.332 -225 -481.999c-73.333 -50.667 -158 -76 -254 -76c-150 0 -269.667 56.667 -359 170c-81.333 104 -122 233.333 -122 388c0 223.333 77.667 385.666 233 486.999c74 48 156.667 72 248 72c146 0 264 -58 354 -174
c83.333 -106.667 125 -235 125 -385zM852 551.002c0 106.667 -22.667 196.333 -68 269c-54 85.333 -131 128 -231 128c-103.333 0 -181.333 -43.333 -234 -130c-44.667 -72 -67 -163 -67 -273c0 -107.333 22 -197.333 66 -270c53.333 -87.333 130.333 -131 231 -131
c104.667 0 183.667 43.333 237 130c44 72 66 164.333 66 277zM780 1440c0 -32 -22.333 -57.333 -67 -76l-240 -101c-16 -6.66699 -38 -10 -66 -10c-20 0 -38.167 7 -54.5 21s-24.5 31 -24.5 51c0 36.667 26.333 66 79 88l242 98c13.333 5.33301 29 8 47 8
c22 0 41.5 -7.83301 58.5 -23.5s25.5 -34.167 25.5 -55.5z" />
    <glyph glyph-name="ocircumflex" unicode="&#xf4;" 
d="M1032 545c0 -218.667 -75 -379.332 -225 -481.999c-73.333 -50.667 -158 -76 -254 -76c-150 0 -269.667 56.667 -359 170c-81.333 104 -122 233.333 -122 388c0 223.333 77.667 385.666 233 486.999c74 48 156.667 72 248 72c146 0 264 -58 354 -174
c83.333 -106.667 125 -235 125 -385zM852 551.002c0 106.667 -22.667 196.333 -68 269c-54 85.333 -131 128 -231 128c-103.333 0 -181.333 -43.333 -234 -130c-44.667 -72 -67 -163 -67 -273c0 -107.333 22 -197.333 66 -270c53.333 -87.333 130.333 -131 231 -131
c104.667 0 183.667 43.333 237 130c44 72 66 164.333 66 277zM875 1313c0 -49.333 -25.333 -74 -76 -74c-12.667 0 -94 30.667 -244 92c-156.667 -61.333 -240.667 -92 -252 -92c-46.667 0 -70 24.667 -70 74c0 39.333 16.333 66 49 80l273 115l266 -115
c36 -16 54 -42.667 54 -80z" />
    <glyph glyph-name="otilde" unicode="&#xf5;" 
d="M1032 545c0 -218.667 -75 -379.332 -225 -481.999c-73.333 -50.667 -158 -76 -254 -76c-150 0 -269.667 56.667 -359 170c-81.333 104 -122 233.333 -122 388c0 223.333 77.667 385.666 233 486.999c74 48 156.667 72 248 72c146 0 264 -58 354 -174
c83.333 -106.667 125 -235 125 -385zM852 551.002c0 106.667 -22.667 196.333 -68 269c-54 85.333 -131 128 -231 128c-103.333 0 -181.333 -43.333 -234 -130c-44.667 -72 -67 -163 -67 -273c0 -107.333 22 -197.333 66 -270c53.333 -87.333 130.333 -131 231 -131
c104.667 0 183.667 43.333 237 130c44 72 66 164.333 66 277zM848 1397c0 -43.333 -23 -77.333 -69 -102c-36 -18.667 -78.333 -29 -127 -31c-6 2.66699 -12.333 4 -19 4c-22 0 -54.667 6.16699 -98 18.5s-76 18.5 -98 18.5c-16.667 0 -60 -13.667 -130 -41
c-42 20 -63 46.667 -63 80c0 86 60 129 180 129c27.333 0 65 -6 113 -18c63.333 -15.333 100.333 -23 111 -23c12.667 0 34 6.83301 64 20.5s53 20.5 69 20.5c18.667 0 34.5 -7.83301 47.5 -23.5s19.5 -33.167 19.5 -52.5z" />
    <glyph glyph-name="odieresis" unicode="&#xf6;" 
d="M1032 545c0 -218.667 -75 -379.332 -225 -481.999c-73.333 -50.667 -158 -76 -254 -76c-150 0 -269.667 56.667 -359 170c-81.333 104 -122 233.333 -122 388c0 223.333 77.667 385.666 233 486.999c74 48 156.667 72 248 72c146 0 264 -58 354 -174
c83.333 -106.667 125 -235 125 -385zM852 551.002c0 106.667 -22.667 196.333 -68 269c-54 85.333 -131 128 -231 128c-103.333 0 -181.333 -43.333 -234 -130c-44.667 -72 -67 -163 -67 -273c0 -107.333 22 -197.333 66 -270c53.333 -87.333 130.333 -131 231 -131
c104.667 0 183.667 43.333 237 130c44 72 66 164.333 66 277zM856 1352c0 -30.667 -11.002 -56.5 -33.002 -77.5s-48.333 -31.5 -79 -31.5c-31.333 0 -57.666 10.333 -78.999 31s-32 46.667 -32 78c0 32 10.333 58.667 31 80s47.334 32 80.001 32
c32 0 58.667 -10.667 80 -32s32 -48 32 -80zM472.998 1352c0 -30.667 -10.499 -56.5 -31.499 -77.5s-46.5 -31.5 -76.5 -31.5c-31.333 0 -58 10.333 -80 31s-33 46.667 -33 78c0 32 10.667 58.667 32 80s48.333 32 81 32c31.333 0 57.166 -10.833 77.499 -32.5
s30.5 -48.167 30.5 -79.5z" />
    <glyph glyph-name="oslash" unicode="&#xf8;" 
d="M1057 1080c0 -15.333 -6.66602 -31.334 -19.999 -48.001l-109 -133c69.333 -98.667 104 -218 104 -358c0 -150 -41.667 -277.667 -125 -383c-90 -114 -208 -171 -354 -171c-112.667 0 -210.334 35 -293.001 105l-92 -109c-17.333 -20 -37 -30 -59 -30
c-16.667 0 -31.667 5 -45 15c-15.333 10.667 -23 24 -23 40c0 15.333 45 77 135 185c-69.333 88.667 -104 203.334 -104 344.001c0 222 74.333 385.333 223 490c73.333 51.333 160 77 260 77c122.667 0 219 -36 289 -108l88 108c20 24.667 39.667 37 59 37
c16 0 31 -6.33301 45 -19s21 -26.667 21 -42zM740.001 872.999c-51.333 50 -113.668 75 -187.001 75c-185.333 0 -285.666 -129.667 -300.999 -389c-0.666992 -11.333 -2 -20 -4 -26c5.33301 -84 20.333 -151 45 -201zM851.999 550.999c0 72 -14.333 140.333 -43 205
l-444 -537c50 -50 113.333 -75 190 -75c100.667 0 177.667 44.667 231 134c44 74 66 165 66 273z" />
    <glyph glyph-name="ugrave" unicode="&#xf9;" 
d="M983 412c0 -134 -39.5 -238.333 -118.5 -313s-185.5 -112 -319.5 -112c-132 0 -235.667 37.667 -311 113s-113 179.333 -113 312v600c0 61.333 29.333 92 88 92c60 0 90 -30.667 90 -92v-596c0 -181.333 83.333 -272 250 -272c170.667 0 256 90.667 256 272v596
c0 61.333 29.333 92 88 92c60 0 90 -30.667 90 -92v-600zM784 1317c0 -50.667 -29.332 -76 -87.999 -76c-4.66699 0 -20.334 3.33301 -47.001 10l-260 105c-43.333 17.333 -65 42.666 -65 75.999c0 22.667 8.66699 42.334 26 59.001s38 25 62 25c14 0 24.667 -1.66699 32 -5
l273 -114c44.667 -19.333 67 -46 67 -80z" />
    <glyph glyph-name="uacute" unicode="&#xfa;" 
d="M983 412c0 -134 -39.5 -238.333 -118.5 -313s-185.5 -112 -319.5 -112c-132 0 -235.667 37.667 -311 113s-113 179.333 -113 312v600c0 61.333 29.333 92 88 92c60 0 90 -30.667 90 -92v-596c0 -181.333 83.333 -272 250 -272c170.667 0 256 90.667 256 272v596
c0 61.333 29.333 92 88 92c60 0 90 -30.667 90 -92v-600zM789 1432c0 -32 -22.333 -57.333 -67 -76l-240 -101c-16 -6.66699 -38 -10 -66 -10c-20 0 -38.167 7 -54.5 21s-24.5 31 -24.5 51c0 36.667 26.333 66 79 88l242 98c13.333 5.33301 29 8 47 8
c22 0 41.5 -7.83301 58.5 -23.5s25.5 -34.167 25.5 -55.5z" />
    <glyph glyph-name="ucircumflex" unicode="&#xfb;" 
d="M983 412c0 -134 -39.5 -238.333 -118.5 -313s-185.5 -112 -319.5 -112c-132 0 -235.667 37.667 -311 113s-113 179.333 -113 312v600c0 61.333 29.333 92 88 92c60 0 90 -30.667 90 -92v-596c0 -181.333 83.333 -272 250 -272c170.667 0 256 90.667 256 272v596
c0 61.333 29.333 92 88 92c60 0 90 -30.667 90 -92v-600zM877 1313c0 -49.333 -25.333 -74 -76 -74c-12.667 0 -94 30.667 -244 92c-156.667 -61.333 -240.667 -92 -252 -92c-46.667 0 -70 24.667 -70 74c0 39.333 16.333 66 49 80l273 115l266 -115
c36 -16 54 -42.667 54 -80z" />
    <glyph glyph-name="udieresis" unicode="&#xfc;" 
d="M983 412c0 -134 -39.5 -238.333 -118.5 -313s-185.5 -112 -319.5 -112c-132 0 -235.667 37.667 -311 113s-113 179.333 -113 312v600c0 61.333 29.333 92 88 92c60 0 90 -30.667 90 -92v-596c0 -181.333 83.333 -272 250 -272c170.667 0 256 90.667 256 272v596
c0 61.333 29.333 92 88 92c60 0 90 -30.667 90 -92v-600zM860 1344c0 -30.667 -11.002 -56.5 -33.002 -77.5s-48.333 -31.5 -79 -31.5c-31.333 0 -57.666 10.333 -78.999 31s-32 46.667 -32 78c0 32 10.333 58.667 31 80s47.334 32 80.001 32c32 0 58.667 -10.667 80 -32
s32 -48 32 -80zM476.998 1344c0 -30.667 -10.499 -56.5 -31.499 -77.5s-46.5 -31.5 -76.5 -31.5c-31.333 0 -58 10.333 -80 31s-33 46.667 -33 78c0 32 10.667 58.667 32 80s48.333 32 81 32c31.333 0 57.166 -10.833 77.499 -32.5s30.5 -48.167 30.5 -79.5z" />
    <glyph glyph-name="yacute" unicode="&#xfd;" horiz-adv-x="873" 
d="M877 1016c0 -13.333 -2.66602 -27.667 -7.99902 -43l-473 -1346c-19.333 -53.333 -52.333 -80 -99 -80c-44.667 0 -69.334 28 -74.001 84c2 14 6.33301 33 13 57l133 353l-326 932c-0.666992 2 -4 17.667 -10 47c0 53.333 28 80 84 80c47.333 0 78 -21 92 -63l248 -748h4
l248 752c13.333 42 41.333 63 84 63c56 0 84 -29.333 84 -88zM680.001 1436c0 -32 -22.333 -57.333 -67 -76l-240 -101c-16 -6.66699 -38 -10 -66 -10c-20 0 -38.167 7 -54.5 21s-24.5 31 -24.5 51c0 36.667 26.333 66 79 88l242 98c13.333 5.33301 29 8 47 8
c22 0 41.5 -7.83301 58.5 -23.5s25.5 -34.167 25.5 -55.5z" />
    <glyph glyph-name="thorn" unicode="&#xfe;" horiz-adv-x="1141" 
d="M1067 553c0 -222 -73.667 -385.333 -221 -490c-70 -50.667 -150.667 -76 -242 -76c-122 0 -219.333 49.333 -292 148h-5v-483c0 -72.667 -29.333 -109 -88 -109c-26 0 -47.667 11.333 -65 34c-16.667 20 -25 43.333 -25 70v1842c0 60 28.667 90 86 90
c61.333 0 92 -28.667 92 -86v-536h5c50 98 143 147 279 147c148 0 266 -56 354 -168c81.333 -103.333 122 -231 122 -383zM889 552c0 104 -22.332 192.332 -66.999 264.999c-52.667 87.333 -127.667 131 -225 131c-104.667 0 -184.334 -43.333 -239.001 -130
c-46 -72.667 -69 -164.667 -69 -276c0 -104.667 22.667 -194 68 -268c53.333 -87.333 129 -132 227 -134c4 2 9.33301 3.33301 16 4c100.667 8.66699 176 55 226 139c42 70.667 63 160.334 63 269.001z" />
    <glyph glyph-name="ydieresis" unicode="&#xff;" horiz-adv-x="873" 
d="M877 1016c0 -13.333 -2.66602 -27.667 -7.99902 -43l-473 -1346c-19.333 -53.333 -52.333 -80 -99 -80c-44.667 0 -69.334 28 -74.001 84c2 14 6.33301 33 13 57l133 353l-326 932c-0.666992 2 -4 17.667 -10 47c0 53.333 28 80 84 80c47.333 0 78 -21 92 -63l248 -748h4
l248 752c13.333 42 41.333 63 84 63c56 0 84 -29.333 84 -88zM752.001 1348c0 -30.667 -11.002 -56.5 -33.002 -77.5s-48.333 -31.5 -79 -31.5c-31.333 0 -57.666 10.333 -78.999 31s-32 46.667 -32 78c0 32 10.333 58.667 31 80s47.334 32 80.001 32
c32 0 58.667 -10.667 80 -32s32 -48 32 -80zM368.999 1348c0 -30.667 -10.499 -56.5 -31.499 -77.5s-46.5 -31.5 -76.5 -31.5c-31.333 0 -58 10.333 -80 31s-33 46.667 -33 78c0 32 10.667 58.667 32 80s48.333 32 81 32c31.333 0 57.166 -10.833 77.499 -32.5
s30.5 -48.167 30.5 -79.5z" />
    <glyph glyph-name="glyph226" unicode="&#x102;" horiz-adv-x="1252" 
d="M1237 56c0 -48.667 -28 -72.999 -84 -72.999c-44.667 0 -75.334 22.667 -92.001 68l-96 265h-676l-96 -265c-16 -42.667 -46.667 -64 -92 -64c-56 0 -84 24.333 -84 73c3.33301 16.667 7.33301 33 12 49l471 1259c26.667 72.667 68.334 109 125.001 109
c58 0 100.333 -35 127 -105l477 -1263c5.33301 -14.667 8 -32.334 8 -53.001zM912 471.001l-283 793h-4l-281 -793h568zM896 1756c0 -58.667 -32.333 -107.667 -97 -147c-56 -34.667 -115.333 -52 -178 -52c-93.333 0 -171 32.333 -233 97
c-29.333 30.667 -44 64.667 -44 102c0 50 21.333 75 64 75c14.667 0 38.667 -14 72 -42l70 -60c14 -10.667 37.667 -16 71 -16c41.333 0 83.5 19.667 126.5 59s72.5 59 88.5 59c40 0 60 -25 60 -75z" />
    <glyph glyph-name="glyph227" unicode="&#x103;" horiz-adv-x="1141" 
d="M1020 80c0 -62 -27.999 -93 -83.999 -93c-44 0 -70.667 18.333 -80 55c-2.66699 10 -4 46.667 -4 110h-4c-79.333 -110 -176.666 -165 -291.999 -165c-86.667 0 -167.667 23 -243 69c-160.667 97.333 -241 259 -241 485c0 238.667 83.333 405.667 250 501
c72 41.333 145 62 219 62c119.333 0 221.666 -49 306.999 -147h4c0 48 2.66699 80.333 8 97c11.333 33.333 36.666 50 75.999 50c56 0 84 -30.667 84 -92v-932zM848.001 545c0 110 -21.667 200.999 -65 272.999c-52.667 86.667 -130.667 130 -234 130
c-102 0 -179.333 -45 -232 -135c-43.333 -73.333 -65 -164.666 -65 -273.999c0 -104 22 -192.333 66 -265c52 -86.667 126.333 -130 223 -130c108 0 188.333 41.667 241 125c44 69.333 66 161.333 66 276zM845.001 1428c0 -58.667 -32.333 -107.667 -97 -147
c-56 -34.667 -115.333 -52 -178 -52c-93.333 0 -171 32.333 -233 97c-29.333 30.667 -44 64.667 -44 102c0 50 21.333 75 64 75c14.667 0 38.667 -14 72 -42l70 -60c14 -10.667 37.667 -16 71 -16c41.333 0 83.5 19.667 126.5 59s72.5 59 88.5 59c40 0 60 -25 60 -75z" />
    <glyph glyph-name="Dslash" unicode="&#x110;" horiz-adv-x="1293" 
d="M1229 735c0 -140 -24.668 -267.001 -74.001 -381.001c-103.333 -236 -285.333 -354 -546 -354h-386c-24.667 0 -46 7 -64 21c-20 15.333 -30 35 -30 59v580c-66 0 -102 0.333008 -108 1c-38.667 8 -58 32.667 -58 74c0 40.667 19.667 65.334 59 74.001
c6.66699 1.33301 42.334 2 107.001 2v553c0 64 31.333 96 94 96h369c198.667 0 356.667 -72.667 474 -218c108.667 -134 163 -303 163 -507zM1037 747.999c0 160 -38 289.999 -114 389.999c-84 111.333 -204 167 -360 167h-256v-494h252c56 0 84 -25.333 84 -76
c0 -50 -28 -75 -84 -75h-252v-504h281c104.667 0 199 36.667 283 110c110.667 96.667 166 257.334 166 482.001z" />
    <glyph glyph-name="dcroat" unicode="&#x111;" horiz-adv-x="1141" 
d="M1012 80c0 -62 -30.667 -93.001 -92 -93.001c-24.667 0 -45.5 8.66699 -62.5 26s-25.5 58 -25.5 122h-4c-48.667 -98.667 -142 -148 -280 -148c-148.667 0 -267.334 57.667 -356.001 173c-80.667 104.667 -121 233.667 -121 387c0 146.667 39.667 273.334 119 380.001
c87.333 118 201.666 177 342.999 177c122 0 220.333 -49 295 -147h4v266l-251 1c-56 0 -84 25 -84 75c0 50.667 28 76 84 76h251v118c0 60 29.333 90 88 90c60.667 0 91.334 -31.333 92.001 -94v-114c56.667 0 92.334 -1.66699 107.001 -5c38.667 -9.33301 58 -33 58 -71
s-19.333 -61.667 -58 -71c-14 -3.33301 -49.667 -5 -107 -5v-1143zM852 552.999c0 104 -23.334 192.668 -70.001 266.001c-54 86 -130.333 129 -229 129c-100.667 0 -178 -44.333 -232 -133c-46 -74.667 -69 -165.667 -69 -273c0 -106 22 -195.333 66 -268
c52.667 -87.333 128.334 -131 227.001 -131c104 0 183.333 44.333 238 133c46 73.333 69 165.666 69 276.999z" />
    <glyph glyph-name="glyph228" unicode="&#x128;" horiz-adv-x="416" 
d="M299 88c0 -67.333 -28.667 -101 -86 -101c-61.333 0 -92 32.333 -92 97v1293c0 64 30.667 96 92 96c57.333 0 86 -32 86 -96v-1289zM518 1721c0 -43.333 -23 -77.333 -69 -102c-36 -18.667 -78.333 -29 -127 -31c-6 2.66699 -12.333 4 -19 4
c-22 0 -54.667 6.16699 -98 18.5s-76 18.5 -98 18.5c-16.667 0 -60 -13.667 -130 -41c-42 20 -63 46.667 -63 80c0 86 60 129 180 129c27.333 0 65 -6 113 -18c63.333 -15.333 100.333 -23 111 -23c12.667 0 34 6.83301 64 20.5s53 20.5 69 20.5
c18.667 0 34.5 -7.83301 47.5 -23.5s19.5 -33.167 19.5 -52.5z" />
    <glyph glyph-name="glyph229" unicode="&#x129;" horiz-adv-x="416" 
d="M513 1397c0 -43.333 -23 -77.333 -69 -102c-36 -18.667 -78.333 -29 -127 -31c-6 2.66699 -12.333 4 -19 4c-22 0 -54.667 6.16699 -98 18.5s-76 18.5 -98 18.5c-16.667 0 -60 -13.667 -130 -41c-42 20 -63 46.667 -63 80c0 86 60 129 180 129c27.333 0 65 -6 113 -18
c63.333 -15.333 100.333 -23 111 -23c12.667 0 34 6.83301 64 20.5s53 20.5 69 20.5c18.667 0 34.5 -7.83301 47.5 -23.5s19.5 -33.167 19.5 -52.5zM299 80c0 -62 -30 -93 -90 -93c-58.667 0 -88 31 -88 93v932c0 61.333 29.333 92 88 92c60 0 90 -32 90 -96v-928z" />
    <glyph glyph-name="dotlessi" unicode="&#x131;" horiz-adv-x="416" 
d="M299 80c0 -62 -30 -93 -90 -93c-58.667 0 -88 31 -88 93v932c0 61.333 29.333 92 88 92c60 0 90 -32 90 -96v-928z" />
    <glyph glyph-name="OE" unicode="&#x152;" horiz-adv-x="1897" 
d="M1835 80c0 -53.333 -28.667 -79.999 -86 -79.999h-516c-64 0 -96 33.667 -96 101v112h-4c-48.667 -69.333 -111.334 -124.333 -188.001 -165s-156.667 -61 -240 -61c-197.333 0 -356 75.667 -476 227c-110 140 -165 311 -165 513c0 203.333 54.667 375.333 164 516
c120 153.333 279 230 477 230c161.333 0 305.333 -68.333 432 -205c0 73.333 1.33301 115.666 4 126.999c10.667 43.333 41.334 65 92.001 65h508c53.333 0 80 -27.667 80 -83c0 -56 -30.667 -84 -92 -84h-412v-482h404c52.667 0 79 -28 79 -84s-29.333 -84 -88 -84h-395
v-475h438c53.333 0 80 -29.333 80 -88zM1149 735.001c0 161.333 -33 293.667 -99 397c-78 123.333 -193 185 -345 185s-268 -63 -348 -189c-67.333 -106 -101 -239.667 -101 -401c0 -162.667 34 -296 102 -400c79.333 -122 196.333 -183 351 -183
c151.333 0 266 63.333 344 190c64 106 96 239.667 96 401z" />
    <glyph glyph-name="oe" unicode="&#x153;" horiz-adv-x="1860" 
d="M1805 576c0 -67.333 -33.666 -100.999 -100.999 -100.999h-676c0 -121.333 44.333 -212 133 -272c46 -31.333 92.667 -48.333 140 -51c43.333 -2.66699 64.333 -4 63 -4c92 0 192.333 40.333 301 121c18.667 13.333 35.667 20 51 20c18.667 0 34 -7.83301 46 -23.5
s18 -33.167 18 -52.5c0 -14.667 -2.66699 -28.334 -8 -41.001c-2.66699 -4.66699 -9.33398 -13.667 -20.001 -27c-46.667 -56 -122.334 -99.333 -227.001 -130c-61.333 -18.667 -119 -28 -173 -28c-85.333 0 -163.666 17.667 -234.999 53
c-77.333 37.333 -136.333 91 -177 161c-104 -142.667 -241 -214 -411 -214c-78 0 -154 25 -228 75c-152.667 102 -229 261.667 -229 479c0 238 83.333 404.667 250 500c72.667 42 150.334 63 233.001 63c157.333 0 285.666 -71.667 384.999 -215
c84.667 143.333 216.667 215 396 215c64 0 127 -15.667 189 -47c87.333 -45.333 156.333 -112.333 207 -201c48.667 -86 73 -179.333 73 -280zM1624 613.001c-2.66699 142.667 -51.667 241 -147 295c-47.333 26.667 -97.333 40 -150 40
c-92.667 0 -166.667 -33.333 -222 -100c-51.333 -62.667 -77 -141 -77 -235h596zM848.001 541.001c0 108 -22 199.002 -66 273.002c-53.333 89.333 -130.333 134 -231 134s-177.667 -43.333 -231 -130c-45.333 -72.667 -68 -162.334 -68 -269.001
c0 -108.667 21.667 -199.667 65 -273c52.667 -88 130 -132 232 -132s179.667 42 233 126c44 71.333 66 161.666 66 270.999z" />
    <glyph glyph-name="glyph230" unicode="&#x168;" horiz-adv-x="1364" 
d="M1247 563c0 -183.333 -46.333 -324.332 -139 -422.999c-95.333 -102 -234 -153 -416 -153c-183.333 0 -324.333 49.333 -423 148s-148 240 -148 424v822c0 61.333 29.333 92 88 92c60 0 90 -30.667 90 -92v-877c0 -114 37 -203.333 111 -268c70 -62 163 -93 279 -93
c112.667 0 203.667 32 273 96c72.667 65.333 109 153.666 109 264.999v877c0 61.333 28 92 84 92c61.333 0 92 -30.667 92 -92v-818zM1004 1721c0 -43.333 -23 -77.333 -69 -102c-36 -18.667 -78.333 -29 -127 -31c-6 2.66699 -12.333 4 -19 4
c-22 0 -54.667 6.16699 -98 18.5s-76 18.5 -98 18.5c-16.667 0 -60 -13.667 -130 -41c-42 20 -63 46.667 -63 80c0 86 60 129 180 129c27.333 0 65 -6 113 -18c63.333 -15.333 100.333 -23 111 -23c12.667 0 34 6.83301 64 20.5s53 20.5 69 20.5
c18.667 0 34.5 -7.83301 47.5 -23.5s19.5 -33.167 19.5 -52.5z" />
    <glyph glyph-name="glyph231" unicode="&#x169;" 
d="M983 412c0 -134 -39.5 -238.333 -118.5 -313s-185.5 -112 -319.5 -112c-132 0 -235.667 37.667 -311 113s-113 179.333 -113 312v600c0 61.333 29.333 92 88 92c60 0 90 -30.667 90 -92v-596c0 -181.333 83.333 -272 250 -272c170.667 0 256 90.667 256 272v596
c0 61.333 29.333 92 88 92c60 0 90 -30.667 90 -92v-600zM858 1397c0 -43.333 -23 -77.333 -69 -102c-36 -18.667 -78.333 -29 -127 -31c-6 2.66699 -12.333 4 -19 4c-22 0 -54.667 6.16699 -98 18.5s-76 18.5 -98 18.5c-16.667 0 -60 -13.667 -130 -41
c-42 20 -63 46.667 -63 80c0 86 60 129 180 129c27.333 0 65 -6 113 -18c63.333 -15.333 100.333 -23 111 -23c12.667 0 34 6.83301 64 20.5s53 20.5 69 20.5c18.667 0 34.5 -7.83301 47.5 -23.5s19.5 -33.167 19.5 -52.5z" />
    <glyph glyph-name="florin" unicode="&#x192;" 
d="M957 1493c0 -45.333 -32.999 -70.332 -98.999 -74.999c-80 -6 -131.667 -24 -155 -54c-17.333 -22.667 -31.666 -58.667 -42.999 -108l-64 -273h129c48 0 72 -21 72 -63c0 -42.667 -24 -64 -72 -64h-145l-160 -856c-22 -116.667 -56.667 -202.334 -104 -257.001
c-57.333 -66.667 -141.333 -100 -252 -100c-64.667 0 -97 26.667 -97 80c0 45.333 26.667 68 80 68c61.333 0 110.666 15 147.999 45c34 27.333 61.333 93 82 197l159 823h-129c-50 0 -75 21.333 -75 64c0 42 25 63 75 63h146l63 322c19.333 97.333 59 166 119 206
c53.333 36 132.666 54 237.999 54c56 0 84 -24 84 -72z" />
    <glyph glyph-name="glyph232" unicode="&#x1a0;" horiz-adv-x="1401" 
d="M1344 719c0 -200.667 -55.667 -370 -167 -508c-120 -149.333 -277.333 -224 -472 -224c-197.333 0 -356 76 -476 228c-110 139.333 -165 310 -165 512c0 204 54.667 376 164 516c119.333 153.333 278.333 230 477 230c200.667 0 360 -77.333 478 -232
c107.333 -140.667 161 -314.667 161 -522zM1153 737c0 160 -33.667 291.999 -101 395.999c-80 122.667 -195.667 184 -347 184c-150.667 0 -266.334 -62.667 -347.001 -188c-68 -106 -102 -238.667 -102 -398c0 -161.333 33.667 -294.666 101 -399.999
c79.333 -124.667 195.333 -187 348 -187c150.667 0 266.334 63.667 347.001 191c67.333 107.333 101 241.333 101 402zM1389 1479c0 -23.333 -5.33203 -45.334 -15.999 -66.001l-130 -247c-25.333 -48 -53 -72 -83 -72c-22.667 0 -43.334 9.33301 -62.001 28
c-16.667 16.667 -27 36.667 -31 60c4 20.667 11 40.334 21 59.001l125 250c20.667 42.667 50 64 88 64c58.667 0 88 -25.333 88 -76z" />
    <glyph glyph-name="glyph233" unicode="&#x1a1;" horiz-adv-x="1127" 
d="M1032 545c0 -218.667 -75 -379.332 -225 -481.999c-73.333 -50.667 -158 -76 -254 -76c-150 0 -269.667 56.667 -359 170c-81.333 104 -122 233.333 -122 388c0 223.333 77.667 385.666 233 486.999c74 48 156.667 72 248 72c146 0 264 -58 354 -174
c83.333 -106.667 125 -235 125 -385zM852 551.002c0 106.667 -22.667 196.333 -68 269c-54 85.333 -131 128 -231 128c-103.333 0 -181.333 -43.333 -234 -130c-44.667 -72 -67 -163 -67 -273c0 -107.333 22 -197.333 66 -270c53.333 -87.333 130.333 -131 231 -131
c104.667 0 183.667 43.333 237 130c44 72 66 164.333 66 277zM1143 1106c0 -23.333 -5.33203 -45.334 -15.999 -66.001l-130 -247c-25.333 -48 -53 -72 -83 -72c-22.667 0 -43.334 9.33301 -62.001 28c-16.667 16.667 -27 36.667 -31 60c4 20.667 11 40.334 21 59.001
l125 250c20.667 42.667 50 64 88 64c58.667 0 88 -25.333 88 -76z" />
    <glyph glyph-name="glyph234" unicode="&#x1af;" horiz-adv-x="1420" 
d="M1247 563c0 -183.333 -46.333 -324.332 -139 -422.999c-95.333 -102 -234 -153 -416 -153c-183.333 0 -324.333 49.333 -423 148s-148 240 -148 424v822c0 61.333 29.333 92 88 92c60 0 90 -30.667 90 -92v-877c0 -114 37 -203.333 111 -268c70 -62 163 -93 279 -93
c112.667 0 203.667 32 273 96c72.667 65.333 109 153.666 109 264.999v877c0 61.333 28 92 84 92c61.333 0 92 -30.667 92 -92v-818zM1469 1479c0 -23.333 -5.33203 -45.334 -15.999 -66.001l-130 -247c-25.333 -48 -53 -72 -83 -72c-22.667 0 -43.334 9.33301 -62.001 28
c-16.667 16.667 -27 36.667 -31 60c4 20.667 11 40.334 21 59.001l125 250c20.667 42.667 50 64 88 64c58.667 0 88 -25.333 88 -76z" />
    <glyph glyph-name="glyph235" unicode="&#x1b0;" horiz-adv-x="1160" 
d="M983 412c0 -134 -39.5 -238.333 -118.5 -313s-185.5 -112 -319.5 -112c-132 0 -235.667 37.667 -311 113s-113 179.333 -113 312v600c0 61.333 29.333 92 88 92c60 0 90 -30.667 90 -92v-596c0 -181.333 83.333 -272 250 -272c170.667 0 256 90.667 256 272v596
c0 61.333 29.333 92 88 92c60 0 90 -30.667 90 -92v-600zM1208 1106c0 -23.333 -5.33203 -45.334 -15.999 -66.001l-130 -247c-25.333 -48 -53 -72 -83 -72c-22.667 0 -43.334 9.33301 -62.001 28c-16.667 16.667 -27 36.667 -31 60c4 20.667 11 40.334 21 59.001l125 250
c20.667 42.667 50 64 88 64c58.667 0 88 -25.333 88 -76z" />
    <glyph glyph-name="circumflex" unicode="&#x2c6;" horiz-adv-x="416" 
d="M529 1313c0 -49.333 -25.333 -74 -76 -74c-12.667 0 -94 30.667 -244 92c-156.667 -61.333 -240.667 -92 -252 -92c-46.667 0 -70 24.667 -70 74c0 39.333 16.333 66 49 80l273 115l266 -115c36 -16 54 -42.667 54 -80z" />
    <glyph glyph-name="breve" unicode="&#x2d8;" horiz-adv-x="416" 
d="M484 1428c0 -58.667 -32.333 -107.667 -97 -147c-56 -34.667 -115.333 -52 -178 -52c-93.333 0 -171 32.333 -233 97c-29.333 30.667 -44 64.667 -44 102c0 50 21.333 75 64 75c14.667 0 38.667 -14 72 -42l70 -60c14 -10.667 37.667 -16 71 -16
c41.333 0 83.5 19.667 126.5 59s72.5 59 88.5 59c40 0 60 -25 60 -75z" />
    <glyph glyph-name="ring" unicode="&#x2da;" horiz-adv-x="416" 
d="M404 1389c0 -54 -19.002 -99.667 -57.002 -137s-84 -56 -138 -56c-53.333 0 -98.666 18.833 -135.999 56.5s-56 83.167 -56 136.5s18.5 99 55.5 137s82.5 57 136.5 57c54.667 0 100.834 -18.833 138.501 -56.5s56.5 -83.5 56.5 -137.5zM302.998 1389
c0 25.333 -9.16699 47.667 -27.5 67s-40.5 29 -66.5 29s-47.833 -9.5 -65.5 -28.5s-26.5 -41.5 -26.5 -67.5c0 -26.667 8.66699 -48.667 26 -66s39.333 -26 66 -26s49 8.66699 67 26s27 39.333 27 66z" />
    <glyph glyph-name="tilde" unicode="&#x2dc;" horiz-adv-x="416" 
d="M512 1393c0 -43.333 -23 -77.333 -69 -102c-36 -18.667 -78.333 -29 -127 -31c-6 2.66699 -12.333 4 -19 4c-22 0 -54.667 6.16699 -98 18.5s-76 18.5 -98 18.5c-16.667 0 -60 -13.667 -130 -41c-42 20 -63 46.667 -63 80c0 86 60 129 180 129c27.333 0 65 -6 113 -18
c63.333 -15.333 100.333 -23 111 -23c12.667 0 34 6.83301 64 20.5s53 20.5 69 20.5c18.667 0 34.5 -7.83301 47.5 -23.5s19.5 -33.167 19.5 -52.5z" />
    <glyph glyph-name="glyph236" unicode="&#x1ea0;" horiz-adv-x="1252" 
d="M1237 56c0 -48.667 -28 -72.999 -84 -72.999c-44.667 0 -75.334 22.667 -92.001 68l-96 265h-676l-96 -265c-16 -42.667 -46.667 -64 -92 -64c-56 0 -84 24.333 -84 73c3.33301 16.667 7.33301 33 12 49l471 1259c26.667 72.667 68.334 109 125.001 109
c58 0 100.333 -35 127 -105l477 -1263c5.33301 -14.667 8 -32.334 8 -53.001zM912 471.001l-283 793h-4l-281 -793h568zM726 -240.999c0 -28 -10.501 -52.5 -31.501 -73.5s-45.5 -31.5 -73.5 -31.5s-52.333 10.5 -73 31.5s-31 45.5 -31 73.5
c0 28.667 10.167 53.334 30.5 74.001s44.833 31 73.5 31s53.334 -10.333 74.001 -31s31 -45.334 31 -74.001z" />
    <glyph glyph-name="glyph237" unicode="&#x1ea1;" horiz-adv-x="1141" 
d="M1020 80c0 -62 -27.999 -93 -83.999 -93c-44 0 -70.667 18.333 -80 55c-2.66699 10 -4 46.667 -4 110h-4c-79.333 -110 -176.666 -165 -291.999 -165c-86.667 0 -167.667 23 -243 69c-160.667 97.333 -241 259 -241 485c0 238.667 83.333 405.667 250 501
c72 41.333 145 62 219 62c119.333 0 221.666 -49 306.999 -147h4c0 48 2.66699 80.333 8 97c11.333 33.333 36.666 50 75.999 50c56 0 84 -30.667 84 -92v-932zM848.001 545c0 110 -21.667 200.999 -65 272.999c-52.667 86.667 -130.667 130 -234 130
c-102 0 -179.333 -45 -232 -135c-43.333 -73.333 -65 -164.666 -65 -273.999c0 -104 22 -192.333 66 -265c52 -86.667 126.333 -130 223 -130c108 0 188.333 41.667 241 125c44 69.333 66 161.333 66 276zM672.001 -241.001c0 -28 -10.501 -52.5 -31.501 -73.5
s-45.5 -31.5 -73.5 -31.5s-52.333 10.5 -73 31.5s-31 45.5 -31 73.5c0 28.667 10.167 53.334 30.5 74.001s44.833 31 73.5 31s53.334 -10.333 74.001 -31s31 -45.334 31 -74.001z" />
    <glyph glyph-name="glyph238" unicode="&#x1ea2;" horiz-adv-x="1252" 
d="M1237 56c0 -48.667 -28 -72.999 -84 -72.999c-44.667 0 -75.334 22.667 -92.001 68l-96 265h-676l-96 -265c-16 -42.667 -46.667 -64 -92 -64c-56 0 -84 24.333 -84 73c3.33301 16.667 7.33301 33 12 49l471 1259c26.667 72.667 68.334 109 125.001 109
c58 0 100.333 -35 127 -105l477 -1263c5.33301 -14.667 8 -32.334 8 -53.001zM912 471.001l-283 793h-4l-281 -793h568zM851 1786c0 -54 -14.333 -98 -43 -132c-24.667 -29.333 -55.667 -47 -93 -53v-37c0 -22 -23 -33 -69 -33c-44 0 -66 11 -66 33v99
c0 16.667 21.333 30.167 64 40.5s64 34.833 64 73.5c0 57.333 -29 86 -87 86c-47.333 0 -71 -19.333 -71 -58c0 -22.667 -21.667 -34 -65 -34c-38.667 0 -58 12 -58 36c0 49.333 18 91.333 54 126c38.667 37.333 88.667 56 150 56c64.667 0 117.5 -19.5 158.5 -58.5
s61.5 -87.167 61.5 -144.5z" />
    <glyph glyph-name="glyph239" unicode="&#x1ea3;" horiz-adv-x="1141" 
d="M1020 80c0 -62 -27.999 -93 -83.999 -93c-44 0 -70.667 18.333 -80 55c-2.66699 10 -4 46.667 -4 110h-4c-79.333 -110 -176.666 -165 -291.999 -165c-86.667 0 -167.667 23 -243 69c-160.667 97.333 -241 259 -241 485c0 238.667 83.333 405.667 250 501
c72 41.333 145 62 219 62c119.333 0 221.666 -49 306.999 -147h4c0 48 2.66699 80.333 8 97c11.333 33.333 36.666 50 75.999 50c56 0 84 -30.667 84 -92v-932zM848.001 545c0 110 -21.667 200.999 -65 272.999c-52.667 86.667 -130.667 130 -234 130
c-102 0 -179.333 -45 -232 -135c-43.333 -73.333 -65 -164.666 -65 -273.999c0 -104 22 -192.333 66 -265c52 -86.667 126.333 -130 223 -130c108 0 188.333 41.667 241 125c44 69.333 66 161.333 66 276zM770.001 1477c0 -54 -14.333 -98 -43 -132
c-24.667 -29.333 -55.667 -47 -93 -53v-37c0 -22 -23 -33 -69 -33c-44 0 -66 11 -66 33v99c0 16.667 21.333 30.167 64 40.5s64 34.833 64 73.5c0 57.333 -29 86 -87 86c-47.333 0 -71 -19.333 -71 -58c0 -22.667 -21.667 -34 -65 -34c-38.667 0 -58 12 -58 36
c0 49.333 18 91.333 54 126c38.667 37.333 88.667 56 150 56c64.667 0 117.5 -19.5 158.5 -58.5s61.5 -87.167 61.5 -144.5z" />
    <glyph glyph-name="glyph240" unicode="&#x1ea4;" horiz-adv-x="1252" 
d="M1237 56c0 -48.667 -28 -72.999 -84 -72.999c-44.667 0 -75.334 22.667 -92.001 68l-96 265h-676l-96 -265c-16 -42.667 -46.667 -64 -92 -64c-56 0 -84 24.333 -84 73c3.33301 16.667 7.33301 33 12 49l471 1259c26.667 72.667 68.334 109 125.001 109
c58 0 100.333 -35 127 -105l477 -1263c5.33301 -14.667 8 -32.334 8 -53.001zM912 471.001l-283 793h-4l-281 -793h568zM941 1641c0 -49.333 -25.333 -74 -76 -74c-12.667 0 -94 30.667 -244 92c-156.667 -61.333 -240.667 -92 -252 -92c-46.667 0 -70 24.667 -70 74
c0 39.333 16.333 66 49 80l273 115l266 -115c36 -16 54 -42.667 54 -80zM838 2092c0 -32 -22.333 -57.333 -67 -76l-240 -101c-16 -6.66699 -38 -10 -66 -10c-20 0 -38.167 7 -54.5 21s-24.5 31 -24.5 51c0 36.667 26.333 66 79 88l242 98c13.333 5.33301 29 8 47 8
c22 0 41.5 -7.83301 58.5 -23.5s25.5 -34.167 25.5 -55.5z" />
    <glyph glyph-name="glyph241" unicode="&#x1ea5;" horiz-adv-x="1141" 
d="M1020 80c0 -62 -27.999 -93 -83.999 -93c-44 0 -70.667 18.333 -80 55c-2.66699 10 -4 46.667 -4 110h-4c-79.333 -110 -176.666 -165 -291.999 -165c-86.667 0 -167.667 23 -243 69c-160.667 97.333 -241 259 -241 485c0 238.667 83.333 405.667 250 501
c72 41.333 145 62 219 62c119.333 0 221.666 -49 306.999 -147h4c0 48 2.66699 80.333 8 97c11.333 33.333 36.666 50 75.999 50c56 0 84 -30.667 84 -92v-932zM848.001 545c0 110 -21.667 200.999 -65 272.999c-52.667 86.667 -130.667 130 -234 130
c-102 0 -179.333 -45 -232 -135c-43.333 -73.333 -65 -164.666 -65 -273.999c0 -104 22 -192.333 66 -265c52 -86.667 126.333 -130 223 -130c108 0 188.333 41.667 241 125c44 69.333 66 161.333 66 276zM890.001 1313c0 -49.333 -25.333 -74 -76 -74
c-12.667 0 -94 30.667 -244 92c-156.667 -61.333 -240.667 -92 -252 -92c-46.667 0 -70 24.667 -70 74c0 39.333 16.333 66 49 80l273 115l266 -115c36 -16 54 -42.667 54 -80zM787.001 1764c0 -32 -22.333 -57.333 -67 -76l-240 -101c-16 -6.66699 -38 -10 -66 -10
c-20 0 -38.167 7 -54.5 21s-24.5 31 -24.5 51c0 36.667 26.333 66 79 88l242 98c13.333 5.33301 29 8 47 8c22 0 41.5 -7.83301 58.5 -23.5s25.5 -34.167 25.5 -55.5z" />
    <glyph glyph-name="glyph242" unicode="&#x1ea6;" horiz-adv-x="1252" 
d="M1237 56c0 -48.667 -28 -72.999 -84 -72.999c-44.667 0 -75.334 22.667 -92.001 68l-96 265h-676l-96 -265c-16 -42.667 -46.667 -64 -92 -64c-56 0 -84 24.333 -84 73c3.33301 16.667 7.33301 33 12 49l471 1259c26.667 72.667 68.334 109 125.001 109
c58 0 100.333 -35 127 -105l477 -1263c5.33301 -14.667 8 -32.334 8 -53.001zM912 471.001l-283 793h-4l-281 -793h568zM941 1641c0 -49.333 -25.333 -74 -76 -74c-12.667 0 -94 30.667 -244 92c-156.667 -61.333 -240.667 -92 -252 -92c-46.667 0 -70 24.667 -70 74
c0 39.333 16.333 66 49 80l273 115l266 -115c36 -16 54 -42.667 54 -80zM863 1976c0 -50.667 -29.332 -76 -87.999 -76c-4.66699 0 -20.334 3.33301 -47.001 10l-260 105c-43.333 17.333 -65 42.666 -65 75.999c0 22.667 8.66699 42.334 26 59.001s38 25 62 25
c14 0 24.667 -1.66699 32 -5l273 -114c44.667 -19.333 67 -46 67 -80z" />
    <glyph glyph-name="glyph243" unicode="&#x1ea7;" horiz-adv-x="1141" 
d="M1020 80c0 -62 -27.999 -93 -83.999 -93c-44 0 -70.667 18.333 -80 55c-2.66699 10 -4 46.667 -4 110h-4c-79.333 -110 -176.666 -165 -291.999 -165c-86.667 0 -167.667 23 -243 69c-160.667 97.333 -241 259 -241 485c0 238.667 83.333 405.667 250 501
c72 41.333 145 62 219 62c119.333 0 221.666 -49 306.999 -147h4c0 48 2.66699 80.333 8 97c11.333 33.333 36.666 50 75.999 50c56 0 84 -30.667 84 -92v-932zM848.001 545c0 110 -21.667 200.999 -65 272.999c-52.667 86.667 -130.667 130 -234 130
c-102 0 -179.333 -45 -232 -135c-43.333 -73.333 -65 -164.666 -65 -273.999c0 -104 22 -192.333 66 -265c52 -86.667 126.333 -130 223 -130c108 0 188.333 41.667 241 125c44 69.333 66 161.333 66 276zM890.001 1313c0 -49.333 -25.333 -74 -76 -74
c-12.667 0 -94 30.667 -244 92c-156.667 -61.333 -240.667 -92 -252 -92c-46.667 0 -70 24.667 -70 74c0 39.333 16.333 66 49 80l273 115l266 -115c36 -16 54 -42.667 54 -80zM811.001 1649c0 -50.667 -29.332 -76 -87.999 -76c-4.66699 0 -20.334 3.33301 -47.001 10
l-260 105c-43.333 17.333 -65 42.666 -65 75.999c0 22.667 8.66699 42.334 26 59.001s38 25 62 25c14 0 24.667 -1.66699 32 -5l273 -114c44.667 -19.333 67 -46 67 -80z" />
    <glyph glyph-name="glyph244" unicode="&#x1ea8;" horiz-adv-x="1252" 
d="M1237 56c0 -48.667 -28 -72.999 -84 -72.999c-44.667 0 -75.334 22.667 -92.001 68l-96 265h-676l-96 -265c-16 -42.667 -46.667 -64 -92 -64c-56 0 -84 24.333 -84 73c3.33301 16.667 7.33301 33 12 49l471 1259c26.667 72.667 68.334 109 125.001 109
c58 0 100.333 -35 127 -105l477 -1263c5.33301 -14.667 8 -32.334 8 -53.001zM912 471.001l-283 793h-4l-281 -793h568zM941 1641c0 -49.333 -25.333 -74 -76 -74c-12.667 0 -94 30.667 -244 92c-156.667 -61.333 -240.667 -92 -252 -92c-46.667 0 -70 24.667 -70 74
c0 39.333 16.333 66 49 80l273 115l266 -115c36 -16 54 -42.667 54 -80zM1011 2079c0 -54 -14.333 -98 -43 -132c-24.667 -29.333 -55.667 -47 -93 -53v-37c0 -22 -23 -33 -69 -33c-44 0 -66 11 -66 33v99c0 16.667 21.333 30.167 64 40.5s64 34.833 64 73.5
c0 57.333 -29 86 -87 86c-47.333 0 -71 -19.333 -71 -58c0 -22.667 -21.667 -34 -65 -34c-38.667 0 -58 12 -58 36c0 49.333 18 91.333 54 126c38.667 37.333 88.667 56 150 56c64.667 0 117.5 -19.5 158.5 -58.5s61.5 -87.167 61.5 -144.5z" />
    <glyph glyph-name="glyph245" unicode="&#x1ea9;" horiz-adv-x="1141" 
d="M1020 80c0 -62 -27.999 -93 -83.999 -93c-44 0 -70.667 18.333 -80 55c-2.66699 10 -4 46.667 -4 110h-4c-79.333 -110 -176.666 -165 -291.999 -165c-86.667 0 -167.667 23 -243 69c-160.667 97.333 -241 259 -241 485c0 238.667 83.333 405.667 250 501
c72 41.333 145 62 219 62c119.333 0 221.666 -49 306.999 -147h4c0 48 2.66699 80.333 8 97c11.333 33.333 36.666 50 75.999 50c56 0 84 -30.667 84 -92v-932zM848.001 545c0 110 -21.667 200.999 -65 272.999c-52.667 86.667 -130.667 130 -234 130
c-102 0 -179.333 -45 -232 -135c-43.333 -73.333 -65 -164.666 -65 -273.999c0 -104 22 -192.333 66 -265c52 -86.667 126.333 -130 223 -130c108 0 188.333 41.667 241 125c44 69.333 66 161.333 66 276zM890.001 1313c0 -49.333 -25.333 -74 -76 -74
c-12.667 0 -94 30.667 -244 92c-156.667 -61.333 -240.667 -92 -252 -92c-46.667 0 -70 24.667 -70 74c0 39.333 16.333 66 49 80l273 115l266 -115c36 -16 54 -42.667 54 -80zM960.001 1752c0 -54 -14.333 -98 -43 -132c-24.667 -29.333 -55.667 -47 -93 -53v-37
c0 -22 -23 -33 -69 -33c-44 0 -66 11 -66 33v99c0 16.667 21.333 30.167 64 40.5s64 34.833 64 73.5c0 57.333 -29 86 -87 86c-47.333 0 -71 -19.333 -71 -58c0 -22.667 -21.667 -34 -65 -34c-38.667 0 -58 12 -58 36c0 49.333 18 91.333 54 126
c38.667 37.333 88.667 56 150 56c64.667 0 117.5 -19.5 158.5 -58.5s61.5 -87.167 61.5 -144.5z" />
    <glyph glyph-name="glyph246" unicode="&#x1eaa;" horiz-adv-x="1252" 
d="M1237 56c0 -48.667 -28 -72.999 -84 -72.999c-44.667 0 -75.334 22.667 -92.001 68l-96 265h-676l-96 -265c-16 -42.667 -46.667 -64 -92 -64c-56 0 -84 24.333 -84 73c3.33301 16.667 7.33301 33 12 49l471 1259c26.667 72.667 68.334 109 125.001 109
c58 0 100.333 -35 127 -105l477 -1263c5.33301 -14.667 8 -32.334 8 -53.001zM912 471.001l-283 793h-4l-281 -793h568zM941 1641c0 -49.333 -25.333 -74 -76 -74c-12.667 0 -94 30.667 -244 92c-156.667 -61.333 -240.667 -92 -252 -92c-46.667 0 -70 24.667 -70 74
c0 39.333 16.333 66 49 80l273 115l266 -115c36 -16 54 -42.667 54 -80zM1013 2044c0 -43.333 -23 -77.333 -69 -102c-36 -18.667 -78.333 -29 -127 -31c-6 2.66699 -12.333 4 -19 4c-22 0 -54.667 6.16699 -98 18.5s-76 18.5 -98 18.5c-16.667 0 -60 -13.667 -130 -41
c-42 20 -63 46.667 -63 80c0 86 60 129 180 129c27.333 0 65 -6 113 -18c63.333 -15.333 100.333 -23 111 -23c12.667 0 34 6.83301 64 20.5s53 20.5 69 20.5c18.667 0 34.5 -7.83301 47.5 -23.5s19.5 -33.167 19.5 -52.5z" />
    <glyph glyph-name="glyph247" unicode="&#x1eab;" horiz-adv-x="1141" 
d="M1020 80c0 -62 -27.999 -93 -83.999 -93c-44 0 -70.667 18.333 -80 55c-2.66699 10 -4 46.667 -4 110h-4c-79.333 -110 -176.666 -165 -291.999 -165c-86.667 0 -167.667 23 -243 69c-160.667 97.333 -241 259 -241 485c0 238.667 83.333 405.667 250 501
c72 41.333 145 62 219 62c119.333 0 221.666 -49 306.999 -147h4c0 48 2.66699 80.333 8 97c11.333 33.333 36.666 50 75.999 50c56 0 84 -30.667 84 -92v-932zM848.001 545c0 110 -21.667 200.999 -65 272.999c-52.667 86.667 -130.667 130 -234 130
c-102 0 -179.333 -45 -232 -135c-43.333 -73.333 -65 -164.666 -65 -273.999c0 -104 22 -192.333 66 -265c52 -86.667 126.333 -130 223 -130c108 0 188.333 41.667 241 125c44 69.333 66 161.333 66 276zM890.001 1313c0 -49.333 -25.333 -74 -76 -74
c-12.667 0 -94 30.667 -244 92c-156.667 -61.333 -240.667 -92 -252 -92c-46.667 0 -70 24.667 -70 74c0 39.333 16.333 66 49 80l273 115l266 -115c36 -16 54 -42.667 54 -80zM962.001 1716c0 -43.333 -23 -77.333 -69 -102c-36 -18.667 -78.333 -29 -127 -31
c-6 2.66699 -12.333 4 -19 4c-22 0 -54.667 6.16699 -98 18.5s-76 18.5 -98 18.5c-16.667 0 -60 -13.667 -130 -41c-42 20 -63 46.667 -63 80c0 86 60 129 180 129c27.333 0 65 -6 113 -18c63.333 -15.333 100.333 -23 111 -23c12.667 0 34 6.83301 64 20.5s53 20.5 69 20.5
c18.667 0 34.5 -7.83301 47.5 -23.5s19.5 -33.167 19.5 -52.5z" />
    <glyph glyph-name="glyph248" unicode="&#x1eac;" horiz-adv-x="1252" 
d="M1237 56c0 -48.667 -28 -72.999 -84 -72.999c-44.667 0 -75.334 22.667 -92.001 68l-96 265h-676l-96 -265c-16 -42.667 -46.667 -64 -92 -64c-56 0 -84 24.333 -84 73c3.33301 16.667 7.33301 33 12 49l471 1259c26.667 72.667 68.334 109 125.001 109
c58 0 100.333 -35 127 -105l477 -1263c5.33301 -14.667 8 -32.334 8 -53.001zM912 471.001l-283 793h-4l-281 -793h568zM941 1641c0 -49.333 -25.333 -74 -76 -74c-12.667 0 -94 30.667 -244 92c-156.667 -61.333 -240.667 -92 -252 -92c-46.667 0 -70 24.667 -70 74
c0 39.333 16.333 66 49 80l273 115l266 -115c36 -16 54 -42.667 54 -80zM726 -240.999c0 -28 -10.501 -52.5 -31.501 -73.5s-45.5 -31.5 -73.5 -31.5s-52.333 10.5 -73 31.5s-31 45.5 -31 73.5c0 28.667 10.167 53.334 30.5 74.001s44.833 31 73.5 31
s53.334 -10.333 74.001 -31s31 -45.334 31 -74.001z" />
    <glyph glyph-name="glyph249" unicode="&#x1ead;" horiz-adv-x="1141" 
d="M1020 80c0 -62 -27.999 -93 -83.999 -93c-44 0 -70.667 18.333 -80 55c-2.66699 10 -4 46.667 -4 110h-4c-79.333 -110 -176.666 -165 -291.999 -165c-86.667 0 -167.667 23 -243 69c-160.667 97.333 -241 259 -241 485c0 238.667 83.333 405.667 250 501
c72 41.333 145 62 219 62c119.333 0 221.666 -49 306.999 -147h4c0 48 2.66699 80.333 8 97c11.333 33.333 36.666 50 75.999 50c56 0 84 -30.667 84 -92v-932zM848.001 545c0 110 -21.667 200.999 -65 272.999c-52.667 86.667 -130.667 130 -234 130
c-102 0 -179.333 -45 -232 -135c-43.333 -73.333 -65 -164.666 -65 -273.999c0 -104 22 -192.333 66 -265c52 -86.667 126.333 -130 223 -130c108 0 188.333 41.667 241 125c44 69.333 66 161.333 66 276zM890.001 1313c0 -49.333 -25.333 -74 -76 -74
c-12.667 0 -94 30.667 -244 92c-156.667 -61.333 -240.667 -92 -252 -92c-46.667 0 -70 24.667 -70 74c0 39.333 16.333 66 49 80l273 115l266 -115c36 -16 54 -42.667 54 -80zM672.001 -241.001c0 -28 -10.501 -52.5 -31.501 -73.5s-45.5 -31.5 -73.5 -31.5
s-52.333 10.5 -73 31.5s-31 45.5 -31 73.5c0 28.667 10.167 53.334 30.5 74.001s44.833 31 73.5 31s53.334 -10.333 74.001 -31s31 -45.334 31 -74.001z" />
    <glyph glyph-name="glyph250" unicode="&#x1eae;" horiz-adv-x="1252" 
d="M1237 56c0 -48.667 -28 -72.999 -84 -72.999c-44.667 0 -75.334 22.667 -92.001 68l-96 265h-676l-96 -265c-16 -42.667 -46.667 -64 -92 -64c-56 0 -84 24.333 -84 73c3.33301 16.667 7.33301 33 12 49l471 1259c26.667 72.667 68.334 109 125.001 109
c58 0 100.333 -35 127 -105l477 -1263c5.33301 -14.667 8 -32.334 8 -53.001zM912 471.001l-283 793h-4l-281 -793h568zM896 1756c0 -58.667 -32.333 -107.667 -97 -147c-56 -34.667 -115.333 -52 -178 -52c-93.333 0 -171 32.333 -233 97
c-29.333 30.667 -44 64.667 -44 102c0 50 21.333 75 64 75c14.667 0 38.667 -14 72 -42l70 -60c14 -10.667 37.667 -16 71 -16c41.333 0 83.5 19.667 126.5 59s72.5 59 88.5 59c40 0 60 -25 60 -75zM894 2092c0 -32 -22.333 -57.333 -67 -76l-240 -101
c-16 -6.66699 -38 -10 -66 -10c-20 0 -38.167 7 -54.5 21s-24.5 31 -24.5 51c0 36.667 26.333 66 79 88l242 98c13.333 5.33301 29 8 47 8c22 0 41.5 -7.83301 58.5 -23.5s25.5 -34.167 25.5 -55.5z" />
    <glyph glyph-name="glyph251" unicode="&#x1eaf;" horiz-adv-x="1141" 
d="M1020 80c0 -62 -27.999 -93 -83.999 -93c-44 0 -70.667 18.333 -80 55c-2.66699 10 -4 46.667 -4 110h-4c-79.333 -110 -176.666 -165 -291.999 -165c-86.667 0 -167.667 23 -243 69c-160.667 97.333 -241 259 -241 485c0 238.667 83.333 405.667 250 501
c72 41.333 145 62 219 62c119.333 0 221.666 -49 306.999 -147h4c0 48 2.66699 80.333 8 97c11.333 33.333 36.666 50 75.999 50c56 0 84 -30.667 84 -92v-932zM848.001 545c0 110 -21.667 200.999 -65 272.999c-52.667 86.667 -130.667 130 -234 130
c-102 0 -179.333 -45 -232 -135c-43.333 -73.333 -65 -164.666 -65 -273.999c0 -104 22 -192.333 66 -265c52 -86.667 126.333 -130 223 -130c108 0 188.333 41.667 241 125c44 69.333 66 161.333 66 276zM845.001 1428c0 -58.667 -32.333 -107.667 -97 -147
c-56 -34.667 -115.333 -52 -178 -52c-93.333 0 -171 32.333 -233 97c-29.333 30.667 -44 64.667 -44 102c0 50 21.333 75 64 75c14.667 0 38.667 -14 72 -42l70 -60c14 -10.667 37.667 -16 71 -16c41.333 0 83.5 19.667 126.5 59s72.5 59 88.5 59c40 0 60 -25 60 -75z
M842.001 1764c0 -32 -22.333 -57.333 -67 -76l-240 -101c-16 -6.66699 -38 -10 -66 -10c-20 0 -38.167 7 -54.5 21s-24.5 31 -24.5 51c0 36.667 26.333 66 79 88l242 98c13.333 5.33301 29 8 47 8c22 0 41.5 -7.83301 58.5 -23.5s25.5 -34.167 25.5 -55.5z" />
    <glyph glyph-name="glyph252" unicode="&#x1eb0;" horiz-adv-x="1252" 
d="M1237 56c0 -48.667 -28 -72.999 -84 -72.999c-44.667 0 -75.334 22.667 -92.001 68l-96 265h-676l-96 -265c-16 -42.667 -46.667 -64 -92 -64c-56 0 -84 24.333 -84 73c3.33301 16.667 7.33301 33 12 49l471 1259c26.667 72.667 68.334 109 125.001 109
c58 0 100.333 -35 127 -105l477 -1263c5.33301 -14.667 8 -32.334 8 -53.001zM912 471.001l-283 793h-4l-281 -793h568zM896 1756c0 -58.667 -32.333 -107.667 -97 -147c-56 -34.667 -115.333 -52 -178 -52c-93.333 0 -171 32.333 -233 97
c-29.333 30.667 -44 64.667 -44 102c0 50 21.333 75 64 75c14.667 0 38.667 -14 72 -42l70 -60c14 -10.667 37.667 -16 71 -16c41.333 0 83.5 19.667 126.5 59s72.5 59 88.5 59c40 0 60 -25 60 -75zM803 1976c0 -50.667 -29.332 -76 -87.999 -76
c-4.66699 0 -20.334 3.33301 -47.001 10l-260 105c-43.333 17.333 -65 42.666 -65 75.999c0 22.667 8.66699 42.334 26 59.001s38 25 62 25c14 0 24.667 -1.66699 32 -5l273 -114c44.667 -19.333 67 -46 67 -80z" />
    <glyph glyph-name="glyph253" unicode="&#x1eb1;" horiz-adv-x="1141" 
d="M1020 80c0 -62 -27.999 -93 -83.999 -93c-44 0 -70.667 18.333 -80 55c-2.66699 10 -4 46.667 -4 110h-4c-79.333 -110 -176.666 -165 -291.999 -165c-86.667 0 -167.667 23 -243 69c-160.667 97.333 -241 259 -241 485c0 238.667 83.333 405.667 250 501
c72 41.333 145 62 219 62c119.333 0 221.666 -49 306.999 -147h4c0 48 2.66699 80.333 8 97c11.333 33.333 36.666 50 75.999 50c56 0 84 -30.667 84 -92v-932zM848.001 545c0 110 -21.667 200.999 -65 272.999c-52.667 86.667 -130.667 130 -234 130
c-102 0 -179.333 -45 -232 -135c-43.333 -73.333 -65 -164.666 -65 -273.999c0 -104 22 -192.333 66 -265c52 -86.667 126.333 -130 223 -130c108 0 188.333 41.667 241 125c44 69.333 66 161.333 66 276zM845.001 1428c0 -58.667 -32.333 -107.667 -97 -147
c-56 -34.667 -115.333 -52 -178 -52c-93.333 0 -171 32.333 -233 97c-29.333 30.667 -44 64.667 -44 102c0 50 21.333 75 64 75c14.667 0 38.667 -14 72 -42l70 -60c14 -10.667 37.667 -16 71 -16c41.333 0 83.5 19.667 126.5 59s72.5 59 88.5 59c40 0 60 -25 60 -75z
M751.001 1649c0 -50.667 -29.332 -76 -87.999 -76c-4.66699 0 -20.334 3.33301 -47.001 10l-260 105c-43.333 17.333 -65 42.666 -65 75.999c0 22.667 8.66699 42.334 26 59.001s38 25 62 25c14 0 24.667 -1.66699 32 -5l273 -114c44.667 -19.333 67 -46 67 -80z" />
    <glyph glyph-name="glyph254" unicode="&#x1eb2;" horiz-adv-x="1252" 
d="M1237 56c0 -48.667 -28 -72.999 -84 -72.999c-44.667 0 -75.334 22.667 -92.001 68l-96 265h-676l-96 -265c-16 -42.667 -46.667 -64 -92 -64c-56 0 -84 24.333 -84 73c3.33301 16.667 7.33301 33 12 49l471 1259c26.667 72.667 68.334 109 125.001 109
c58 0 100.333 -35 127 -105l477 -1263c5.33301 -14.667 8 -32.334 8 -53.001zM912 471.001l-283 793h-4l-281 -793h568zM896 1756c0 -58.667 -32.333 -107.667 -97 -147c-56 -34.667 -115.333 -52 -178 -52c-93.333 0 -171 32.333 -233 97
c-29.333 30.667 -44 64.667 -44 102c0 50 21.333 75 64 75c14.667 0 38.667 -14 72 -42l70 -60c14 -10.667 37.667 -16 71 -16c41.333 0 83.5 19.667 126.5 59s72.5 59 88.5 59c40 0 60 -25 60 -75zM830 2079c0 -54 -14.333 -98 -43 -132
c-24.667 -29.333 -55.667 -47 -93 -53v-37c0 -22 -23 -33 -69 -33c-44 0 -66 11 -66 33v99c0 16.667 21.333 30.167 64 40.5s64 34.833 64 73.5c0 57.333 -29 86 -87 86c-47.333 0 -71 -19.333 -71 -58c0 -22.667 -21.667 -34 -65 -34c-38.667 0 -58 12 -58 36
c0 49.333 18 91.333 54 126c38.667 37.333 88.667 56 150 56c64.667 0 117.5 -19.5 158.5 -58.5s61.5 -87.167 61.5 -144.5z" />
    <glyph glyph-name="glyph255" unicode="&#x1eb3;" horiz-adv-x="1141" 
d="M1020 80c0 -62 -27.999 -93 -83.999 -93c-44 0 -70.667 18.333 -80 55c-2.66699 10 -4 46.667 -4 110h-4c-79.333 -110 -176.666 -165 -291.999 -165c-86.667 0 -167.667 23 -243 69c-160.667 97.333 -241 259 -241 485c0 238.667 83.333 405.667 250 501
c72 41.333 145 62 219 62c119.333 0 221.666 -49 306.999 -147h4c0 48 2.66699 80.333 8 97c11.333 33.333 36.666 50 75.999 50c56 0 84 -30.667 84 -92v-932zM848.001 545c0 110 -21.667 200.999 -65 272.999c-52.667 86.667 -130.667 130 -234 130
c-102 0 -179.333 -45 -232 -135c-43.333 -73.333 -65 -164.666 -65 -273.999c0 -104 22 -192.333 66 -265c52 -86.667 126.333 -130 223 -130c108 0 188.333 41.667 241 125c44 69.333 66 161.333 66 276zM845.001 1428c0 -58.667 -32.333 -107.667 -97 -147
c-56 -34.667 -115.333 -52 -178 -52c-93.333 0 -171 32.333 -233 97c-29.333 30.667 -44 64.667 -44 102c0 50 21.333 75 64 75c14.667 0 38.667 -14 72 -42l70 -60c14 -10.667 37.667 -16 71 -16c41.333 0 83.5 19.667 126.5 59s72.5 59 88.5 59c40 0 60 -25 60 -75z
M778.001 1752c0 -54 -14.333 -98 -43 -132c-24.667 -29.333 -55.667 -47 -93 -53v-37c0 -22 -23 -33 -69 -33c-44 0 -66 11 -66 33v99c0 16.667 21.333 30.167 64 40.5s64 34.833 64 73.5c0 57.333 -29 86 -87 86c-47.333 0 -71 -19.333 -71 -58
c0 -22.667 -21.667 -34 -65 -34c-38.667 0 -58 12 -58 36c0 49.333 18 91.333 54 126c38.667 37.333 88.667 56 150 56c64.667 0 117.5 -19.5 158.5 -58.5s61.5 -87.167 61.5 -144.5z" />
    <glyph glyph-name="glyph256" unicode="&#x1eb4;" horiz-adv-x="1252" 
d="M1237 56c0 -48.667 -28 -72.999 -84 -72.999c-44.667 0 -75.334 22.667 -92.001 68l-96 265h-676l-96 -265c-16 -42.667 -46.667 -64 -92 -64c-56 0 -84 24.333 -84 73c3.33301 16.667 7.33301 33 12 49l471 1259c26.667 72.667 68.334 109 125.001 109
c58 0 100.333 -35 127 -105l477 -1263c5.33301 -14.667 8 -32.334 8 -53.001zM912 471.001l-283 793h-4l-281 -793h568zM896 1756c0 -58.667 -32.333 -107.667 -97 -147c-56 -34.667 -115.333 -52 -178 -52c-93.333 0 -171 32.333 -233 97
c-29.333 30.667 -44 64.667 -44 102c0 50 21.333 75 64 75c14.667 0 38.667 -14 72 -42l70 -60c14 -10.667 37.667 -16 71 -16c41.333 0 83.5 19.667 126.5 59s72.5 59 88.5 59c40 0 60 -25 60 -75zM1012 2044c0 -43.333 -23 -77.333 -69 -102
c-36 -18.667 -78.333 -29 -127 -31c-6 2.66699 -12.333 4 -19 4c-22 0 -54.667 6.16699 -98 18.5s-76 18.5 -98 18.5c-16.667 0 -60 -13.667 -130 -41c-42 20 -63 46.667 -63 80c0 86 60 129 180 129c27.333 0 65 -6 113 -18c63.333 -15.333 100.333 -23 111 -23
c12.667 0 34 6.83301 64 20.5s53 20.5 69 20.5c18.667 0 34.5 -7.83301 47.5 -23.5s19.5 -33.167 19.5 -52.5z" />
    <glyph glyph-name="glyph257" unicode="&#x1eb5;" horiz-adv-x="1141" 
d="M1020 80c0 -62 -27.999 -93 -83.999 -93c-44 0 -70.667 18.333 -80 55c-2.66699 10 -4 46.667 -4 110h-4c-79.333 -110 -176.666 -165 -291.999 -165c-86.667 0 -167.667 23 -243 69c-160.667 97.333 -241 259 -241 485c0 238.667 83.333 405.667 250 501
c72 41.333 145 62 219 62c119.333 0 221.666 -49 306.999 -147h4c0 48 2.66699 80.333 8 97c11.333 33.333 36.666 50 75.999 50c56 0 84 -30.667 84 -92v-932zM848.001 545c0 110 -21.667 200.999 -65 272.999c-52.667 86.667 -130.667 130 -234 130
c-102 0 -179.333 -45 -232 -135c-43.333 -73.333 -65 -164.666 -65 -273.999c0 -104 22 -192.333 66 -265c52 -86.667 126.333 -130 223 -130c108 0 188.333 41.667 241 125c44 69.333 66 161.333 66 276zM845.001 1428c0 -58.667 -32.333 -107.667 -97 -147
c-56 -34.667 -115.333 -52 -178 -52c-93.333 0 -171 32.333 -233 97c-29.333 30.667 -44 64.667 -44 102c0 50 21.333 75 64 75c14.667 0 38.667 -14 72 -42l70 -60c14 -10.667 37.667 -16 71 -16c41.333 0 83.5 19.667 126.5 59s72.5 59 88.5 59c40 0 60 -25 60 -75z
M962.001 1716c0 -43.333 -23 -77.333 -69 -102c-36 -18.667 -78.333 -29 -127 -31c-6 2.66699 -12.333 4 -19 4c-22 0 -54.667 6.16699 -98 18.5s-76 18.5 -98 18.5c-16.667 0 -60 -13.667 -130 -41c-42 20 -63 46.667 -63 80c0 86 60 129 180 129c27.333 0 65 -6 113 -18
c63.333 -15.333 100.333 -23 111 -23c12.667 0 34 6.83301 64 20.5s53 20.5 69 20.5c18.667 0 34.5 -7.83301 47.5 -23.5s19.5 -33.167 19.5 -52.5z" />
    <glyph glyph-name="glyph258" unicode="&#x1eb6;" horiz-adv-x="1252" 
d="M1237 56c0 -48.667 -28 -72.999 -84 -72.999c-44.667 0 -75.334 22.667 -92.001 68l-96 265h-676l-96 -265c-16 -42.667 -46.667 -64 -92 -64c-56 0 -84 24.333 -84 73c3.33301 16.667 7.33301 33 12 49l471 1259c26.667 72.667 68.334 109 125.001 109
c58 0 100.333 -35 127 -105l477 -1263c5.33301 -14.667 8 -32.334 8 -53.001zM912 471.001l-283 793h-4l-281 -793h568zM896 1756c0 -58.667 -32.333 -107.667 -97 -147c-56 -34.667 -115.333 -52 -178 -52c-93.333 0 -171 32.333 -233 97
c-29.333 30.667 -44 64.667 -44 102c0 50 21.333 75 64 75c14.667 0 38.667 -14 72 -42l70 -60c14 -10.667 37.667 -16 71 -16c41.333 0 83.5 19.667 126.5 59s72.5 59 88.5 59c40 0 60 -25 60 -75zM726 -240.999c0 -28 -10.501 -52.5 -31.501 -73.5
s-45.5 -31.5 -73.5 -31.5s-52.333 10.5 -73 31.5s-31 45.5 -31 73.5c0 28.667 10.167 53.334 30.5 74.001s44.833 31 73.5 31s53.334 -10.333 74.001 -31s31 -45.334 31 -74.001z" />
    <glyph glyph-name="glyph259" unicode="&#x1eb7;" horiz-adv-x="1141" 
d="M1020 80c0 -62 -27.999 -93 -83.999 -93c-44 0 -70.667 18.333 -80 55c-2.66699 10 -4 46.667 -4 110h-4c-79.333 -110 -176.666 -165 -291.999 -165c-86.667 0 -167.667 23 -243 69c-160.667 97.333 -241 259 -241 485c0 238.667 83.333 405.667 250 501
c72 41.333 145 62 219 62c119.333 0 221.666 -49 306.999 -147h4c0 48 2.66699 80.333 8 97c11.333 33.333 36.666 50 75.999 50c56 0 84 -30.667 84 -92v-932zM848.001 545c0 110 -21.667 200.999 -65 272.999c-52.667 86.667 -130.667 130 -234 130
c-102 0 -179.333 -45 -232 -135c-43.333 -73.333 -65 -164.666 -65 -273.999c0 -104 22 -192.333 66 -265c52 -86.667 126.333 -130 223 -130c108 0 188.333 41.667 241 125c44 69.333 66 161.333 66 276zM845.001 1428c0 -58.667 -32.333 -107.667 -97 -147
c-56 -34.667 -115.333 -52 -178 -52c-93.333 0 -171 32.333 -233 97c-29.333 30.667 -44 64.667 -44 102c0 50 21.333 75 64 75c14.667 0 38.667 -14 72 -42l70 -60c14 -10.667 37.667 -16 71 -16c41.333 0 83.5 19.667 126.5 59s72.5 59 88.5 59c40 0 60 -25 60 -75z
M672.001 -241.001c0 -28 -10.501 -52.5 -31.501 -73.5s-45.5 -31.5 -73.5 -31.5s-52.333 10.5 -73 31.5s-31 45.5 -31 73.5c0 28.667 10.167 53.334 30.5 74.001s44.833 31 73.5 31s53.334 -10.333 74.001 -31s31 -45.334 31 -74.001z" />
    <glyph glyph-name="glyph260" unicode="&#x1eb8;" horiz-adv-x="908" 
d="M824 80c0 -53.333 -29.667 -80 -89 -80h-526c-58.667 -0 -88 32.333 -88 97v1263c0 66.667 25.333 100 76 100h551c50.667 0 76 -27.667 76 -83c0 -56 -26.667 -84 -80 -84h-445v-482h406c53.333 0 80 -28 80 -84s-28 -84 -84 -84h-402v-475h449
c50.667 0 76 -29.333 76 -88zM566 -241c0 -28 -10.501 -52.5 -31.501 -73.5s-45.5 -31.5 -73.5 -31.5s-52.333 10.5 -73 31.5s-31 45.5 -31 73.5c0 28.667 10.167 53.334 30.5 74.001s44.833 31 73.5 31s53.334 -10.333 74.001 -31s31 -45.334 31 -74.001z" />
    <glyph glyph-name="glyph261" unicode="&#x1eb9;" horiz-adv-x="1065" 
d="M1012 563c0 -58.667 -33.3311 -87.998 -99.998 -87.998h-680c1.33301 -102 31.5 -182.667 90.5 -242s139.167 -89 240.5 -89c98 0 195.667 37.333 293 112c28.667 22 51.334 33 68.001 33c42 0 63 -25.333 63 -76c0 -61.333 -65.333 -120.333 -196 -177
c-74 -32.667 -153.333 -49 -238 -49c-158 0 -282.667 54.333 -374 163c-85.333 101.333 -129.333 233 -132 395c2.66699 4.66699 4 8 4 10c1.33301 21.333 4.66602 53.666 9.99902 96.999c25.333 160.667 98.666 284.667 219.999 372c73.333 53.333 157.333 80 252 80
c141.333 0 257.666 -55.667 348.999 -167c86.667 -104.667 130 -229.334 130 -374.001zM832.002 613.002c-2 96.667 -27.001 175 -75.001 235c-53.333 66.667 -127 100 -221 100c-95.333 0 -170.333 -33 -225 -99c-49.333 -60 -75.666 -138.667 -78.999 -236h600z
M648.001 -240.998c0 -28 -10.501 -52.5 -31.501 -73.5s-45.5 -31.5 -73.5 -31.5s-52.333 10.5 -73 31.5s-31 45.5 -31 73.5c0 28.667 10.167 53.334 30.5 74.001s44.833 31 73.5 31s53.334 -10.333 74.001 -31s31 -45.334 31 -74.001z" />
    <glyph glyph-name="glyph262" unicode="&#x1eba;" horiz-adv-x="908" 
d="M824 80c0 -53.333 -29.667 -80 -89 -80h-526c-58.667 -0 -88 32.333 -88 97v1263c0 66.667 25.333 100 76 100h551c50.667 0 76 -27.667 76 -83c0 -56 -26.667 -84 -80 -84h-445v-482h406c53.333 0 80 -28 80 -84s-28 -84 -84 -84h-402v-475h449
c50.667 0 76 -29.333 76 -88zM686 1786c0 -54 -14.333 -98 -43 -132c-24.667 -29.333 -55.667 -47 -93 -53v-37c0 -22 -23 -33 -69 -33c-44 0 -66 11 -66 33v99c0 16.667 21.333 30.167 64 40.5s64 34.833 64 73.5c0 57.333 -29 86 -87 86c-47.333 0 -71 -19.333 -71 -58
c0 -22.667 -21.667 -34 -65 -34c-38.667 0 -58 12 -58 36c0 49.333 18 91.333 54 126c38.667 37.333 88.667 56 150 56c64.667 0 117.5 -19.5 158.5 -58.5s61.5 -87.167 61.5 -144.5z" />
    <glyph glyph-name="glyph263" unicode="&#x1ebb;" horiz-adv-x="1065" 
d="M1012 563c0 -58.667 -33.3311 -87.998 -99.998 -87.998h-680c1.33301 -102 31.5 -182.667 90.5 -242s139.167 -89 240.5 -89c98 0 195.667 37.333 293 112c28.667 22 51.334 33 68.001 33c42 0 63 -25.333 63 -76c0 -61.333 -65.333 -120.333 -196 -177
c-74 -32.667 -153.333 -49 -238 -49c-158 0 -282.667 54.333 -374 163c-85.333 101.333 -129.333 233 -132 395c2.66699 4.66699 4 8 4 10c1.33301 21.333 4.66602 53.666 9.99902 96.999c25.333 160.667 98.666 284.667 219.999 372c73.333 53.333 157.333 80 252 80
c141.333 0 257.666 -55.667 348.999 -167c86.667 -104.667 130 -229.334 130 -374.001zM832.002 613.002c-2 96.667 -27.001 175 -75.001 235c-53.333 66.667 -127 100 -221 100c-95.333 0 -170.333 -33 -225 -99c-49.333 -60 -75.666 -138.667 -78.999 -236h600z
M770.001 1477c0 -54 -14.333 -98 -43 -132c-24.667 -29.333 -55.667 -47 -93 -53v-37c0 -22 -23 -33 -69 -33c-44 0 -66 11 -66 33v99c0 16.667 21.333 30.167 64 40.5s64 34.833 64 73.5c0 57.333 -29 86 -87 86c-47.333 0 -71 -19.333 -71 -58
c0 -22.667 -21.667 -34 -65 -34c-38.667 0 -58 12 -58 36c0 49.333 18 91.333 54 126c38.667 37.333 88.667 56 150 56c64.667 0 117.5 -19.5 158.5 -58.5s61.5 -87.167 61.5 -144.5z" />
    <glyph glyph-name="glyph264" unicode="&#x1ebc;" horiz-adv-x="908" 
d="M824 80c0 -53.333 -29.667 -80 -89 -80h-526c-58.667 -0 -88 32.333 -88 97v1263c0 66.667 25.333 100 76 100h551c50.667 0 76 -27.667 76 -83c0 -56 -26.667 -84 -80 -84h-445v-482h406c53.333 0 80 -28 80 -84s-28 -84 -84 -84h-402v-475h449
c50.667 0 76 -29.333 76 -88zM769 1721c0 -43.333 -23 -77.333 -69 -102c-36 -18.667 -78.333 -29 -127 -31c-6 2.66699 -12.333 4 -19 4c-22 0 -54.667 6.16699 -98 18.5s-76 18.5 -98 18.5c-16.667 0 -60 -13.667 -130 -41c-42 20 -63 46.667 -63 80c0 86 60 129 180 129
c27.333 0 65 -6 113 -18c63.333 -15.333 100.333 -23 111 -23c12.667 0 34 6.83301 64 20.5s53 20.5 69 20.5c18.667 0 34.5 -7.83301 47.5 -23.5s19.5 -33.167 19.5 -52.5z" />
    <glyph glyph-name="glyph265" unicode="&#x1ebd;" horiz-adv-x="1065" 
d="M1012 563c0 -58.667 -33.3311 -87.998 -99.998 -87.998h-680c1.33301 -102 31.5 -182.667 90.5 -242s139.167 -89 240.5 -89c98 0 195.667 37.333 293 112c28.667 22 51.334 33 68.001 33c42 0 63 -25.333 63 -76c0 -61.333 -65.333 -120.333 -196 -177
c-74 -32.667 -153.333 -49 -238 -49c-158 0 -282.667 54.333 -374 163c-85.333 101.333 -129.333 233 -132 395c2.66699 4.66699 4 8 4 10c1.33301 21.333 4.66602 53.666 9.99902 96.999c25.333 160.667 98.666 284.667 219.999 372c73.333 53.333 157.333 80 252 80
c141.333 0 257.666 -55.667 348.999 -167c86.667 -104.667 130 -229.334 130 -374.001zM832.002 613.002c-2 96.667 -27.001 175 -75.001 235c-53.333 66.667 -127 100 -221 100c-95.333 0 -170.333 -33 -225 -99c-49.333 -60 -75.666 -138.667 -78.999 -236h600z
M858.001 1397c0 -43.333 -23 -77.333 -69 -102c-36 -18.667 -78.333 -29 -127 -31c-6 2.66699 -12.333 4 -19 4c-22 0 -54.667 6.16699 -98 18.5s-76 18.5 -98 18.5c-16.667 0 -60 -13.667 -130 -41c-42 20 -63 46.667 -63 80c0 86 60 129 180 129c27.333 0 65 -6 113 -18
c63.333 -15.333 100.333 -23 111 -23c12.667 0 34 6.83301 64 20.5s53 20.5 69 20.5c18.667 0 34.5 -7.83301 47.5 -23.5s19.5 -33.167 19.5 -52.5z" />
    <glyph glyph-name="glyph266" unicode="&#x1ebe;" horiz-adv-x="908" 
d="M824 80c0 -53.333 -29.667 -80 -89 -80h-526c-58.667 -0 -88 32.333 -88 97v1263c0 66.667 25.333 100 76 100h551c50.667 0 76 -27.667 76 -83c0 -56 -26.667 -84 -80 -84h-445v-482h406c53.333 0 80 -28 80 -84s-28 -84 -84 -84h-402v-475h449
c50.667 0 76 -29.333 76 -88zM781 1641c0 -49.333 -25.333 -74 -76 -74c-12.667 0 -94 30.667 -244 92c-156.667 -61.333 -240.667 -92 -252 -92c-46.667 0 -70 24.667 -70 74c0 39.333 16.333 66 49 80l273 115l266 -115c36 -16 54 -42.667 54 -80zM679 2092
c0 -32 -22.333 -57.333 -67 -76l-240 -101c-16 -6.66699 -38 -10 -66 -10c-20 0 -38.167 7 -54.5 21s-24.5 31 -24.5 51c0 36.667 26.333 66 79 88l242 98c13.333 5.33301 29 8 47 8c22 0 41.5 -7.83301 58.5 -23.5s25.5 -34.167 25.5 -55.5z" />
    <glyph glyph-name="glyph267" unicode="&#x1ebf;" horiz-adv-x="1065" 
d="M1012 563c0 -58.667 -33.3311 -87.998 -99.998 -87.998h-680c1.33301 -102 31.5 -182.667 90.5 -242s139.167 -89 240.5 -89c98 0 195.667 37.333 293 112c28.667 22 51.334 33 68.001 33c42 0 63 -25.333 63 -76c0 -61.333 -65.333 -120.333 -196 -177
c-74 -32.667 -153.333 -49 -238 -49c-158 0 -282.667 54.333 -374 163c-85.333 101.333 -129.333 233 -132 395c2.66699 4.66699 4 8 4 10c1.33301 21.333 4.66602 53.666 9.99902 96.999c25.333 160.667 98.666 284.667 219.999 372c73.333 53.333 157.333 80 252 80
c141.333 0 257.666 -55.667 348.999 -167c86.667 -104.667 130 -229.334 130 -374.001zM832.002 613.002c-2 96.667 -27.001 175 -75.001 235c-53.333 66.667 -127 100 -221 100c-95.333 0 -170.333 -33 -225 -99c-49.333 -60 -75.666 -138.667 -78.999 -236h600z
M865.001 1313c0 -49.333 -25.333 -74 -76 -74c-12.667 0 -94 30.667 -244 92c-156.667 -61.333 -240.667 -92 -252 -92c-46.667 0 -70 24.667 -70 74c0 39.333 16.333 66 49 80l273 115l266 -115c36 -16 54 -42.667 54 -80zM762.001 1764c0 -32 -22.333 -57.333 -67 -76
l-240 -101c-16 -6.66699 -38 -10 -66 -10c-20 0 -38.167 7 -54.5 21s-24.5 31 -24.5 51c0 36.667 26.333 66 79 88l242 98c13.333 5.33301 29 8 47 8c22 0 41.5 -7.83301 58.5 -23.5s25.5 -34.167 25.5 -55.5zM762.001 1764c0 -32 -22.333 -57.333 -67 -76l-240 -101
c-16 -6.66699 -38 -10 -66 -10c-20 0 -38.167 7 -54.5 21s-24.5 31 -24.5 51c0 36.667 26.333 66 79 88l242 98c13.333 5.33301 29 8 47 8c22 0 41.5 -7.83301 58.5 -23.5s25.5 -34.167 25.5 -55.5z" />
    <glyph glyph-name="glyph268" unicode="&#x1ec0;" horiz-adv-x="908" 
d="M824 80c0 -53.333 -29.667 -80 -89 -80h-526c-58.667 -0 -88 32.333 -88 97v1263c0 66.667 25.333 100 76 100h551c50.667 0 76 -27.667 76 -83c0 -56 -26.667 -84 -80 -84h-445v-482h406c53.333 0 80 -28 80 -84s-28 -84 -84 -84h-402v-475h449
c50.667 0 76 -29.333 76 -88zM781 1641c0 -49.333 -25.333 -74 -76 -74c-12.667 0 -94 30.667 -244 92c-156.667 -61.333 -240.667 -92 -252 -92c-46.667 0 -70 24.667 -70 74c0 39.333 16.333 66 49 80l273 115l266 -115c36 -16 54 -42.667 54 -80zM703 1976
c0 -50.667 -29.332 -75.999 -87.999 -75.999c-4.66699 0 -20.334 3.33301 -47.001 10l-260 105c-43.333 17.333 -65 42.666 -65 75.999c0 22.667 8.66699 42.334 26 59c17.333 16.667 38 25 62 25c14 0 24.667 -1.66699 32 -5l273 -114c44.667 -19.333 67 -46 67 -80z" />
    <glyph glyph-name="glyph269" unicode="&#x1ec1;" horiz-adv-x="1065" 
d="M1012 563c0 -58.667 -33.3311 -87.998 -99.998 -87.998h-680c1.33301 -102 31.5 -182.667 90.5 -242s139.167 -89 240.5 -89c98 0 195.667 37.333 293 112c28.667 22 51.334 33 68.001 33c42 0 63 -25.333 63 -76c0 -61.333 -65.333 -120.333 -196 -177
c-74 -32.667 -153.333 -49 -238 -49c-158 0 -282.667 54.333 -374 163c-85.333 101.333 -129.333 233 -132 395c2.66699 4.66699 4 8 4 10c1.33301 21.333 4.66602 53.666 9.99902 96.999c25.333 160.667 98.666 284.667 219.999 372c73.333 53.333 157.333 80 252 80
c141.333 0 257.666 -55.667 348.999 -167c86.667 -104.667 130 -229.334 130 -374.001zM832.002 613.002c-2 96.667 -27.001 175 -75.001 235c-53.333 66.667 -127 100 -221 100c-95.333 0 -170.333 -33 -225 -99c-49.333 -60 -75.666 -138.667 -78.999 -236h600z
M865.001 1313c0 -49.333 -25.333 -74 -76 -74c-12.667 0 -94 30.667 -244 92c-156.667 -61.333 -240.667 -92 -252 -92c-46.667 0 -70 24.667 -70 74c0 39.333 16.333 66 49 80l273 115l266 -115c36 -16 54 -42.667 54 -80zM786.001 1649c0 -50.667 -29.332 -76 -87.999 -76
c-4.66699 0 -20.334 3.33301 -47.001 10l-260 105c-43.333 17.333 -65 42.666 -65 75.999c0 22.667 8.66699 42.334 26 59.001s38 25 62 25c14 0 24.667 -1.66699 32 -5l273 -114c44.667 -19.333 67 -46 67 -80z" />
    <glyph glyph-name="glyph270" unicode="&#x1ec2;" horiz-adv-x="908" 
d="M824 80c0 -53.333 -29.667 -80 -89 -80h-526c-58.667 -0 -88 32.333 -88 97v1263c0 66.667 25.333 100 76 100h551c50.667 0 76 -27.667 76 -83c0 -56 -26.667 -84 -80 -84h-445v-482h406c53.333 0 80 -28 80 -84s-28 -84 -84 -84h-402v-475h449
c50.667 0 76 -29.333 76 -88zM781 1641c0 -49.333 -25.333 -74 -76 -74c-12.667 0 -94 30.667 -244 92c-156.667 -61.333 -240.667 -92 -252 -92c-46.667 0 -70 24.667 -70 74c0 39.333 16.333 66 49 80l273 115l266 -115c36 -16 54 -42.667 54 -80zM852 2079
c0 -54 -14.333 -98 -43 -132c-24.667 -29.333 -55.667 -47 -93 -53v-37c0 -22 -23 -33 -69 -33c-44 0 -66 11 -66 33v99c0 16.667 21.333 30.167 64 40.5s64 34.833 64 73.5c0 57.333 -29 86 -87 86c-47.333 0 -71 -19.333 -71 -58c0 -22.667 -21.667 -34 -65 -34
c-38.667 0 -58 12 -58 36c0 49.333 18 91.333 54 126c38.667 37.333 88.667 56 150 56c64.667 0 117.5 -19.5 158.5 -58.5s61.5 -87.167 61.5 -144.5z" />
    <glyph glyph-name="glyph271" unicode="&#x1ec3;" horiz-adv-x="1065" 
d="M1012 563c0 -58.667 -33.3311 -87.998 -99.998 -87.998h-680c1.33301 -102 31.5 -182.667 90.5 -242s139.167 -89 240.5 -89c98 0 195.667 37.333 293 112c28.667 22 51.334 33 68.001 33c42 0 63 -25.333 63 -76c0 -61.333 -65.333 -120.333 -196 -177
c-74 -32.667 -153.333 -49 -238 -49c-158 0 -282.667 54.333 -374 163c-85.333 101.333 -129.333 233 -132 395c2.66699 4.66699 4 8 4 10c1.33301 21.333 4.66602 53.666 9.99902 96.999c25.333 160.667 98.666 284.667 219.999 372c73.333 53.333 157.333 80 252 80
c141.333 0 257.666 -55.667 348.999 -167c86.667 -104.667 130 -229.334 130 -374.001zM832.002 613.002c-2 96.667 -27.001 175 -75.001 235c-53.333 66.667 -127 100 -221 100c-95.333 0 -170.333 -33 -225 -99c-49.333 -60 -75.666 -138.667 -78.999 -236h600z
M865.001 1313c0 -49.333 -25.333 -74 -76 -74c-12.667 0 -94 30.667 -244 92c-156.667 -61.333 -240.667 -92 -252 -92c-46.667 0 -70 24.667 -70 74c0 39.333 16.333 66 49 80l273 115l266 -115c36 -16 54 -42.667 54 -80zM935.001 1752c0 -54 -14.333 -98 -43 -132
c-24.667 -29.333 -55.667 -47 -93 -53v-37c0 -22 -23 -33 -69 -33c-44 0 -66 11 -66 33v99c0 16.667 21.333 30.167 64 40.5s64 34.833 64 73.5c0 57.333 -29 86 -87 86c-47.333 0 -71 -19.333 -71 -58c0 -22.667 -21.667 -34 -65 -34c-38.667 0 -58 12 -58 36
c0 49.333 18 91.333 54 126c38.667 37.333 88.667 56 150 56c64.667 0 117.5 -19.5 158.5 -58.5s61.5 -87.167 61.5 -144.5z" />
    <glyph glyph-name="glyph272" unicode="&#x1ec4;" horiz-adv-x="908" 
d="M824 80c0 -53.333 -29.667 -80 -89 -80h-526c-58.667 -0 -88 32.333 -88 97v1263c0 66.667 25.333 100 76 100h551c50.667 0 76 -27.667 76 -83c0 -56 -26.667 -84 -80 -84h-445v-482h406c53.333 0 80 -28 80 -84s-28 -84 -84 -84h-402v-475h449
c50.667 0 76 -29.333 76 -88zM781 1641c0 -49.333 -25.333 -74 -76 -74c-12.667 0 -94 30.667 -244 92c-156.667 -61.333 -240.667 -92 -252 -92c-46.667 0 -70 24.667 -70 74c0 39.333 16.333 66 49 80l273 115l266 -115c36 -16 54 -42.667 54 -80zM854 2044
c0 -43.333 -23 -77.333 -69 -102c-36 -18.667 -78.333 -29 -127 -31c-6 2.66699 -12.333 4 -19 4c-22 0 -54.667 6.16699 -98 18.5s-76 18.5 -98 18.5c-16.667 0 -60 -13.667 -130 -41c-42 20 -63 46.667 -63 80c0 86 60 129 180 129c27.333 0 65 -6 113 -18
c63.333 -15.333 100.333 -23 111 -23c12.667 0 34 6.83301 64 20.5s53 20.5 69 20.5c18.667 0 34.5 -7.83301 47.5 -23.5s19.5 -33.167 19.5 -52.5z" />
    <glyph glyph-name="glyph273" unicode="&#x1ec5;" horiz-adv-x="1065" 
d="M1012 563c0 -58.667 -33.3311 -87.998 -99.998 -87.998h-680c1.33301 -102 31.5 -182.667 90.5 -242s139.167 -89 240.5 -89c98 0 195.667 37.333 293 112c28.667 22 51.334 33 68.001 33c42 0 63 -25.333 63 -76c0 -61.333 -65.333 -120.333 -196 -177
c-74 -32.667 -153.333 -49 -238 -49c-158 0 -282.667 54.333 -374 163c-85.333 101.333 -129.333 233 -132 395c2.66699 4.66699 4 8 4 10c1.33301 21.333 4.66602 53.666 9.99902 96.999c25.333 160.667 98.666 284.667 219.999 372c73.333 53.333 157.333 80 252 80
c141.333 0 257.666 -55.667 348.999 -167c86.667 -104.667 130 -229.334 130 -374.001zM832.002 613.002c-2 96.667 -27.001 175 -75.001 235c-53.333 66.667 -127 100 -221 100c-95.333 0 -170.333 -33 -225 -99c-49.333 -60 -75.666 -138.667 -78.999 -236h600z
M865.001 1313c0 -49.333 -25.333 -74 -76 -74c-12.667 0 -94 30.667 -244 92c-156.667 -61.333 -240.667 -92 -252 -92c-46.667 0 -70 24.667 -70 74c0 39.333 16.333 66 49 80l273 115l266 -115c36 -16 54 -42.667 54 -80zM937.001 1716c0 -43.333 -23 -77.333 -69 -102
c-36 -18.667 -78.333 -29 -127 -31c-6 2.66699 -12.333 4 -19 4c-22 0 -54.667 6.16699 -98 18.5s-76 18.5 -98 18.5c-16.667 0 -60 -13.667 -130 -41c-42 20 -63 46.667 -63 80c0 86 60 129 180 129c27.333 0 65 -6 113 -18c63.333 -15.333 100.333 -23 111 -23
c12.667 0 34 6.83301 64 20.5s53 20.5 69 20.5c18.667 0 34.5 -7.83301 47.5 -23.5s19.5 -33.167 19.5 -52.5z" />
    <glyph glyph-name="glyph274" unicode="&#x1ec6;" horiz-adv-x="908" 
d="M824 80c0 -53.333 -29.667 -80 -89 -80h-526c-58.667 -0 -88 32.333 -88 97v1263c0 66.667 25.333 100 76 100h551c50.667 0 76 -27.667 76 -83c0 -56 -26.667 -84 -80 -84h-445v-482h406c53.333 0 80 -28 80 -84s-28 -84 -84 -84h-402v-475h449
c50.667 0 76 -29.333 76 -88zM781 1641c0 -49.333 -25.333 -74 -76 -74c-12.667 0 -94 30.667 -244 92c-156.667 -61.333 -240.667 -92 -252 -92c-46.667 0 -70 24.667 -70 74c0 39.333 16.333 66 49 80l273 115l266 -115c36 -16 54 -42.667 54 -80zM566 -241
c0 -28 -10.501 -52.5 -31.501 -73.5s-45.5 -31.5 -73.5 -31.5s-52.333 10.5 -73 31.5s-31 45.5 -31 73.5c0 28.667 10.167 53.334 30.5 74.001s44.833 31 73.5 31s53.334 -10.333 74.001 -31s31 -45.334 31 -74.001z" />
    <glyph glyph-name="glyph275" unicode="&#x1ec7;" horiz-adv-x="1065" 
d="M1012 563c0 -58.667 -33.3311 -87.998 -99.998 -87.998h-680c1.33301 -102 31.5 -182.667 90.5 -242s139.167 -89 240.5 -89c98 0 195.667 37.333 293 112c28.667 22 51.334 33 68.001 33c42 0 63 -25.333 63 -76c0 -61.333 -65.333 -120.333 -196 -177
c-74 -32.667 -153.333 -49 -238 -49c-158 0 -282.667 54.333 -374 163c-85.333 101.333 -129.333 233 -132 395c2.66699 4.66699 4 8 4 10c1.33301 21.333 4.66602 53.666 9.99902 96.999c25.333 160.667 98.666 284.667 219.999 372c73.333 53.333 157.333 80 252 80
c141.333 0 257.666 -55.667 348.999 -167c86.667 -104.667 130 -229.334 130 -374.001zM832.002 613.002c-2 96.667 -27.001 175 -75.001 235c-53.333 66.667 -127 100 -221 100c-95.333 0 -170.333 -33 -225 -99c-49.333 -60 -75.666 -138.667 -78.999 -236h600z
M865.001 1313c0 -49.333 -25.333 -74 -76 -74c-12.667 0 -94 30.667 -244 92c-156.667 -61.333 -240.667 -92 -252 -92c-46.667 0 -70 24.667 -70 74c0 39.333 16.333 66 49 80l273 115l266 -115c36 -16 54 -42.667 54 -80zM648.001 -240.998
c0 -28 -10.501 -52.5 -31.501 -73.5s-45.5 -31.5 -73.5 -31.5s-52.333 10.5 -73 31.5s-31 45.5 -31 73.5c0 28.667 10.167 53.334 30.5 74.001s44.833 31 73.5 31s53.334 -10.333 74.001 -31s31 -45.334 31 -74.001z" />
    <glyph glyph-name="glyph276" unicode="&#x1ec8;" horiz-adv-x="416" 
d="M299 88c0 -67.333 -28.667 -101 -86 -101c-61.333 0 -92 32.333 -92 97v1293c0 64 30.667 96 92 96c57.333 0 86 -32 86 -96v-1289zM431 1786c0 -54 -14.333 -98 -43 -132c-24.667 -29.333 -55.667 -47 -93 -53v-37c0 -22 -23 -33 -69 -33c-44 0 -66 11 -66 33v99
c0 16.667 21.333 30.167 64 40.5s64 34.833 64 73.5c0 57.333 -29 86 -87 86c-47.333 0 -71 -19.333 -71 -58c0 -22.667 -21.667 -34 -65 -34c-38.667 0 -58 12 -58 36c0 49.333 18 91.333 54 126c38.667 37.333 88.667 56 150 56c64.667 0 117.5 -19.5 158.5 -58.5
s61.5 -87.167 61.5 -144.5z" />
    <glyph glyph-name="glyph277" unicode="&#x1ec9;" horiz-adv-x="416" 
d="M299 80c0 -62 -30 -93 -90 -93c-58.667 0 -88 31 -88 93v932c0 61.333 29.333 92 88 92c60 0 90 -32 90 -96v-928zM430 1477c0 -54 -14.333 -98 -43 -132c-24.667 -29.333 -55.667 -47 -93 -53v-37c0 -22 -23 -33 -69 -33c-44 0 -66 11 -66 33v99
c0 16.667 21.333 30.167 64 40.5s64 34.833 64 73.5c0 57.333 -29 86 -87 86c-47.333 0 -71 -19.333 -71 -58c0 -22.667 -21.667 -34 -65 -34c-38.667 0 -58 12 -58 36c0 49.333 18 91.333 54 126c38.667 37.333 88.667 56 150 56c64.667 0 117.5 -19.5 158.5 -58.5
s61.5 -87.167 61.5 -144.5z" />
    <glyph glyph-name="glyph278" unicode="&#x1eca;" horiz-adv-x="416" 
d="M299 88c0 -67.333 -28.667 -101 -86 -101c-61.333 0 -92 32.333 -92 97v1293c0 64 30.667 96 92 96c57.333 0 86 -32 86 -96v-1289zM316 -241c0 -28 -10.501 -52.5 -31.501 -73.5s-45.5 -31.5 -73.5 -31.5s-52.333 10.5 -73 31.5s-31 45.5 -31 73.5
c0 28.667 10.167 53.334 30.5 74.001s44.833 31 73.5 31s53.334 -10.333 74.001 -31s31 -45.334 31 -74.001z" />
    <glyph glyph-name="glyph279" unicode="&#x1ecb;" horiz-adv-x="416" 
d="M320 1360c0 -30 -11.001 -56.333 -33.001 -79s-48 -34 -78 -34c-30.667 0 -57 11.167 -79 33.5s-33 48.833 -33 79.5s11 57.167 33 79.5s48.333 33.5 79 33.5s56.834 -11.167 78.501 -33.5s32.5 -48.833 32.5 -79.5zM298.999 80c0 -62 -30 -93 -90 -93
c-58.667 0 -88 31 -88 93v928c0 64 29.333 96 88 96c60 0 90 -30.667 90 -92v-932zM315.999 -241c0 -28 -10.501 -52.5 -31.501 -73.5s-45.5 -31.5 -73.5 -31.5s-52.333 10.5 -73 31.5s-31 45.5 -31 73.5c0 28.667 10.167 53.334 30.5 74.001s44.833 31 73.5 31
s53.334 -10.333 74.001 -31s31 -45.334 31 -74.001z" />
    <glyph glyph-name="glyph280" unicode="&#x1ecc;" horiz-adv-x="1401" 
d="M1344 719c0 -200.667 -55.667 -370 -167 -508c-120 -149.333 -277.333 -224 -472 -224c-197.333 0 -356 76 -476 228c-110 139.333 -165 310 -165 512c0 204 54.667 376 164 516c119.333 153.333 278.333 230 477 230c200.667 0 360 -77.333 478 -232
c107.333 -140.667 161 -314.667 161 -522zM1153 737c0 160 -33.667 291.999 -101 395.999c-80 122.667 -195.667 184 -347 184c-150.667 0 -266.334 -62.667 -347.001 -188c-68 -106 -102 -238.667 -102 -398c0 -161.333 33.667 -294.666 101 -399.999
c79.333 -124.667 195.333 -187 348 -187c150.667 0 266.334 63.667 347.001 191c67.333 107.333 101 241.333 101 402zM811 -241.001c0 -28 -10.501 -52.5 -31.501 -73.5s-45.5 -31.5 -73.5 -31.5s-52.333 10.5 -73 31.5s-31 45.5 -31 73.5
c0 28.667 10.167 53.334 30.5 74.001s44.833 31 73.5 31s53.334 -10.333 74.001 -31s31 -45.334 31 -74.001z" />
    <glyph glyph-name="glyph281" unicode="&#x1ecd;" 
d="M1032 545c0 -218.667 -75 -379.332 -225 -481.999c-73.333 -50.667 -158 -76 -254 -76c-150 0 -269.667 56.667 -359 170c-81.333 104 -122 233.333 -122 388c0 223.333 77.667 385.666 233 486.999c74 48 156.667 72 248 72c146 0 264 -58 354 -174
c83.333 -106.667 125 -235 125 -385zM852 551.002c0 106.667 -22.667 196.333 -68 269c-54 85.333 -131 128 -231 128c-103.333 0 -181.333 -43.333 -234 -130c-44.667 -72 -67 -163 -67 -273c0 -107.333 22 -197.333 66 -270c53.333 -87.333 130.333 -131 231 -131
c104.667 0 183.667 43.333 237 130c44 72 66 164.333 66 277zM654 -240.999c0 -28 -10.501 -52.5 -31.501 -73.5s-45.5 -31.5 -73.5 -31.5s-52.333 10.5 -73 31.5s-31 45.5 -31 73.5c0 28.667 10.167 53.334 30.5 74.001s44.833 31 73.5 31s53.334 -10.333 74.001 -31
s31 -45.334 31 -74.001z" />
    <glyph glyph-name="glyph282" unicode="&#x1ece;" horiz-adv-x="1401" 
d="M1344 719c0 -200.667 -55.667 -370 -167 -508c-120 -149.333 -277.333 -224 -472 -224c-197.333 0 -356 76 -476 228c-110 139.333 -165 310 -165 512c0 204 54.667 376 164 516c119.333 153.333 278.333 230 477 230c200.667 0 360 -77.333 478 -232
c107.333 -140.667 161 -314.667 161 -522zM1153 737c0 160 -33.667 291.999 -101 395.999c-80 122.667 -195.667 184 -347 184c-150.667 0 -266.334 -62.667 -347.001 -188c-68 -106 -102 -238.667 -102 -398c0 -161.333 33.667 -294.666 101 -399.999
c79.333 -124.667 195.333 -187 348 -187c150.667 0 266.334 63.667 347.001 191c67.333 107.333 101 241.333 101 402zM931 1786c0 -54 -14.333 -98 -43 -132c-24.667 -29.333 -55.667 -47 -93 -53v-37c0 -22 -23 -33 -69 -33c-44 0 -66 11 -66 33v99
c0 16.667 21.333 30.167 64 40.5s64 34.833 64 73.5c0 57.333 -29 86 -87 86c-47.333 0 -71 -19.333 -71 -58c0 -22.667 -21.667 -34 -65 -34c-38.667 0 -58 12 -58 36c0 49.333 18 91.333 54 126c38.667 37.333 88.667 56 150 56c64.667 0 117.5 -19.5 158.5 -58.5
s61.5 -87.167 61.5 -144.5z" />
    <glyph glyph-name="glyph283" unicode="&#x1ecf;" 
d="M1032 545c0 -218.667 -75 -379.332 -225 -481.999c-73.333 -50.667 -158 -76 -254 -76c-150 0 -269.667 56.667 -359 170c-81.333 104 -122 233.333 -122 388c0 223.333 77.667 385.666 233 486.999c74 48 156.667 72 248 72c146 0 264 -58 354 -174
c83.333 -106.667 125 -235 125 -385zM852 551.002c0 106.667 -22.667 196.333 -68 269c-54 85.333 -131 128 -231 128c-103.333 0 -181.333 -43.333 -234 -130c-44.667 -72 -67 -163 -67 -273c0 -107.333 22 -197.333 66 -270c53.333 -87.333 130.333 -131 231 -131
c104.667 0 183.667 43.333 237 130c44 72 66 164.333 66 277zM775 1477c0 -54 -14.333 -98 -43 -132c-24.667 -29.333 -55.667 -47 -93 -53v-37c0 -22 -23 -33 -69 -33c-44 0 -66 11 -66 33v99c0 16.667 21.333 30.167 64 40.5s64 34.833 64 73.5c0 57.333 -29 86 -87 86
c-47.333 0 -71 -19.333 -71 -58c0 -22.667 -21.667 -34 -65 -34c-38.667 0 -58 12 -58 36c0 49.333 18 91.333 54 126c38.667 37.333 88.667 56 150 56c64.667 0 117.5 -19.5 158.5 -58.5s61.5 -87.167 61.5 -144.5z" />
    <glyph glyph-name="glyph284" unicode="&#x1ed0;" horiz-adv-x="1401" 
d="M1344 719c0 -200.667 -55.667 -370 -167 -508c-120 -149.333 -277.333 -224 -472 -224c-197.333 0 -356 76 -476 228c-110 139.333 -165 310 -165 512c0 204 54.667 376 164 516c119.333 153.333 278.333 230 477 230c200.667 0 360 -77.333 478 -232
c107.333 -140.667 161 -314.667 161 -522zM1153 737c0 160 -33.667 291.999 -101 395.999c-80 122.667 -195.667 184 -347 184c-150.667 0 -266.334 -62.667 -347.001 -188c-68 -106 -102 -238.667 -102 -398c0 -161.333 33.667 -294.666 101 -399.999
c79.333 -124.667 195.333 -187 348 -187c150.667 0 266.334 63.667 347.001 191c67.333 107.333 101 241.333 101 402zM1026 1641c0 -49.333 -25.333 -74 -76 -74c-12.667 0 -94 30.667 -244 92c-156.667 -61.333 -240.667 -92 -252 -92c-46.667 0 -70 24.667 -70 74
c0 39.333 16.333 66 49 80l273 115l266 -115c36 -16 54 -42.667 54 -80zM923 2092c0 -32 -22.333 -57.333 -67 -76l-240 -101c-16 -6.66699 -38 -10 -66 -10c-20 0 -38.167 7 -54.5 21s-24.5 31 -24.5 51c0 36.667 26.333 66 79 88l242 98c13.333 5.33301 29 8 47 8
c22 0 41.5 -7.83301 58.5 -23.5s25.5 -34.167 25.5 -55.5z" />
    <glyph glyph-name="glyph285" unicode="&#x1ed1;" 
d="M1032 545c0 -218.667 -75 -379.332 -225 -481.999c-73.333 -50.667 -158 -76 -254 -76c-150 0 -269.667 56.667 -359 170c-81.333 104 -122 233.333 -122 388c0 223.333 77.667 385.666 233 486.999c74 48 156.667 72 248 72c146 0 264 -58 354 -174
c83.333 -106.667 125 -235 125 -385zM852 551.002c0 106.667 -22.667 196.333 -68 269c-54 85.333 -131 128 -231 128c-103.333 0 -181.333 -43.333 -234 -130c-44.667 -72 -67 -163 -67 -273c0 -107.333 22 -197.333 66 -270c53.333 -87.333 130.333 -131 231 -131
c104.667 0 183.667 43.333 237 130c44 72 66 164.333 66 277zM875 1313c0 -49.333 -25.333 -74 -76 -74c-12.667 0 -94 30.667 -244 92c-156.667 -61.333 -240.667 -92 -252 -92c-46.667 0 -70 24.667 -70 74c0 39.333 16.333 66 49 80l273 115l266 -115
c36 -16 54 -42.667 54 -80zM772 1764c0 -32 -22.333 -57.333 -67 -76l-240 -101c-16 -6.66699 -38 -10 -66 -10c-20 0 -38.167 7 -54.5 21s-24.5 31 -24.5 51c0 36.667 26.333 66 79 88l242 98c13.333 5.33301 29 8 47 8c22 0 41.5 -7.83301 58.5 -23.5
s25.5 -34.167 25.5 -55.5z" />
    <glyph glyph-name="glyph286" unicode="&#x1ed2;" horiz-adv-x="1401" 
d="M1344 719c0 -200.667 -55.667 -370 -167 -508c-120 -149.333 -277.333 -224 -472 -224c-197.333 0 -356 76 -476 228c-110 139.333 -165 310 -165 512c0 204 54.667 376 164 516c119.333 153.333 278.333 230 477 230c200.667 0 360 -77.333 478 -232
c107.333 -140.667 161 -314.667 161 -522zM1153 737c0 160 -33.667 291.999 -101 395.999c-80 122.667 -195.667 184 -347 184c-150.667 0 -266.334 -62.667 -347.001 -188c-68 -106 -102 -238.667 -102 -398c0 -161.333 33.667 -294.666 101 -399.999
c79.333 -124.667 195.333 -187 348 -187c150.667 0 266.334 63.667 347.001 191c67.333 107.333 101 241.333 101 402zM1026 1641c0 -49.333 -25.333 -74 -76 -74c-12.667 0 -94 30.667 -244 92c-156.667 -61.333 -240.667 -92 -252 -92c-46.667 0 -70 24.667 -70 74
c0 39.333 16.333 66 49 80l273 115l266 -115c36 -16 54 -42.667 54 -80zM948 1976c0 -50.667 -29.332 -76 -87.999 -76c-4.66699 0 -20.334 3.33301 -47.001 10l-260 105c-43.333 17.333 -65 42.666 -65 75.999c0 22.667 8.66699 42.334 26 59.001s38 25 62 25
c14 0 24.667 -1.66699 32 -5l273 -114c44.667 -19.333 67 -46 67 -80z" />
    <glyph glyph-name="glyph287" unicode="&#x1ed3;" 
d="M1032 545c0 -218.667 -75 -379.332 -225 -481.999c-73.333 -50.667 -158 -76 -254 -76c-150 0 -269.667 56.667 -359 170c-81.333 104 -122 233.333 -122 388c0 223.333 77.667 385.666 233 486.999c74 48 156.667 72 248 72c146 0 264 -58 354 -174
c83.333 -106.667 125 -235 125 -385zM852 551.002c0 106.667 -22.667 196.333 -68 269c-54 85.333 -131 128 -231 128c-103.333 0 -181.333 -43.333 -234 -130c-44.667 -72 -67 -163 -67 -273c0 -107.333 22 -197.333 66 -270c53.333 -87.333 130.333 -131 231 -131
c104.667 0 183.667 43.333 237 130c44 72 66 164.333 66 277zM875 1313c0 -49.333 -25.333 -74 -76 -74c-12.667 0 -94 30.667 -244 92c-156.667 -61.333 -240.667 -92 -252 -92c-46.667 0 -70 24.667 -70 74c0 39.333 16.333 66 49 80l273 115l266 -115
c36 -16 54 -42.667 54 -80zM796 1649c0 -50.667 -29.332 -76 -87.999 -76c-4.66699 0 -20.334 3.33301 -47.001 10l-260 105c-43.333 17.333 -65 42.666 -65 75.999c0 22.667 8.66699 42.334 26 59.001s38 25 62 25c14 0 24.667 -1.66699 32 -5l273 -114
c44.667 -19.333 67 -46 67 -80z" />
    <glyph glyph-name="glyph288" unicode="&#x1ed4;" horiz-adv-x="1401" 
d="M1344 719c0 -200.667 -55.667 -370 -167 -508c-120 -149.333 -277.333 -224 -472 -224c-197.333 0 -356 76 -476 228c-110 139.333 -165 310 -165 512c0 204 54.667 376 164 516c119.333 153.333 278.333 230 477 230c200.667 0 360 -77.333 478 -232
c107.333 -140.667 161 -314.667 161 -522zM1153 737c0 160 -33.667 291.999 -101 395.999c-80 122.667 -195.667 184 -347 184c-150.667 0 -266.334 -62.667 -347.001 -188c-68 -106 -102 -238.667 -102 -398c0 -161.333 33.667 -294.666 101 -399.999
c79.333 -124.667 195.333 -187 348 -187c150.667 0 266.334 63.667 347.001 191c67.333 107.333 101 241.333 101 402zM1026 1641c0 -49.333 -25.333 -74 -76 -74c-12.667 0 -94 30.667 -244 92c-156.667 -61.333 -240.667 -92 -252 -92c-46.667 0 -70 24.667 -70 74
c0 39.333 16.333 66 49 80l273 115l266 -115c36 -16 54 -42.667 54 -80zM1096 2079c0 -54 -14.333 -98 -43 -132c-24.667 -29.333 -55.667 -47 -93 -53v-37c0 -22 -23 -33 -69 -33c-44 0 -66 11 -66 33v99c0 16.667 21.333 30.167 64 40.5s64 34.833 64 73.5
c0 57.333 -29 86 -87 86c-47.333 0 -71 -19.333 -71 -58c0 -22.667 -21.667 -34 -65 -34c-38.667 0 -58 12 -58 36c0 49.333 18 91.333 54 126c38.667 37.333 88.667 56 150 56c64.667 0 117.5 -19.5 158.5 -58.5s61.5 -87.167 61.5 -144.5z" />
    <glyph glyph-name="glyph289" unicode="&#x1ed5;" 
d="M1032 545c0 -218.667 -75 -379.332 -225 -481.999c-73.333 -50.667 -158 -76 -254 -76c-150 0 -269.667 56.667 -359 170c-81.333 104 -122 233.333 -122 388c0 223.333 77.667 385.666 233 486.999c74 48 156.667 72 248 72c146 0 264 -58 354 -174
c83.333 -106.667 125 -235 125 -385zM852 551.002c0 106.667 -22.667 196.333 -68 269c-54 85.333 -131 128 -231 128c-103.333 0 -181.333 -43.333 -234 -130c-44.667 -72 -67 -163 -67 -273c0 -107.333 22 -197.333 66 -270c53.333 -87.333 130.333 -131 231 -131
c104.667 0 183.667 43.333 237 130c44 72 66 164.333 66 277zM875 1313c0 -49.333 -25.333 -74 -76 -74c-12.667 0 -94 30.667 -244 92c-156.667 -61.333 -240.667 -92 -252 -92c-46.667 0 -70 24.667 -70 74c0 39.333 16.333 66 49 80l273 115l266 -115
c36 -16 54 -42.667 54 -80zM945 1752c0 -54 -14.333 -98 -43 -132c-24.667 -29.333 -55.667 -47 -93 -53v-37c0 -22 -23 -33 -69 -33c-44 0 -66 11 -66 33v99c0 16.667 21.333 30.167 64 40.5s64 34.833 64 73.5c0 57.333 -29 86 -87 86c-47.333 0 -71 -19.333 -71 -58
c0 -22.667 -21.667 -34 -65 -34c-38.667 0 -58 12 -58 36c0 49.333 18 91.333 54 126c38.667 37.333 88.667 56 150 56c64.667 0 117.5 -19.5 158.5 -58.5s61.5 -87.167 61.5 -144.5z" />
    <glyph glyph-name="glyph290" unicode="&#x1ed6;" horiz-adv-x="1401" 
d="M1344 719c0 -200.667 -55.667 -370 -167 -508c-120 -149.333 -277.333 -224 -472 -224c-197.333 0 -356 76 -476 228c-110 139.333 -165 310 -165 512c0 204 54.667 376 164 516c119.333 153.333 278.333 230 477 230c200.667 0 360 -77.333 478 -232
c107.333 -140.667 161 -314.667 161 -522zM1153 737c0 160 -33.667 291.999 -101 395.999c-80 122.667 -195.667 184 -347 184c-150.667 0 -266.334 -62.667 -347.001 -188c-68 -106 -102 -238.667 -102 -398c0 -161.333 33.667 -294.666 101 -399.999
c79.333 -124.667 195.333 -187 348 -187c150.667 0 266.334 63.667 347.001 191c67.333 107.333 101 241.333 101 402zM1026 1641c0 -49.333 -25.333 -74 -76 -74c-12.667 0 -94 30.667 -244 92c-156.667 -61.333 -240.667 -92 -252 -92c-46.667 0 -70 24.667 -70 74
c0 39.333 16.333 66 49 80l273 115l266 -115c36 -16 54 -42.667 54 -80zM1098 2044c0 -43.333 -23 -77.333 -69 -102c-36 -18.667 -78.333 -29 -127 -31c-6 2.66699 -12.333 4 -19 4c-22 0 -54.667 6.16699 -98 18.5s-76 18.5 -98 18.5c-16.667 0 -60 -13.667 -130 -41
c-42 20 -63 46.667 -63 80c0 86 60 129 180 129c27.333 0 65 -6 113 -18c63.333 -15.333 100.333 -23 111 -23c12.667 0 34 6.83301 64 20.5s53 20.5 69 20.5c18.667 0 34.5 -7.83301 47.5 -23.5s19.5 -33.167 19.5 -52.5z" />
    <glyph glyph-name="glyph291" unicode="&#x1ed7;" 
d="M1032 545c0 -218.667 -75 -379.332 -225 -481.999c-73.333 -50.667 -158 -76 -254 -76c-150 0 -269.667 56.667 -359 170c-81.333 104 -122 233.333 -122 388c0 223.333 77.667 385.666 233 486.999c74 48 156.667 72 248 72c146 0 264 -58 354 -174
c83.333 -106.667 125 -235 125 -385zM852 551.002c0 106.667 -22.667 196.333 -68 269c-54 85.333 -131 128 -231 128c-103.333 0 -181.333 -43.333 -234 -130c-44.667 -72 -67 -163 -67 -273c0 -107.333 22 -197.333 66 -270c53.333 -87.333 130.333 -131 231 -131
c104.667 0 183.667 43.333 237 130c44 72 66 164.333 66 277zM875 1313c0 -49.333 -25.333 -74 -76 -74c-12.667 0 -94 30.667 -244 92c-156.667 -61.333 -240.667 -92 -252 -92c-46.667 0 -70 24.667 -70 74c0 39.333 16.333 66 49 80l273 115l266 -115
c36 -16 54 -42.667 54 -80zM947 1716c0 -43.333 -23 -77.333 -69 -102c-36 -18.667 -78.333 -29 -127 -31c-6 2.66699 -12.333 4 -19 4c-22 0 -54.667 6.16699 -98 18.5s-76 18.5 -98 18.5c-16.667 0 -60 -13.667 -130 -41c-42 20 -63 46.667 -63 80c0 86 60 129 180 129
c27.333 0 65 -6 113 -18c63.333 -15.333 100.333 -23 111 -23c12.667 0 34 6.83301 64 20.5s53 20.5 69 20.5c18.667 0 34.5 -7.83301 47.5 -23.5s19.5 -33.167 19.5 -52.5z" />
    <glyph glyph-name="glyph292" unicode="&#x1ed8;" horiz-adv-x="1401" 
d="M1344 719c0 -200.667 -55.667 -370 -167 -508c-120 -149.333 -277.333 -224 -472 -224c-197.333 0 -356 76 -476 228c-110 139.333 -165 310 -165 512c0 204 54.667 376 164 516c119.333 153.333 278.333 230 477 230c200.667 0 360 -77.333 478 -232
c107.333 -140.667 161 -314.667 161 -522zM1153 737c0 160 -33.667 291.999 -101 395.999c-80 122.667 -195.667 184 -347 184c-150.667 0 -266.334 -62.667 -347.001 -188c-68 -106 -102 -238.667 -102 -398c0 -161.333 33.667 -294.666 101 -399.999
c79.333 -124.667 195.333 -187 348 -187c150.667 0 266.334 63.667 347.001 191c67.333 107.333 101 241.333 101 402zM1026 1641c0 -49.333 -25.333 -74 -76 -74c-12.667 0 -94 30.667 -244 92c-156.667 -61.333 -240.667 -92 -252 -92c-46.667 0 -70 24.667 -70 74
c0 39.333 16.333 66 49 80l273 115l266 -115c36 -16 54 -42.667 54 -80zM811 -241.001c0 -28 -10.501 -52.5 -31.501 -73.5s-45.5 -31.5 -73.5 -31.5s-52.333 10.5 -73 31.5s-31 45.5 -31 73.5c0 28.667 10.167 53.334 30.5 74.001s44.833 31 73.5 31
s53.334 -10.333 74.001 -31s31 -45.334 31 -74.001z" />
    <glyph glyph-name="glyph293" unicode="&#x1ed9;" 
d="M1032 545c0 -218.667 -75 -379.332 -225 -481.999c-73.333 -50.667 -158 -76 -254 -76c-150 0 -269.667 56.667 -359 170c-81.333 104 -122 233.333 -122 388c0 223.333 77.667 385.666 233 486.999c74 48 156.667 72 248 72c146 0 264 -58 354 -174
c83.333 -106.667 125 -235 125 -385zM852 551.002c0 106.667 -22.667 196.333 -68 269c-54 85.333 -131 128 -231 128c-103.333 0 -181.333 -43.333 -234 -130c-44.667 -72 -67 -163 -67 -273c0 -107.333 22 -197.333 66 -270c53.333 -87.333 130.333 -131 231 -131
c104.667 0 183.667 43.333 237 130c44 72 66 164.333 66 277zM875 1313c0 -49.333 -25.333 -74 -76 -74c-12.667 0 -94 30.667 -244 92c-156.667 -61.333 -240.667 -92 -252 -92c-46.667 0 -70 24.667 -70 74c0 39.333 16.333 66 49 80l273 115l266 -115
c36 -16 54 -42.667 54 -80zM654 -240.999c0 -28 -10.501 -52.5 -31.501 -73.5s-45.5 -31.5 -73.5 -31.5s-52.333 10.5 -73 31.5s-31 45.5 -31 73.5c0 28.667 10.167 53.334 30.5 74.001s44.833 31 73.5 31s53.334 -10.333 74.001 -31s31 -45.334 31 -74.001z" />
    <glyph glyph-name="glyph294" unicode="&#x1eda;" horiz-adv-x="1401" 
d="M1344 719c0 -200.667 -55.667 -370 -167 -508c-120 -149.333 -277.333 -224 -472 -224c-197.333 0 -356 76 -476 228c-110 139.333 -165 310 -165 512c0 204 54.667 376 164 516c119.333 153.333 278.333 230 477 230c200.667 0 360 -77.333 478 -232
c107.333 -140.667 161 -314.667 161 -522zM1153 737c0 160 -33.667 291.999 -101 395.999c-80 122.667 -195.667 184 -347 184c-150.667 0 -266.334 -62.667 -347.001 -188c-68 -106 -102 -238.667 -102 -398c0 -161.333 33.667 -294.666 101 -399.999
c79.333 -124.667 195.333 -187 348 -187c150.667 0 266.334 63.667 347.001 191c67.333 107.333 101 241.333 101 402zM1389 1479c0 -23.333 -5.33203 -45.334 -15.999 -66.001l-130 -247c-25.333 -48 -53 -72 -83 -72c-22.667 0 -43.334 9.33301 -62.001 28
c-16.667 16.667 -27 36.667 -31 60c4 20.667 11 40.334 21 59.001l125 250c20.667 42.667 50 64 88 64c58.667 0 88 -25.333 88 -76zM928.001 1764c0 -32 -22.333 -57.333 -67 -76l-240 -101c-16 -6.66699 -38 -10 -66 -10c-20 0 -38.167 7 -54.5 21s-24.5 31 -24.5 51
c0 36.667 26.333 66 79 88l242 98c13.333 5.33301 29 8 47 8c22 0 41.5 -7.83301 58.5 -23.5s25.5 -34.167 25.5 -55.5z" />
    <glyph glyph-name="glyph295" unicode="&#x1edb;" horiz-adv-x="1127" 
d="M1032 545c0 -218.667 -75 -379.332 -225 -481.999c-73.333 -50.667 -158 -76 -254 -76c-150 0 -269.667 56.667 -359 170c-81.333 104 -122 233.333 -122 388c0 223.333 77.667 385.666 233 486.999c74 48 156.667 72 248 72c146 0 264 -58 354 -174
c83.333 -106.667 125 -235 125 -385zM852 551.002c0 106.667 -22.667 196.333 -68 269c-54 85.333 -131 128 -231 128c-103.333 0 -181.333 -43.333 -234 -130c-44.667 -72 -67 -163 -67 -273c0 -107.333 22 -197.333 66 -270c53.333 -87.333 130.333 -131 231 -131
c104.667 0 183.667 43.333 237 130c44 72 66 164.333 66 277zM1143 1106c0 -23.333 -5.33203 -45.334 -15.999 -66.001l-130 -247c-25.333 -48 -53 -72 -83 -72c-22.667 0 -43.334 9.33301 -62.001 28c-16.667 16.667 -27 36.667 -31 60c4 20.667 11 40.334 21 59.001
l125 250c20.667 42.667 50 64 88 64c58.667 0 88 -25.333 88 -76zM780.001 1440c0 -32 -22.333 -57.333 -67 -76l-240 -101c-16 -6.66699 -38 -10 -66 -10c-20 0 -38.167 7 -54.5 21s-24.5 31 -24.5 51c0 36.667 26.333 66 79 88l242 98c13.333 5.33301 29 8 47 8
c22 0 41.5 -7.83301 58.5 -23.5s25.5 -34.167 25.5 -55.5z" />
    <glyph glyph-name="glyph296" unicode="&#x1edc;" horiz-adv-x="1401" 
d="M1344 719c0 -200.667 -55.667 -370 -167 -508c-120 -149.333 -277.333 -224 -472 -224c-197.333 0 -356 76 -476 228c-110 139.333 -165 310 -165 512c0 204 54.667 376 164 516c119.333 153.333 278.333 230 477 230c200.667 0 360 -77.333 478 -232
c107.333 -140.667 161 -314.667 161 -522zM1153 737c0 160 -33.667 291.999 -101 395.999c-80 122.667 -195.667 184 -347 184c-150.667 0 -266.334 -62.667 -347.001 -188c-68 -106 -102 -238.667 -102 -398c0 -161.333 33.667 -294.666 101 -399.999
c79.333 -124.667 195.333 -187 348 -187c150.667 0 266.334 63.667 347.001 191c67.333 107.333 101 241.333 101 402zM1389 1479c0 -23.333 -5.33203 -45.334 -15.999 -66.001l-130 -247c-25.333 -48 -53 -72 -83 -72c-22.667 0 -43.334 9.33301 -62.001 28
c-16.667 16.667 -27 36.667 -31 60c4 20.667 11 40.334 21 59.001l125 250c20.667 42.667 50 64 88 64c58.667 0 88 -25.333 88 -76zM936.001 1653c0 -50.667 -29.332 -76 -87.999 -76c-4.66699 0 -20.334 3.33301 -47.001 10l-260 105
c-43.333 17.333 -65 42.666 -65 75.999c0 22.667 8.66699 42.334 26 59.001s38 25 62 25c14 0 24.667 -1.66699 32 -5l273 -114c44.667 -19.333 67 -46 67 -80z" />
    <glyph glyph-name="glyph297" unicode="&#x1edd;" horiz-adv-x="1127" 
d="M1032 545c0 -218.667 -75 -379.332 -225 -481.999c-73.333 -50.667 -158 -76 -254 -76c-150 0 -269.667 56.667 -359 170c-81.333 104 -122 233.333 -122 388c0 223.333 77.667 385.666 233 486.999c74 48 156.667 72 248 72c146 0 264 -58 354 -174
c83.333 -106.667 125 -235 125 -385zM852 551.002c0 106.667 -22.667 196.333 -68 269c-54 85.333 -131 128 -231 128c-103.333 0 -181.333 -43.333 -234 -130c-44.667 -72 -67 -163 -67 -273c0 -107.333 22 -197.333 66 -270c53.333 -87.333 130.333 -131 231 -131
c104.667 0 183.667 43.333 237 130c44 72 66 164.333 66 277zM1143 1106c0 -23.333 -5.33203 -45.334 -15.999 -66.001l-130 -247c-25.333 -48 -53 -72 -83 -72c-22.667 0 -43.334 9.33301 -62.001 28c-16.667 16.667 -27 36.667 -31 60c4 20.667 11 40.334 21 59.001
l125 250c20.667 42.667 50 64 88 64c58.667 0 88 -25.333 88 -76zM788.001 1317c0 -50.667 -29.332 -76 -87.999 -76c-4.66699 0 -20.334 3.33301 -47.001 10l-260 105c-43.333 17.333 -65 42.666 -65 75.999c0 22.667 8.66699 42.334 26 59.001s38 25 62 25
c14 0 24.667 -1.66699 32 -5l273 -114c44.667 -19.333 67 -46 67 -80z" />
    </font>
</defs>
</svg>
